SplineFontDB: 3.2
FontName: AndikaArmenian
FullName: Andika Armenian
FamilyName: Andika Armenian
Weight: Regular
Copyright: 
UComments: "2025-7-20: Created with FontForge (http://fontforge.org)"
Version: 1.000
ItalicAngle: 0
UnderlinePosition: -204
UnderlineWidth: 102
Ascent: 1638
Descent: 410
InvalidEm: 0
sfntRevision: 0x00010000
LayerCount: 2
Layer: 0 0 "Back" 1
Layer: 1 0 "Fore" 0
XUID: [1021 588 1367829892 14610746]
StyleMap: 0x0000
FSType: 0
OS2Version: 0
OS2_WeightWidthSlopeOnly: 0
OS2_UseTypoMetrics: 1
CreationTime: 1753002950
ModificationTime: 1753102080
OS2TypoAscent: 0
OS2TypoAOffset: 1
OS2TypoDescent: 0
OS2TypoDOffset: 1
OS2TypoLinegap: 184
OS2WinAscent: 0
OS2WinAOffset: 1
OS2WinDescent: 0
OS2WinDOffset: 1
HheadAscent: 0
HheadAOffset: 1
HheadDescent: 0
HheadDOffset: 1
MarkAttachClasses: 1
DEI: 91125

StartChar: uni0531
Encoding: 1329 1329 1
Width: 1440
Flags: HW
LayerCount: 2
Fore
SplineSet
1415 -40 m 5
 1400.58903997 -76.581667767 1309.01350432 -145 1280 -145 c 4
 1212.30271424 -145 660 336.339936875 660 345 c 5
 795 445 l 5
 800.566080308 439.433919692 1283.83999548 -13.282221301 1415 -40 c 5
708.5 -25 m 128
 511.442921441 -25 175 43.9722647937 175 515 c 2
 175 1025 l 2
 175 1260.33333333 170 1405.33333333 160 1460 c 1
 365 1460 l 1
 365 560 l 2
 365 184.392802284 554.559247628 135 709 135 c 128
 852.177245586 135 1050 174.815806834 1050 560 c 2
 1050 1460 l 1
 1255 1460 l 1
 1245 1400 1240 1255 1240 1025 c 2
 1240 515 l 2
 1240 310.217069927 1169.58456123 -25 708.5 -25 c 128
EndSplineSet
Validated: 524293
EndChar

StartChar: uni0532
Encoding: 1330 1330 2
Width: 1440
Flags: HW
LayerCount: 2
Fore
SplineSet
709 1326 m 4
 554.584099842 1326 365 1276.62993116 365 901 c 6
 365 725 l 5
 1248 725 l 5
 1248 562 l 5
 1211.84082031 582.453125 618.212890625 575.098632812 365 570.998046875 c 5
 365 1 l 5
 160 1 l 5
 170 55.6669921875 175 200.666992188 175 436 c 6
 175 946 l 6
 175 1145.44178967 243.130722135 1486 708.5 1486 c 4
 926.940888795 1486 1189.73690324 1407.76497402 1234.19726562 1045 c 5
 1038.73144531 1045 l 5
 996.016915657 1289.68809887 841.942950656 1326 709 1326 c 4
EndSplineSet
Validated: 524321
EndChar

StartChar: uni0533
Encoding: 1331 1331 3
Width: 1481
Flags: HW
LayerCount: 2
Fore
SplineSet
1189.69433594 951 m 1
 1191.27246094 581 l 1
 1428 581 l 1
 1428 412.910673562 l 1
 1376.92010658 421.879846662 1191.27246094 421 1191.27246094 421 c 1
 1191.27246094 0 l 1
 1006.27246094 0 l 1
 1006.27246094 421 l 1
 626.022460938 421 l 2
 327.801757812 421 85.5 564.250976562 85.5 951 c 0
 85.5 1322.15625 332.030273438 1486 646.822265625 1486 c 0
 961.083007812 1486 1189.69433594 1326.85546875 1189.69433594 951 c 1
1006.27246094 951.5 m 2
 1006.27246094 1212.12198942 825.151265892 1326 634.471679688 1326 c 0
 452.776367188 1326 270.5 1219.04980469 270.5 951.5 c 0
 270.5 684.08984375 443.858398438 581 626.022460938 581 c 2
 1006.27246094 581 l 1
 1006.27246094 951.5 l 2
EndSplineSet
Validated: 524321
EndChar

StartChar: uni0534
Encoding: 1332 1332 4
Width: 1416
Flags: HW
LayerCount: 2
Fore
SplineSet
1124 583 m 5
 1366.5 583 l 5
 1366 413 l 5
 1334.39257812 423.225585938 1149.82226562 423.081054688 1124 423.010742188 c 5
 1124 583 l 5
621.5 1485 m 0
 818.557574632 1485 1155 1416.02766285 1155 945 c 2
 1155 435 l 6
 1155 199.666992188 1160 54.6669921875 1170 0 c 1
 965 0 l 1
 965 900 l 2
 965 1277.69708834 772.949856624 1325 621 1325 c 0
 488.030009891 1325 333.979588019 1288.66807035 291.268554688 1044 c 1
 95.802734375 1044 l 1
 120.840017434 1248.28644418 233.556654409 1485 621.5 1485 c 0
EndSplineSet
Validated: 524325
EndChar

StartChar: uni0535
Encoding: 1333 1333 5
Width: 1440
Flags: HW
LayerCount: 2
Fore
SplineSet
709 145 m 0
 554.584099842 145 365 194.370068836 365 570 c 2
 365 860 l 1
 1248 860 l 1
 1248 1023 l 1
 1211.84082031 1002.546875 618.212890625 1009.90136719 365 1014.00195312 c 1
 365 1470 l 1
 160 1470 l 1
 170 1415.33300781 175 1270.33300781 175 1035 c 2
 175 525 l 2
 175 325.558210328 243.130722135 -15 708.5 -15 c 0
 944.612069451 -15 1240.2292749 76.3995162787 1234.19726562 536 c 5
 1038.73144531 536 l 5
 1037.19399416 388.696284583 1034.6504661 145 709 145 c 0
EndSplineSet
Validated: 524329
EndChar

StartChar: uni0536
Encoding: 1334 1334 6
Width: 1355
Flags: HW
LayerCount: 2
Fore
SplineSet
90 1 m 1
 90 381 l 1
 249 381 l 1
 249 1 l 1
 90 1 l 1
1225 846 m 0
 1225 610.739651296 1154.38108929 355.767413434 915.542867806 166 c 1
 1225 166 l 1
 1225 1 l 1
 90 1 l 1
 90 181 l 1
 130.666992188 171 207.333007812 166 320 166 c 2
 687.427739592 166 l 1
 847.910091836 248.277830369 1030 475.512584814 1030 796 c 0
 1030 1133.5054207 797.094256384 1316 569 1316 c 0
 503.345825294 1316 286.360406576 1302.25187387 130 1131 c 1
 90 1326 l 1
 123.630043481 1353.48638017 305.542115401 1491 579 1491 c 0
 997.13086805 1491 1225 1178.66211732 1225 846 c 0
EndSplineSet
Validated: 524293
EndChar

StartChar: uni0537
Encoding: 1335 1335 7
Width: 1230
Flags: HW
LayerCount: 2
Fore
SplineSet
231 903 m 1
 1188 903 l 1
 1188 750 l 1
 231 750 l 1
 231 903 l 1
175 1025 m 2
 175 1260.33333333 170 1405.33333333 160 1460 c 1
 365 1460 l 1
 365 165 l 1
 589 165 l 2
 819.666666667 165 965 170 1025 180 c 1
 1025 0 l 1
 160 0 l 1
 170 54.6666666667 175 199.666666667 175 435 c 2
 175 1025 l 2
EndSplineSet
Validated: 524293
EndChar

StartChar: uni0538
Encoding: 1336 1336 8
Width: 1296
Flags: HW
LayerCount: 2
Fore
SplineSet
172 154 m 5
 1186 154 l 5
 1186 -2 l 5
 172 -2 l 5
 172 154 l 5
679 1323 m 0
 527.069456561 1323 335 1275.71410418 335 898 c 2
 335 -2 l 1
 130 -2 l 1
 140 52.6669921875 145 197.666992188 145 433 c 2
 145 943 l 2
 145 1142.44178967 213.130722135 1483 678.5 1483 c 0
 896.940888795 1483 1159.73690324 1404.76497402 1204.19726562 1042 c 1
 1008.73144531 1042 l 1
 966.016915657 1286.68809887 811.942950656 1323 679 1323 c 0
EndSplineSet
Validated: 524293
EndChar

StartChar: uni0539
Encoding: 1337 1337 9
Width: 1396
Flags: HW
LayerCount: 2
Fore
SplineSet
772.663085938 705.5 m 0
 772.663085938 617.166992188 819.231445312 573 912.231445312 573 c 0
 1020.56445312 573 1056.70117188 656.151367188 1050.64160156 822.454101562 c 1
 1018.70117188 832.818359375 986.041992188 838 952.663085938 838 c 0
 832.708984375 838 772.663085938 793.833007812 772.663085938 705.5 c 0
1048.890625 1057.0859375 m 1
 1047.10644531 1170.65820312 984.456380247 1323 709 1323 c 0
 557.069456561 1323 365 1275.71410418 365 898 c 2
 365 -2 l 1
 160 -2 l 1
 170 52.6669921875 175 197.666992188 175 433 c 2
 175 943 l 2
 175 1142.44178967 243.130722135 1483 708.5 1483 c 0
 806.1194242 1483 1218.58228085 1458.34755634 1223.73144531 1042 c 1
 1223.73144531 1008 l 2
 1223.73144531 970 1223.18261719 911.915039062 1223.18261719 911.915039062 c 1
 1223.18261719 911.915039062 1335.84179688 869.783203125 1358.73144531 845.729492188 c 1
 1358.73144531 694.129882812 l 1
 1338.44140625 735.272460938 1219.27539062 794.446289062 1219.27539062 794.446289062 c 1
 1218.91308594 566.815429688 1085.23144531 433 908.231445312 433 c 0
 731.231445312 433 642.708984375 512.666992188 642.663085938 672 c 0
 642.748835259 1021.98311726 1018 950 1048.890625 947.0859375 c 1
 1048.890625 1057.0859375 l 1
EndSplineSet
Validated: 524321
EndChar

StartChar: uni0569
Encoding: 1385 1385 10
Width: 1239
Flags: HW
LayerCount: 2
Fore
SplineSet
671 870 m 0
 615.068771366 870 444.833285547 846.443328649 340 575 c 1
 340 -150 l 2
 340 -294.666666667 348.333333333 -408 365 -490 c 1
 155 -490 l 1
 155 91 l 2
 155 840.764218016 148.989750825 910.025622938 105 1020 c 1
 285 1020 l 1
 303 979.333333333 316.333333333 916 325 830 c 1
 396.530587474 923.694994861 520.723866257 1040 696.5 1040 c 0
 899.285532944 1040 1076 935.920898438 1075 593 c 1
 1075 559 l 2
 1075 557 1074.81738281 568.3046875 1074.45117188 472.915039062 c 1
 1115.39257812 443.009765625 1151.2421875 408.680664062 1182 369.9296875 c 1
 1182 128.262695312 l 1
 1161.875 206.000976562 1124.72265625 271.729492188 1070.54394531 325.446289062 c 1
 1065 88 936.5 -16 759.5 -16 c 0
 582.5 -16 493.977539062 63.6669921875 493.931640625 223 c 0
 493.977539062 410.333007812 602.977539062 504 820.931640625 504 c 0
 845.643554688 504 868.719726562 502.028320312 890.159179688 498.0859375 c 1
 890.052734375 498.6953125 890 527.333007812 890 584 c 2
 890 622 l 2
 890 797.4609375 809.269436003 870 671 870 c 0
623.931640625 256.5 m 0
 623.931640625 168.166992188 670.5 124 763.5 124 c 0
 871.833007812 124 895.969726562 207.151367188 895.91015625 373.454101562 c 1
 863.969726562 383.818359375 827.310546875 389 793.931640625 389 c 0
 673.977539062 389 623.931640625 344.833007812 623.931640625 256.5 c 0
EndSplineSet
Validated: 524321
EndChar

StartChar: uni053A
Encoding: 1338 1338 11
Width: 1486
Flags: HW
LayerCount: 2
Fore
SplineSet
1006.27246094 522.5 m 6
 1006.27246094 261.878010577 825.151265892 148 634.471679688 148 c 4
 452.776367188 148 270.5 254.950195312 270.5 522.5 c 4
 270.5 789.91015625 443.858398438 893 626.022460938 893 c 6
 1006.27246094 893 l 5
 1006.27246094 522.5 l 6
1189.69433594 523 m 5
 1191.27246094 893 l 5
 1436.77246094 893 l 5
 1436.27246094 1063 l 5
 1402.27246094 1052 1191.27246094 1053 1191.27246094 1053 c 5
 1191.27246094 1474 l 5
 1006.27246094 1474 l 5
 1006.27246094 1053 l 5
 626.022460938 1053 l 6
 327.801757812 1053 85.5 909.749023438 85.5 523 c 4
 85.5 151.84375 332.030273438 -12 646.822265625 -12 c 4
 961.083007812 -12 1189.69433594 147.14453125 1189.69433594 523 c 5
EndSplineSet
Validated: 524329
EndChar

StartChar: uni053B
Encoding: 1339 1339 12
Width: 1144
Flags: HW
LayerCount: 2
Fore
SplineSet
215 1025 m 2
 215 1260.33333333 210 1405.33333333 200 1460 c 1
 405 1460 l 1
 405 435 l 2
 405 199.666666667 410 54.6666666667 420 0 c 1
 215 0 l 1
 215 1025 l 2
803.5 870 m 0
 518.270507812 870 395.188476562 651.299804688 355 559.459960938 c 1
 355 804.708984375 l 1
 371.64453125 825.142578125 512.905273438 1040 848 1040 c 0
 977.693359375 1040 1080 892.360351562 1080 674 c 5
 910 670 l 1
 910 672.177734375 909.263671875 870 803.5 870 c 0
EndSplineSet
Validated: 524293
EndChar

StartChar: uni053C
Encoding: 1340 1340 13
Width: 1080
Flags: HW
LayerCount: 2
Fore
SplineSet
175 1025 m 2
 175 1260.33333333 170 1405.33333333 160 1460 c 1
 365 1460 l 1
 365 165 l 1
 589 165 l 2
 819.666666667 165 965 170 1025 180 c 1
 1025 0 l 1
 160 0 l 1
 170 54.6666666667 175 199.666666667 175 435 c 2
 175 1025 l 2
EndSplineSet
Validated: 524289
EndChar

StartChar: uni054D
Encoding: 1357 1357 14
Width: 1440
Flags: HW
LayerCount: 2
Fore
SplineSet
708.5 -25 m 128
 511.442921441 -25 175 43.9722647937 175 515 c 2
 175 1025 l 2
 175 1260.33333333 170 1405.33333333 160 1460 c 1
 365 1460 l 1
 365 560 l 2
 365 184.392802284 554.559247628 135 709 135 c 128
 852.177245586 135 1050 174.815806834 1050 560 c 2
 1050 1460 l 1
 1255 1460 l 1
 1245 1400 1240 1255 1240 1025 c 2
 1240 515 l 2
 1240 310.217069927 1169.58456123 -25 708.5 -25 c 128
EndSplineSet
Validated: 524289
EndChar

StartChar: uni054F
Encoding: 1359 1359 15
Width: 1175
Flags: HW
LayerCount: 2
Fore
SplineSet
1065 439 m 128
 1065 116.816029218 802.343806186 -25 561 -25 c 128
 503.827861798 -25 260.988805981 -17.1862279593 95 110 c 1
 140 315 l 1
 266.666666667 205 408.333333333 150 565 150 c 0
 780.07420253 150 875 288.679988736 875 391 c 128
 875 768.89028179 135 582.832691183 135 1069.5 c 128
 135 1238.86531173 256.753200648 1485 605 1485 c 0
 744.333333333 1485 876 1455 1000 1395 c 1
 960 1200 l 1
 807.979900289 1283.82416713 711.38168781 1310 603 1310 c 128
 408.60920762 1310 325 1185.85241663 325 1095 c 256
 325 766.828233122 1065 914.785505617 1065 439 c 128
EndSplineSet
Validated: 524289
EndChar

StartChar: uni0561
Encoding: 1377 1377 16
Width: 1685
Flags: HW
LayerCount: 2
Fore
SplineSet
1014 -25 m 128
 849.701207362 -25 786.268350114 120.251555699 775 150 c 1
 666.333333333 33.3333333333 557.166666667 -25 447.5 -25 c 128
 317.340776659 -25 165 7.57941136669 165 360 c 2
 165 700 l 2
 165 843.333333333 158.333333333 950 145 1020 c 1
 350 1020 l 1
 350 470 l 2
 350 167.722593466 411.364132399 150 504 150 c 128
 587.072338113 150 689.657308296 228.088069298 750 360 c 1
 750 1020 l 1
 935 1020 l 1
 935 450 l 2
 935 169.465000914 990.76737089 150 1089 150 c 128
 1175.34987716 150 1280.5740013 237.541502929 1335 360 c 1
 1335 1020 l 1
 1520 1020 l 1
 1520 405 l 2
 1520 243 1536.66666667 108 1570 0 c 1
 1390 0 l 1
 1380.66666667 27.3333333333 1370.66666667 79 1360 155 c 1
 1284.19030573 66.6942022744 1186.58573862 -25 1014 -25 c 128
EndSplineSet
Validated: 524289
EndChar

StartChar: uni0578
Encoding: 1400 1400 17
Width: 1185
Flags: HW
LayerCount: 2
Fore
SplineSet
663 865 m 128
 513.304773007 865 380.412229925 704.910528858 340 580 c 1
 340 0 l 1
 155 0 l 1
 155 615 l 2
 155 783 138.333333333 918 105 1020 c 1
 285 1020 l 1
 300.333333333 979.333333333 313.666666667 914.333333333 325 825 c 1
 444.333333333 968.333333333 576 1040 720 1040 c 0
 873.240442778 1040 1050 966.076479692 1050 625 c 2
 1050 0 l 1
 865 0 l 1
 865 550 l 2
 865 812.887922166 787.38814551 865 663 865 c 128
EndSplineSet
Validated: 524289
EndChar

StartChar: uni0581
Encoding: 1409 1409 18
Width: 1125
Flags: HW
LayerCount: 2
Fore
SplineSet
105 413 m 128
 105 558.778684345 141.60888725 1040 625 1040 c 128
 716.333333333 1040 838 1015 990 965 c 1
 990 25 l 2
 990 -456.586045849 596.797242542 -470 553 -470 c 0
 423 -470 298.666666667 -430 180 -350 c 1
 245 -195 l 1
 351.666666667 -271.666666667 448.333333333 -310 535 -310 c 0
 551.04502323 -310 805 -305.335357745 805 -10 c 2
 805 195 l 1
 756.373413973 133.905058582 626.961469154 -5 455.5 -5 c 128
 288.709095255 -5 105 115.373045933 105 413 c 128
593.5 870 m 128
 379.046417444 870 290 684.570644262 290 485 c 0
 290 271.666666667 353.333333333 165 480 165 c 0
 483.98151981 165 669.315164096 165.37950847 805 395 c 1
 805 830 l 1
 735.666666667 856.666666667 665.166666667 870 593.5 870 c 128
EndSplineSet
Validated: 524289
EndChar

StartChar: uni053D
Encoding: 1341 1341 19
Width: 1778
Flags: HW
LayerCount: 2
Fore
SplineSet
1190 -20 m 0
 1036.92696641 -20 747 24.3094705649 747 360 c 2
 747 541 l 2
 747 592.596241482 746.5874821 637.042105563 745.762446301 675 c 1
 365 675 l 1
 365 435 l 2
 365 199.666666667 370 54.6666666667 380 0 c 1
 160 0 l 1
 170 54.6666666667 175 199.666666667 175 435 c 2
 175 1025 l 2
 175 1260.33333333 170 1405.33333333 160 1460 c 1
 380 1460 l 1
 370 1405.33333333 365 1260.33333333 365 1025 c 2
 365 835 l 1
 935 835 l 1
 935 391 l 2
 935 269.210750572 979.113955705 124 1189.5 124 c 0
 1308.77730379 124 1443 172.536080801 1443 391 c 2
 1443 835 l 1
 1643 835 l 1
 1635 787 1631 695.666992188 1631 541 c 2
 1631 360 l 2
 1631 224.33788862 1577.24843173 -20 1190 -20 c 0
EndSplineSet
Validated: 524289
EndChar

StartChar: uni057D
Encoding: 1405 1405 20
Width: 1185
Flags: HW
LayerCount: 2
Fore
SplineSet
510 140 m 0
 635.329289385 140 792.108635539 307.639491072 840 420 c 1
 840 700 l 2
 840 822.666666667 833.333333333 929.333333333 820 1020 c 1
 1025 1020 l 1
 1025 450 l 2
 1025 267.333333333 1046.66666667 117.333333333 1090 0 c 1
 920 0 l 1
 892.666666667 68.6666666667 874.333333333 135.333333333 865 200 c 1
 741 50 611 -25 475 -25 c 0
 261.666666667 -25 155 118.333333333 155 405 c 2
 155 648 l 130
 155 810 148.333333333 934 135 1020 c 1
 340 1020 l 1
 340 465 l 2
 340 207.315970607 401.566464352 140 510 140 c 0
EndSplineSet
Validated: 524289
EndChar

StartChar: uni053E
Encoding: 1342 1342 21
Width: 1293
Flags: HW
LayerCount: 2
Fore
SplineSet
96 966 m 1
 96 1468 l 1
 270 1468 l 1
 270 966 l 1
 96 966 l 1
728 966 m 1
 96 966 l 1
 96 1126 l 1
 728 1126 l 1
 728 966 l 1
703 -25 m 0
 619.362304688 -25 143 -36.681640625 143 610 c 0
 143 925.133789062 479.674804688 1308.93652344 1068 1485 c 1
 1158 1345 l 1
 785.861328125 1190.21582031 338 1018.37402344 338 585 c 0
 338 508.987304688 354.881835938 145 733 145 c 128
 912.024414062 145 1013 287.956054688 1013 475.5 c 128
 1013 812.719726562 934.770507812 961.861328125 728 966 c 1
 728 1126 l 1
 1103.21386719 1125.9609375 1198 845.622070312 1198 515.5 c 128
 1198 151.91015625 966.083984375 -25 703 -25 c 0
EndSplineSet
Validated: 524325
EndChar

StartChar: uni053F
Encoding: 1343 1343 22
Width: 1325
Flags: HW
LayerCount: 2
Fore
SplineSet
315 880 m 2
 315 772.459145439 353.735038725 605 595 605 c 0
 736.333007812 605 849.666992188 631.666992188 935 685 c 1
 935 1050 l 5
 1140 1050 l 5
 1130 995.333007812 1125 800.333007812 1125 565 c 2
 1125 435 l 2
 1125 199.666666667 1130 54.6666666667 1140 0 c 1
 935 0 l 1
 935 525 l 1
 774.278283913 445.876075814 661.520202853 445 582.5 445 c 128
 504.217075478 445 125 464.874869908 125 850 c 0
 125 1108.66699219 120 1405.33333333 110 1460 c 1
 315 1460 l 1
 315 880 l 2
EndSplineSet
Validated: 524289
EndChar

StartChar: uni0540
Encoding: 1344 1344 23
Width: 1230
Flags: HW
LayerCount: 2
Fore
SplineSet
842.536132812 1474.19628906 m 1
 1105 1400 l 1
 1105 1330 l 1
 233.180664062 463.75390625 l 1
 642.0078125 269.33984375 l 1
 829.836914062 175.42578125 962.510742188 116.541992188 1040.02734375 92.6904296875 c 1
 957.29296875 -72.7783203125 l 1
 9.2001953125 401.268554688 l 1
 65.1025390625 513.071289062 l 1
 870 1295 l 1
 677 1358 l 2
 613.547786289 1378.71238064 585 1385 585 1385 c 1
 788 1626 l 1
 935 1580 l 1
 842.536132812 1474.19628906 l 1
EndSplineSet
Validated: 524289
EndChar

StartChar: uni0541
Encoding: 1345 1345 24
Width: 1328
Flags: HW
LayerCount: 2
Fore
SplineSet
646 274 m 1
 551 350 427.415039062 377.809570312 368.376359301 375.720408943 c 0
 107.803330739 366.499689452 298.389458696 -50.8696647703 646 274 c 1
584.76775637 1485 m 0
 1248.84025409 1485 1295.21245652 780.640709822 896 312 c 1
 1072 228 1164 163.323242188 1164 163.323242188 c 1
 1163 -45 l 1
 1163 -45 1045.52929688 78.1630859375 791.529296875 206.163085938 c 1
 791.529296875 206.163085938 684 73 497 12 c 1
 -124.103295209 -137.96457832 -84.8584980548 905.921828147 764.186523438 382.3984375 c 5
 1024.64128725 717.973259062 1091.54575854 1305 597.263556556 1305 c 0
 408.991210938 1305 250.725585938 1232.1015625 158 1120 c 1
 113 1290 l 1
 187.268554688 1391.67675781 349.033203125 1485 584.76775637 1485 c 0
EndSplineSet
Validated: 524321
EndChar

StartChar: uni0542
Encoding: 1346 1346 25
Width: 1416
Flags: HW
LayerCount: 2
Fore
SplineSet
1124 160 m 5
 1366.5 160 l 5
 1366 -10 l 5
 1334.39257812 0.2255859375 1149.82226562 0.0810546875 1124 0.0107421875 c 5
 1124 160 l 5
621.5 1485 m 0
 818.557574632 1485 1155 1416.02766285 1155 945 c 2
 1155 395 l 2
 1155 159.666992188 1160 54.6669921875 1170 0 c 1
 965 0 l 1
 965 900 l 2
 965 1277.69708834 772.949856624 1325 621 1325 c 0
 488.030009891 1325 333.979588019 1288.66807035 291.268554688 1044 c 1
 95.802734375 1044 l 1
 120.840017434 1248.28644418 233.556654409 1485 621.5 1485 c 0
EndSplineSet
Validated: 524325
EndChar

StartChar: uni0543
Encoding: 1347 1347 26
Width: 1341
Flags: HW
LayerCount: 2
Fore
SplineSet
776 966 m 1
 528.694335938 966 l 1
 369.845725548 785.752336835 298.634689524 394.666851128 275.259567918 158 c 1
 1058 158 l 1
 1058 580 l 1
 1055.23632812 843.772460938 960.028320312 962.31640625 776 966 c 1
460.15234375 1126 m 1
 616.768554688 1272.56445312 838.36328125 1401.9140625 1116 1485 c 1
 1206 1345 l 1
 1206 1345 852.997070312 1247.28417969 700.974609375 1126 c 1
 776 1126 l 2
 1126.50683594 1125.96386719 1232.30078125 881.326171875 1244.71386719 580 c 1
 1244.71386719 0 l 1
 71.349609375 0 l 1
 71.1171875 9.8388671875 71 19.837890625 71 30 c 0
 71 144.040039062 116 664 319.240234375 966 c 1
 144 966 l 1
 144 1126 l 1
 460.15234375 1126 l 1
EndSplineSet
Validated: 524289
EndChar

StartChar: uni0544
Encoding: 1348 1348 27
Width: 1480
Flags: HW
LayerCount: 2
Fore
SplineSet
1185 1460 m 1
 1427.5 1460 l 1
 1427 1290 l 1
 1395.39257812 1300.22558594 1210.82226562 1300.08105469 1185 1300.01074219 c 1
 1185 1460 l 1
708.5 -25 m 128
 511.442921441 -25 175 43.9722647937 175 515 c 2
 175 1025 l 2
 175 1260.33333333 170 1405.33333333 160 1460 c 1
 365 1460 l 1
 365 560 l 2
 365 184.392802284 554.559247628 135 709 135 c 128
 852.177245586 135 1050 174.815806834 1050 560 c 2
 1050 1460 l 1
 1255 1460 l 1
 1245 1400 1240 1255 1240 1025 c 2
 1240 515 l 2
 1240 310.217069927 1169.58456123 -25 708.5 -25 c 128
EndSplineSet
Validated: 524325
EndChar

StartChar: uni0545
Encoding: 1349 1349 28
Width: 1260
Flags: HW
LayerCount: 2
Fore
SplineSet
540 150 m 128
 652.895992212 150 945 173.78925437 945 420 c 0
 945 610 790 705 480 705 c 2
 90 705 l 5
 90 865 l 5
 480 865 l 2
 785.587942291 865 900 1001.95166267 900 1114 c 0
 900 1244.66666667 786.666666667 1310 560 1310 c 0
 408.666666667 1310 273.666666667 1273.33333333 155 1200 c 1
 120 1375 l 1
 147.275182743 1391.51877265 313.2876556 1485 577.5 1485 c 128
 896.865522538 1485 1090 1332.923211 1090 1148 c 128
 1090 923.891620382 904.556884256 814.726321726 800 800 c 1
 830.534468682 796.989559426 1140 753.537437162 1140 438.5 c 128
 1140 221.931922939 946.156797053 -25 553.5 -25 c 128
 464.909888357 -25 286.052631579 -25 95 85 c 1
 140 275 l 1
 145.044002195 270.056877849 270.314977998 150 540 150 c 128
EndSplineSet
Validated: 524289
EndChar

StartChar: uni0546
Encoding: 1350 1350 29
Width: 1428
Flags: HW
LayerCount: 2
Fore
SplineSet
66.5 1460 m 1
 319 1460 l 1
 318.5 1290 l 1
 286.892578125 1300.22558594 92.322265625 1300.08105469 66.5 1300.01074219 c 1
 66.5 1460 l 1
752.5 -25 m 128
 555.442425368 -25 219 43.9723371499 219 515 c 2
 219 1025 l 2
 219 1260.33300781 214 1405.33300781 204 1460 c 1
 409 1460 l 1
 409 560 l 2
 409 184.393124261 598.558167746 135 753 135 c 128
 896.177709634 135 1094 174.816137066 1094 560 c 2
 1094 860 l 1
 1288 860 l 1
 1280 800 1284 725 1284 615 c 2
 1284 515 l 2
 1284 310.21678839 1213.58451935 -25 752.5 -25 c 128
EndSplineSet
Validated: 524325
EndChar

StartChar: uni0547
Encoding: 1351 1351 30
Width: 1375
Flags: HW
LayerCount: 2
Fore
SplineSet
741 -25 m 0
 322.868855077 -25 95 287.338221513 95 620 c 128
 95 685.993480036 109.73728134 1244.24576045 604 1409 c 1
 717 1333 l 1
 490.951648785 1270.31432277 290 1001.74990382 290 670 c 128
 290 332.49388239 522.906398646 150 751 150 c 0
 816.654207884 150 1027.63964844 150.748046875 1124 382 c 1
 1304 382 l 1
 1304 382 1244.45526983 -25 741 -25 c 0
1230 1195 m 1
 95 1310 l 1
 95 1475 l 1
 1230 1375 l 1
 1230 1195 l 1
EndSplineSet
Validated: 524293
EndChar

StartChar: uni0548
Encoding: 1352 1352 31
Width: 1440
Flags: HW
LayerCount: 2
Fore
SplineSet
708.5 1485 m 132
 511.442425368 1485 175 1416.02766285 175 945 c 6
 175 435 l 6
 175 199.666992188 170 54.6669921875 160 0 c 5
 365 0 l 5
 365 900 l 6
 365 1275.60687574 554.558167746 1325 709 1325 c 132
 852.177709634 1325 1050 1285.18386293 1050 900 c 6
 1050 0 l 5
 1255 0 l 5
 1245 60 1240 205 1240 435 c 6
 1240 945 l 6
 1240 1149.78321161 1169.58451935 1485 708.5 1485 c 132
EndSplineSet
Validated: 524297
EndChar

StartChar: uni0550
Encoding: 1360 1360 32
Width: 1440
Flags: HW
LayerCount: 2
Fore
SplineSet
365 725 m 5
 365 901 l 2
 365 1086 411.333007812 1210.66699219 504 1274 c 0
 554 1308.66699219 622.333007812 1326 709 1326 c 0
 795.666992188 1326 863.666992188 1308.66699219 913 1274 c 0
 978.138671875 1228.35546875 1020.04882812 1152.02246094 1038.73144531 1045 c 1
 1234.19726562 1045 l 1
 1219.79003906 1162.55273438 1178.55761719 1260.21875 1110.5 1338 c 0
 1024.16699219 1436.66699219 890.166992188 1486 708.5 1486 c 0
 526.833007812 1486 392.5 1436.66699219 305.5 1338 c 0
 218.5 1239.33300781 175 1108.66699219 175 946 c 2
 175 436 l 2
 175 200.666992188 170 55.6669921875 160 1 c 1
 365 1 l 1
 365 725 l 5
EndSplineSet
Validated: 6815753
EndChar

StartChar: uni0550
Encoding: 1360 1360 33
Width: 1440
Flags: HW
LayerCount: 2
Fore
SplineSet
708.5 1486 m 0
 511.442425368 1486 175 1417.02766285 175 946 c 2
 175 436 l 2
 175 200.666992188 170 55.6669921875 160 1 c 1
 365 1 l 1
 365 901 l 2
 365 1278.69708834 557.050143376 1326 709 1326 c 0
 841.969990109 1326 996.020411981 1289.66807035 1038.73144531 1045 c 1
 1234.19726562 1045 l 1
 1209.15998257 1249.28644418 1096.44334559 1486 708.5 1486 c 0
EndSplineSet
Validated: 6815753
EndChar

StartChar: uni0549
Encoding: 1353 1353 34
Width: 1375
Flags: HW
LayerCount: 2
Fore
SplineSet
597 1463 m 0
 1015.13085938 1463 1243 1150.66210938 1243 818 c 132
 1243 402.006835938 996 129 507 69 c 5
 506 202 l 1
 732.048828125 184.685546875 1048 436.25 1048 768 c 128
 1048 1105.50585938 815.09375 1288 587 1288 c 0
 521.345703125 1288 310.360351562 1287.25195312 214 1056 c 1
 34 1056 l 1
 34 1056 93.544921875 1463 597 1463 c 0
108 243 m 1
 1243 128 l 1
 1243 -37 l 1
 108 63 l 1
 108 243 l 1
EndSplineSet
Validated: 524325
EndChar

StartChar: uni054A
Encoding: 1354 1354 35
Width: 1542
Flags: HW
LayerCount: 2
Fore
SplineSet
658.448242188 1362 m 1
 849.6484375 1362 l 5
 849.6484375 286 l 5
 658.448242188 286 l 1
 658.448242188 1362 l 1
753.6484375 1325 m 128
 479.471409766 1325 349 1207.21037681 349 900 c 2
 349 500 l 1
 144 500 l 1
 154 584.666992188 159 659.666992188 159 805 c 2
 159 945 l 2
 159 1078.40871114 159 1485 753.047851562 1485 c 128
 900.985513095 1485 1344.69628906 1485 1344.69628906 945 c 2
 1344.69628906 435 l 2
 1344.69628906 205 1349.69628906 60 1359.69628906 0 c 1
 1154.69628906 0 l 1
 1154.69628906 900 l 2
 1154.69628906 1220.47123831 1013.29960192 1325 753.6484375 1325 c 128
EndSplineSet
Validated: 524293
EndChar

StartChar: uni054C
Encoding: 1356 1356 36
Width: 1500
Flags: HW
LayerCount: 2
Fore
SplineSet
1214 583 m 1
 1456.5 583 l 1
 1456 413 l 1
 1424.39257812 423.225585938 1239.82226562 423.081054688 1214 423.010742188 c 1
 1214 583 l 1
709 1325 m 128
 554.584099842 1325 365 1275.62993116 365 900 c 2
 365 0 l 1
 160 0 l 1
 170 54.6669921875 175 199.666992188 175 435 c 2
 175 945 l 2
 175 1144.44178967 243.130722135 1485 708.5 1485 c 128
 910.074638026 1485 1240 1413.44784806 1240 945 c 2
 1240 435 l 2
 1240 205 1245 60 1255 0 c 1
 1050 0 l 1
 1050 900 l 2
 1050 1285.17677972 852.18592048 1325 709 1325 c 128
EndSplineSet
Validated: 524325
EndChar

StartChar: uni0553
Encoding: 1363 1363 37
Width: 1545
Flags: HW
LayerCount: 2
Fore
SplineSet
675 1385 m 1
 675 1443.66666667 673.333333333 1502 670 1560 c 1
 860 1560 l 1
 856.666666667 1503.33333333 855 1445.33333333 855 1386 c 1
 970.333333333 1376 1070.66666667 1346.5 1156 1297.5 c 128
 1241.33333333 1248.5 1307.5 1182.33333333 1354.5 1099 c 128
 1401.5 1015.66666667 1425 918 1425 806 c 128
 1425 694 1401 596 1353 512 c 128
 1305 428 1238.33333333 360.5 1153 309.5 c 128
 1067.66666667 258.5 968.333333333 227 855 215 c 1
 855 119.666666667 856.666666667 41.3333333333 860 -20 c 1
 670 -20 l 1
 673.333333333 40 675 117.666666667 675 213 c 1
 558.333333333 222.333333333 456.5 251 369.5 299 c 128
 282.5 347 215 412.5 167 495.5 c 128
 119 578.5 95 676.333333333 95 789 c 128
 95 901.666666667 119.333333333 1000.5 168 1085.5 c 128
 216.666666667 1170.5 284.666666667 1238.83333333 372 1290.5 c 128
 459.333333333 1342.16666667 560.333333333 1373.66666667 675 1385 c 1
675 381 m 1
 675 1219 l 1
 556.333333333 1203.66666667 460.833333333 1159.83333333 388.5 1087.5 c 128
 316.166666667 1015.16666667 280 921.166666667 280 805.5 c 128
 280 689.833333333 315.666666667 594 387 518 c 128
 458.333333333 442 554.333333333 396.333333333 675 381 c 1
855 1219 m 1
 855 380 l 1
 971 395.333333333 1064.16666667 438.666666667 1134.5 510 c 128
 1204.83333333 581.333333333 1240 675.666666667 1240 793 c 128
 1240 910.333333333 1205.33333333 1006.66666667 1136 1082 c 128
 1066.66666667 1157.33333333 973 1203 855 1219 c 1
EndSplineSet
Validated: 6815745
EndChar

StartChar: uni054B
Encoding: 1355 1355 38
Width: 1355
Flags: HW
LayerCount: 2
Fore
SplineSet
83 826 m 2
 83.4452522097 1781.66421001 1225 1635.25628009 1225 845 c 0
 1225 609.739257812 1164.38085938 354.767578125 925.54296875 165 c 1
 1225 165 l 1
 1225 0 l 1
 90 0 l 1
 90 380 l 1
 249 380 l 1
 249 165.76914712 l 1
 270.820678622 165.256382373 294.487337729 165 320 165 c 2
 563 165 l 1
 563 528 l 2
 563 716.8203125 422.301757812 768 303 768 c 0
 235 768 131.666992188 758 83 718 c 1
 83 826 l 2
267.320908935 930.944190864 m 1
 294.573949115 935.648063621 323.133646137 938 353 938 c 0
 563 938 748 813 748 563 c 2
 748 224.381877285 l 1
 887.28839739 329.23304848 1030 558.508586899 1030 795 c 0
 1030 1132.50585938 817.094726562 1315 589 1315 c 0
 467.365234375 1315 264 1188 267.320908935 930.944190864 c 1
EndSplineSet
Validated: 524321
EndChar

StartChar: uni0553
Encoding: 1363 1363 39
Width: 1545
Flags: HW
LayerCount: 2
Fore
SplineSet
95 789 m 128
 95 1147.45469789 352.528946521 1353.12786099 675 1385 c 1
 675 1443.66666667 673.333333333 1502 670 1560 c 1
 860 1560 l 1
 856.666666667 1503.33333333 855 1445.33333333 855 1386 c 1
 1191.88541471 1356.79028196 1425 1151.98639449 1425 806 c 128
 1425 455.005483354 1177.45020369 249.141786273 855 215 c 1
 855 119.666666667 856.666666667 41.3333333333 860 -20 c 1
 670 -20 l 1
 673.333333333 40 675 117.666666667 675 213 c 1
 543.368685772 223.530505138 95 295.609883865 95 789 c 128
675 1219 m 1
 588.742786701 1207.85440502 280 1144.29727433 280 805.5 c 128
 280 735.499227488 301.480576075 428.4637942 675 381 c 1
 675 1219 l 1
855 380 m 1
 1038.01351591 404.191441758 1240 515.912564847 1240 793 c 128
 1240 876.263920132 1214.25808227 1170.28703969 855 1219 c 1
 855 380 l 1
EndSplineSet
Validated: 6815745
EndChar

StartChar: uni054E
Encoding: 1358 1358 40
Width: 1375
Flags: HW
LayerCount: 2
Fore
SplineSet
1074 160 m 1
 1316.5 160 l 1
 1316 -10 l 1
 1284.39257812 0.2255859375 1099.82226562 0.0810546875 1074 0.0107421875 c 1
 1074 160 l 1
315 1020 m 2
 315 912.459102945 353.735045304 745 595 745 c 0
 736.333333333 745 849.666666667 771.666666667 935 825 c 1
 935 1460 l 1
 1140 1460 l 1
 1130 1405.33333333 1125 1260.33333333 1125 1025 c 2
 1125 435 l 2
 1125 199.666666667 1130 54.6666666667 1140 0 c 1
 935 0 l 1
 935 665 l 1
 774.278942262 585.87578696 661.517182554 585 582.5 585 c 128
 504.216909743 585 125 604.874884038 125 990 c 0
 125 1178.66666667 120 1245.33300781 110 1300 c 1
 315 1300 l 1
 315 1020 l 2
EndSplineSet
Validated: 524325
EndChar

StartChar: uni0551
Encoding: 1361 1361 41
Width: 1287
Flags: HW
LayerCount: 2
Fore
SplineSet
628.7109375 135 m 0
 852.841796875 135 1002.15917969 255.754372247 1002.15917969 422 c 0
 1002.15917969 591.544736408 848.55879786 710 628.7109375 710 c 0
 440.336241818 710 348.905543247 665.440055064 290.154296875 545 c 1
 129.8828125 608.569335938 l 1
 172.858585408 681.223948904 241.615645674 743.367412132 336.154296875 795 c 1
 194.679550062 874.424116283 136.154296875 969.820278978 136.154296875 1121 c 0
 136.154296875 1331.44985494 349.249943761 1485 641.310546875 1485 c 0
 930.863019508 1485 1132.15917969 1335.72424082 1132.15917969 1121 c 0
 1132.15917969 969.596100926 1083.43890985 888.910714696 935.310546875 795 c 1
 1101.98300078 711.927241324 1192.15917969 569.385977872 1192.15917969 389 c 0
 1192.15917969 -78.5681015925 343.787246227 -201.505647377 124.611328125 211.72265625 c 1
 290.154296875 302 l 1
 366.814724509 175.826104151 433.288085938 135 628.7109375 135 c 0
326.154296875 1101.5 m 0
 326.154296875 795.766724319 941.310546875 759.73469627 941.310546875 1101.5 c 0
 941.310546875 1239.56626084 822.047340528 1325 629.310546875 1325 c 0
 441.398180873 1325 326.154296875 1240.03718603 326.154296875 1101.5 c 0
EndSplineSet
Validated: 524321
EndChar

StartChar: uni0552
Encoding: 1362 1362 42
Width: 1010
Flags: HW
LayerCount: 2
Fore
SplineSet
365 435 m 2
 365 199.666666667 370 54.6666666667 380 0 c 1
 160 0 l 1
 170 54.6666666667 175 199.666666667 175 435 c 2
 175 1025 l 2
 175 1260.33333333 170 1405.33333333 160 1460 c 1
 380 1460 l 1
 370 1405.33333333 365 1260.33333333 365 1025 c 2
 365 435 l 2
290 915 m 5
 290 1075 l 5
 910 1075 l 5
 910 915 l 5
 290 915 l 5
EndSplineSet
Validated: 524293
EndChar

StartChar: uni0554
Encoding: 1364 1364 43
Width: 1386
Flags: HW
LayerCount: 2
Fore
SplineSet
24 352 m 1
 1052 352 l 1
 1052 208 l 1
 24 208 l 1
 24 352 l 1
337.727539062 951.5 m 2
 337.727539062 691 l 1
 606 658 l 2
 826.231445312 637.369140625 1073.5 684.08984375 1073.5 951.5 c 0
 1073.5 1219.04980469 891.223632812 1326 709.528320312 1326 c 0
 518.848734108 1326 337.727539062 1212.12198942 337.727539062 951.5 c 2
152.305664062 951 m 1
 152.305664062 1326.85546875 382.916992188 1486 697.177734375 1486 c 0
 1011.96972656 1486 1258.5 1322.15625 1258.5 951 c 0
 1258.5 564.250976562 931.365234375 467.520507812 606 498 c 2
 337.727539062 531 l 1
 337.727539062 0 l 1
 152.727539062 0 l 1
 152.727539062 661 l 1
 152.305664062 951 l 1
EndSplineSet
Validated: 524325
EndChar

StartChar: uni0555
Encoding: 1365 1365 44
Width: 1460
Flags: HW
LayerCount: 2
Fore
SplineSet
716.5 150 m 128
 951.620957949 150 1145 337.783735455 1145 719 c 128
 1145 1086.63519389 971.194975153 1310 720.5 1310 c 128
 483.214521037 1310 290 1114.66852036 290 740.5 c 128
 290 382.637526517 460.000430452 150 716.5 150 c 128
730 1485 m 0
 1034.42833766 1485 1340 1239.27471075 1340 740 c 256
 1340 248.955747475 1023.82559775 -25 710 -25 c 0
 396.46539561 -25 95 225.97504831 95 720 c 256
 95 1212.97216856 414.500258647 1485 730 1485 c 0
EndSplineSet
Validated: 524289
EndChar

StartChar: uni0556
Encoding: 1366 1366 45
Width: 1307
Flags: HW
LayerCount: 2
Fore
SplineSet
125.5 1069.5 m 0
 125.5 1238.86523438 247.252929688 1485 674.772460938 1485 c 0
 696.872070312 1485 740.572265625 1484.97460938 740.572265625 1484.97460938 c 1
 740.572265625 835.109375 l 1
 1053.76464844 747.223632812 1199.04394531 628.646484375 1199.04394531 439 c 0
 1199.04394531 116.81640625 931.319335938 -25 617.572265625 -25 c 0
 543.248046875 -25 251.489257812 -17.1865234375 85.5 110 c 1
 130.5 315 l 1
 239.41015625 220.419921875 387.85546875 166.5 558.272460938 153.2421875 c 1
 558.272460938 689.622070312 l 1
 290.506835938 758.772460938 125.5 859.051757812 125.5 1069.5 c 0
558.272460938 1296.90039062 m 1
 441.315429688 1271.16601562 315.5 1194.12890625 315.5 1095 c 0
 315.5 994.234375 394.549804688 944.166992188 558.272460938 892.384765625 c 1
 558.272460938 1296.90039062 l 1
740.572265625 162.534179688 m 1
 892.591796875 192.823242188 1009.04394531 267.18359375 1009.04394531 391 c 0
 1009.04394531 499.71484375 949.23828125 590.874023438 740.572265625 640.092773438 c 1
 740.572265625 162.534179688 l 1
EndSplineSet
Validated: 524289
EndChar

StartChar: uni0559
Encoding: 1369 1369 46
Width: 560
Flags: HW
LayerCount: 2
Fore
SplineSet
470 980 m 1
 470 850 l 1
 395.333333333 850 330.333333333 865.833333333 275 897.5 c 128
 219.666666667 929.166666667 176.666666667 972.166666667 146 1026.5 c 128
 115.333333333 1080.83333333 100 1142 100 1210 c 256
 100 1278 115.333333333 1339.16666667 146 1393.5 c 128
 176.666666667 1447.83333333 219.666666667 1490.83333333 275 1522.5 c 128
 330.333333333 1554.16666667 395.333333333 1570 470 1570 c 1
 470 1440 l 1
 400 1440 344.166666667 1418.33333333 302.5 1375 c 128
 260.833333333 1331.66666667 240 1276.66666667 240 1210 c 256
 240 1143.33333333 260.833333333 1088.33333333 302.5 1045 c 128
 344.166666667 1001.66666667 400 980 470 980 c 1
EndSplineSet
Validated: 524289
EndChar

StartChar: uni055A
Encoding: 1370 1370 47
Width: 410
Flags: HW
LayerCount: 2
Fore
SplineSet
65 1385 m 1
 65 1485 l 1
 71.6666666667 1516.33333333 88.6666666667 1540.83333333 116 1558.5 c 128
 143.333333333 1576.16666667 174.166666667 1585 208.5 1585 c 128
 242.833333333 1585 274.166666667 1570.16666667 302.5 1540.5 c 128
 330.833333333 1510.83333333 345 1468 345 1412 c 0
 345 1290.66666667 286.666666667 1175 170 1065 c 1
 70 1105 l 1
 118 1153 152.5 1203.33333333 173.5 1256 c 128
 194.5 1308.66666667 205 1351.66666667 205 1385 c 1
 65 1385 l 1
EndSplineSet
Validated: 524289
EndChar

StartChar: uni055B
Encoding: 1371 1371 48
Width: 580
Flags: HW
LayerCount: 2
Fore
SplineSet
350 1600 m 1
 580 1600 l 1
 160 1170 l 1
 0 1170 l 1
 350 1600 l 1
EndSplineSet
Validated: 1
EndChar

StartChar: uni055C
Encoding: 1372 1372 49
Width: 710
Flags: HW
LayerCount: 2
Fore
SplineSet
201.428710938 1087.19726562 m 5
 108.979492188 1037.41699219 l 5
 65.677734375 1117.83398438 58.4306640625 1194.5703125 87.23828125 1267.62695312 c 4
 100.784179688 1302.93554688 122.377929688 1328.57128906 152.020507812 1344.53222656 c 132
 181.663085938 1360.49414062 210.526367188 1370.16796875 238.611328125 1373.55371094 c 132
 266.696289062 1376.94042969 299.69140625 1380.69921875 337.596679688 1384.83105469 c 132
 375.501953125 1388.96191406 406.78125 1392.74414062 431.434570312 1396.17578125 c 132
 456.087890625 1399.60644531 478.099609375 1406.53808594 497.469726562 1416.96777344 c 132
 516.83984375 1427.3984375 529.099609375 1443.65332031 534.24609375 1465.73242188 c 132
 539.393554688 1487.8125 538.061523438 1509.62109375 530.250976562 1531.15820312 c 5
 622.700195312 1580.93847656 l 5
 666.6328125 1499.34863281 673.451171875 1422.00292969 643.154296875 1348.90039062 c 4
 628.705078125 1313.86230469 606.512695312 1288.28417969 576.577148438 1272.1640625 c 4
 533.727539062 1249.09179688 482.524414062 1235.90722656 422.96875 1232.61132812 c 4
 323.54296875 1226.01855469 262.090820312 1216.40136719 238.611328125 1203.75878906 c 132
 215.131835938 1191.11621094 200.728515625 1174.27441406 195.400390625 1153.23339844 c 132
 190.072265625 1132.19238281 192.08203125 1110.18066406 201.428710938 1087.19726562 c 5
EndSplineSet
Validated: 524321
EndChar

StartChar: uni055D
Encoding: 1373 1373 50
Width: 580
Flags: HW
LayerCount: 2
Fore
SplineSet
0 1600 m 1
 230 1600 l 1
 580 1170 l 1
 420 1170 l 1
 0 1600 l 1
EndSplineSet
Validated: 1
EndChar

StartChar: uni055E
Encoding: 1374 1374 51
Width: 702
Flags: HW
LayerCount: 2
Fore
SplineSet
429 1444 m 0
 575.5234375 1444 520 1290 482 1194 c 1
 604 1194 l 1
 677 1339 684.115234375 1594 429 1594 c 256
 186.139648438 1594 54 1469.89550781 54 1194 c 1
 174 1194 l 1
 189.563476562 1414.35351562 294.529296875 1444 429 1444 c 0
EndSplineSet
Validated: 524329
EndChar

StartChar: uni055F
Encoding: 1375 1375 52
Width: 710
Flags: HW
LayerCount: 2
Fore
SplineSet
0 1240 m 1
 0 1390 l 1
 710 1390 l 1
 710 1240 l 1
 0 1240 l 1
EndSplineSet
Validated: 1
EndChar

StartChar: uni0560
Encoding: 1376 1376 53
Width: 1685
Flags: HW
LayerCount: 2
Fore
SplineSet
175 615 m 2
 175 777 158.333333333 912 125 1020 c 1
 305 1020 l 1
 316.333333333 988 327 936.333333333 337 865 c 1
 398.333333333 935.666666667 455.666666667 982.5 509 1005.5 c 128
 562.333333333 1028.5 619.666666667 1040 681 1040 c 128
 742.333333333 1040 793.5 1023 834.5 989 c 128
 875.5 955 904.333333333 916 921 872 c 1
 983.666666667 939.333333333 1042.66666667 984.166666667 1098 1006.5 c 128
 1153.33333333 1028.83333333 1207.33333333 1040 1260 1040 c 0
 1361.33333333 1040 1431.66666667 1007.5 1471 942.5 c 128
 1510.33333333 877.5 1530 783.333333333 1530 660 c 2
 1530 0 l 1
 1345 0 l 1
 1345 550 l 2
 1345 712.666666667 1326 809.333333333 1288 840 c 0
 1266.66666667 856.666666667 1234.5 865 1191.5 865 c 128
 1148.5 865 1104 846.5 1058 809.5 c 128
 1012 772.5 974.333333333 722.666666667 945 660 c 1
 945 0 l 1
 760 0 l 1
 760 570 l 2
 760 652.666666667 755.666666667 715.166666667 747 757.5 c 128
 738.333333333 799.833333333 723.5 828.333333333 702.5 843 c 128
 681.5 857.666666667 649.5 865 606.5 865 c 128
 563.5 865 518.333333333 845.833333333 471 807.5 c 128
 423.666666667 769.166666667 386.666666667 720 360 660 c 1
 360 0 l 1
 175 0 l 1
 175 615 l 2
EndSplineSet
Validated: 524289
EndChar

StartChar: uni0562
Encoding: 1378 1378 54
Width: 1185
Flags: HW
LayerCount: 2
Fore
SplineSet
216 0 m 5
 216 148 l 5
 1048 148 l 5
 1048 0 l 5
 216 0 l 5
663 865 m 128
 513.304773007 865 380.412229925 704.910528858 340 580 c 1
 340 -490 l 1
 155 -490 l 1
 155 615 l 2
 155 783 138.333333333 918 105 1020 c 1
 285 1020 l 1
 300.333333333 979.333333333 313.666666667 914.333333333 325 825 c 1
 444.333333333 968.333333333 576 1040 720 1040 c 0
 895.945884663 1040 1050 947.825301508 1050 625 c 2
 1050 400 l 1
 865 400 l 1
 865 550 l 2
 865 812.887922166 787.38814551 865 663 865 c 128
EndSplineSet
Validated: 524293
EndChar

StartChar: uni0563
Encoding: 1379 1379 55
Width: 1190
Flags: HW
LayerCount: 2
Fore
SplineSet
808 308 m 5
 1156 308 l 5
 1156 188 l 5
 808 188 l 5
 808 308 l 5
980 -150 m 0
 980 -294.666666667 988.333333333 -408 1005 -490 c 1
 795 -490 l 1
 795 140 l 1
 701 30 604.333333333 -25 505 -25 c 0
 443.666666667 -25 382.166666667 -8.66666666667 320.5 24 c 128
 258.833333333 56.6666666667 207.5 106.833333333 166.5 174.5 c 128
 125.5 242.166666667 105 321.666666667 105 413 c 128
 105 504.333333333 115 586 135 658 c 128
 155 730 186 794.666666667 228 852 c 0
 319.333333333 977.333333333 451.666666667 1040 625 1040 c 0
 711.666666667 1040 830 1015 980 965 c 1
 980 965 980 965 980 -150 c 0
795 830 m 1
 724.333333333 856.666666667 655.166666667 870 587.5 870 c 128
 519.833333333 870 463.333333333 851 418 813 c 0
 332.666666667 740.333333333 290 631 290 485 c 0
 290 332.333333333 331 230 413 178 c 0
 448.333333333 156 486.5 145 527.5 145 c 128
 568.5 145 613.166666667 163.5 661.5 200.5 c 128
 709.833333333 237.5 754.333333333 292.333333333 795 365 c 1
 795 830 l 1
EndSplineSet
Validated: 524293
EndChar

StartChar: uni0564
Encoding: 1380 1380 56
Width: 1255
Flags: HW
LayerCount: 2
Fore
SplineSet
888 138 m 5
 1236 138 l 5
 1236 18 l 5
 888 18 l 5
 888 138 l 5
325 825 m 1
 444.333333333 968.333333333 576 1040 720 1040 c 0
 826.666666667 1040 908.333333333 1005.16666667 965 935.5 c 128
 1021.66666667 865.833333333 1050 762.333333333 1050 625 c 2
 1050 625 1050 625 1050 -490 c 1
 865 -490 l 1
 865 -490 865 -490 865 550 c 0
 865 707.333333333 835.666666667 803.333333333 777 838 c 0
 747.666666667 856 709.666666667 865 663 865 c 128
 616.333333333 865 571 850.666666667 527 822 c 128
 483 793.333333333 444.5 757.166666667 411.5 713.5 c 128
 378.5 669.833333333 354.666666667 625.333333333 340 580 c 1
 340 0 l 1
 155 0 l 1
 155 0 155 0 155 615 c 0
 155 783 138.333333333 918 105 1020 c 1
 285 1020 l 1
 300.333333333 979.333333333 313.666666667 914.333333333 325 825 c 1
EndSplineSet
Validated: 524293
EndChar

StartChar: uni0565
Encoding: 1381 1381 57
Width: 1185
Flags: HW
LayerCount: 2
Fore
SplineSet
210 1104 m 5
 1020 1104 l 5
 1020 964 l 5
 210 964 l 5
 210 1104 l 5
1025 450 m 2
 1025 267.333333333 1046.66666667 117.333333333 1090 0 c 1
 920 0 l 1
 892.666666667 68.6666666667 874.333333333 135.333333333 865 200 c 1
 741 50 611 -25 475 -25 c 0
 261.666666667 -25 155 118.333333333 155 405 c 2
 155 405 155 405 155 648 c 128
 155 810 148.333007812 1514 135 1600 c 1
 340 1600 l 1
 340 465 l 2
 340 351.666666667 352.5 269.166666667 377.5 217.5 c 128
 402.5 165.833333333 446.666666667 140 510 140 c 0
 549.333333333 140 591.166666667 154.833333333 635.5 184.5 c 128
 679.833333333 214.166666667 720.666666667 250.666666667 758 294 c 128
 795.333333333 337.333333333 822.666666667 379.333333333 840 420 c 1
 840 500 l 2
 840 612.666992188 833.333007812 699.333007812 820 790 c 1
 1025 790 l 1
 1025 450 l 2
EndSplineSet
Validated: 524293
EndChar

StartChar: uni0566
Encoding: 1382 1382 58
Width: 1190
Flags: HW
LayerCount: 2
Fore
SplineSet
808 -370 m 5
 1156 -370 l 5
 1156 -490 l 5
 808 -490 l 5
 808 -370 l 5
980 -150 m 0
 980 -294.666666667 988.333333333 -408 1005 -490 c 1
 795 -490 l 1
 795 140 l 1
 701 30 604.333333333 -25 505 -25 c 0
 443.666666667 -25 382.166666667 -8.66666666667 320.5 24 c 128
 258.833333333 56.6666666667 207.5 106.833333333 166.5 174.5 c 128
 125.5 242.166666667 105 321.666666667 105 413 c 128
 105 504.333333333 115 586 135 658 c 128
 155 730 186 794.666666667 228 852 c 0
 319.333333333 977.333333333 451.666666667 1040 625 1040 c 0
 711.666666667 1040 830 1015 980 965 c 1
 980 965 980 965 980 -150 c 0
795 830 m 1
 724.333333333 856.666666667 655.166666667 870 587.5 870 c 128
 519.833333333 870 463.333333333 851 418 813 c 0
 332.666666667 740.333333333 290 631 290 485 c 0
 290 332.333333333 331 230 413 178 c 0
 448.333333333 156 486.5 145 527.5 145 c 128
 568.5 145 613.166666667 163.5 661.5 200.5 c 128
 709.833333333 237.5 754.333333333 292.333333333 795 365 c 1
 795 830 l 1
EndSplineSet
Validated: 524293
EndChar

StartChar: uni0567
Encoding: 1383 1383 59
Width: 1123
Flags: HW
LayerCount: 2
Fore
SplineSet
216 0 m 1
 216 148 l 1
 908 148 l 1
 908 0 l 1
 216 0 l 1
210 1104 m 1
 1020 1104 l 1
 1020 964 l 1
 210 964 l 1
 210 1104 l 1
375 475 m 2
 375 280.333333333 381.666666667 122 395 0 c 1
 190 0 l 1
 190 1130 l 2
 190 1325.33333333 183.333333333 1482 170 1600 c 1
 375 1600 l 1
 375 475 l 2
EndSplineSet
Validated: 524293
EndChar

StartChar: uni0568
Encoding: 1384 1384 60
Width: 1185
Flags: HW
LayerCount: 2
Fore
SplineSet
216 -490 m 1
 216 -342 l 1
 1048 -342 l 1
 1048 -490 l 1
 216 -490 l 1
663 865 m 128
 513.304773007 865 380.412229925 704.910528858 340 580 c 1
 340 -490 l 1
 155 -490 l 1
 155 615 l 2
 155 783 138.333333333 918 105 1020 c 1
 285 1020 l 1
 300.333333333 979.333333333 313.666666667 914.333333333 325 825 c 1
 444.333333333 968.333333333 576 1040 720 1040 c 0
 895.945884663 1040 1050 947.825301508 1050 625 c 2
 1050 0 l 5
 865 0 l 5
 865 550 l 2
 865 812.887922166 787.38814551 865 663 865 c 128
EndSplineSet
Validated: 524293
EndChar

StartChar: uni056A
Encoding: 1386 1386 61
Width: 1233
Flags: HW
LayerCount: 2
Fore
SplineSet
797.21875 522.5 m 2
 797.21875 261.877929688 668.43359375 148 534.958007812 148 c 0
 407.771484375 148 267.950195312 254.950195312 267.950195312 522.5 c 0
 267.950195312 789.91015625 401.529296875 893 529.043945312 893 c 2
 797.21875 893 l 1
 797.21875 522.5 l 2
972.614257812 523 m 1
 973.796875 893 l 1
 1186.296875 893 l 5
 1189.796875 1063 l 1
 1155.796875 1052 974.796875 1053 974.796875 1053 c 1
 974.796875 1599 l 1
 797.21875 1599 l 1
 797.21875 1053 l 1
 529.043945312 1053 l 2
 319.251953125 1053 76.9501953125 909.749023438 76.9501953125 523 c 0
 76.9501953125 151.84375 323.249023438 -12 543.603515625 -12 c 0
 763.5859375 -12 972.614257812 147.14453125 972.614257812 523 c 1
EndSplineSet
Validated: 524329
EndChar

StartChar: uni056B
Encoding: 1387 1387 62
Width: 1175
Flags: HW
LayerCount: 2
Fore
SplineSet
145 1255 m 0
 145 1427 140 1542 130 1600 c 1
 330 1600 l 1
 330 1600 330 1600 330 830 c 1
 379.333333333 899.333333333 437.5 951.666666667 504.5 987 c 128
 571.5 1022.33333333 640 1040 710 1040 c 0
 816.666666667 1040 898.333333333 1005.16666667 955 935.5 c 128
 1011.66666667 865.833333333 1040 762.333333333 1040 625 c 2
 1040 625 1040 625 1040 0 c 1
 855 0 l 1
 855 0 855 0 855 550 c 0
 855 707.333333333 825.333333333 803.333333333 766 838 c 0
 736.666666667 856 698.833333333 865 652.5 865 c 128
 606.166666667 865 561 850.666666667 517 822 c 128
 473 793.333333333 434.5 757.166666667 401.5 713.5 c 128
 368.5 669.833333333 344.666666667 625.333333333 330 580 c 1
 330 -490 l 1
 145 -490 l 1
 145 -490 145 0 145 1255 c 0
EndSplineSet
Validated: 524289
EndChar

StartChar: uni056C
Encoding: 1388 1388 63
Width: 565
Flags: HW
LayerCount: 2
Fore
SplineSet
190 -490 m 5
 190 -328 l 5
 636 -328 l 5
 636 -490 l 5
 190 -490 l 5
190 545 m 2
 190 759 183.333333333 917.333333333 170 1020 c 1
 375 1020 l 1
 375 -20 l 2
 375 -215.333333333 381.666666667 -372 395 -490 c 1
 190 -490 l 1
 190 545 l 2
EndSplineSet
Validated: 524293
EndChar

StartChar: uni056D
Encoding: 1389 1389 64
Width: 1910
Flags: HW
LayerCount: 2
Fore
SplineSet
1235 140 m 0
 1360.32910156 140 1517.10839844 307.639648438 1565 420 c 1
 1565 700 l 2
 1565 822.666992188 1558.33300781 929.333007812 1545 1020 c 1
 1750 1020 l 1
 1750 450 l 2
 1750 267.333007812 1771.66699219 117.333007812 1815 0 c 1
 1645 0 l 1
 1617.66699219 68.6669921875 1599.33300781 135.333007812 1590 200 c 1
 1466 50 1336 -25 1200 -25 c 0
 986.666992188 -25 880 118.333007812 880 405 c 2
 880 550 l 2
 880 812.887695312 802.387695312 865 678 865 c 0
 528.3046875 865 395.412109375 704.91015625 355 580 c 1
 355 500 l 1
 355 -20 l 2
 355 -215.333007812 361.666992188 -372 375 -490 c 1
 170 -490 l 1
 170 1126 l 2
 170 1340 163.333007812 1498.33300781 150 1601 c 1
 355 1601 l 1
 355 842.565073187 l 1
 470.340498301 974.188357729 597.007164968 1040 735 1040 c 0
 888.240234375 1040 1065 966.076171875 1065 625 c 2
 1065 465 l 2
 1065 207.31640625 1126.56640625 140 1235 140 c 0
EndSplineSet
Validated: 524289
EndChar

StartChar: uni056E
Encoding: 1390 1390 65
Width: 1233
Flags: HW
LayerCount: 2
Fore
SplineSet
425 1320 m 1
 545 1593 l 1
 724 1593 l 1
 604 1320 l 1
 425 1320 l 1
789 732 m 2
 707.21875 893 l 1
 529.043945312 893 l 2
 369.787347827 893 267.950195312 748.489972447 267.950195312 522.5 c 0
 267.950195312 297.637962412 374.637792137 148 534.958007812 148 c 0
 780.66231808 148 921.356931037 471.433355483 789 732 c 2
972 732 m 1
 1104.09337901 368.74320773 873.352881591 -31.9858746471 543.603515625 -12 c 0
 259.87118506 5.19681484563 76.9501953125 214.908661425 76.9501953125 523 c 0
 76.9501953125 842.686565584 256.349042936 1053 529.043945312 1053 c 2
 637.21875 1053 l 1
 425.421875 1320 l 1
 591 1374 l 1
 831.796875 1053 l 1
 1021.59179688 1052.4140625 1169.88013612 1056.55634919 1189.796875 1063 c 1
 1186.296875 893 l 1
 891.796875 893 l 1
 972 732 l 1
EndSplineSet
Validated: 524325
EndChar

StartChar: uni056F
Encoding: 1391 1391 66
Width: 1170
Flags: HW
LayerCount: 2
Fore
SplineSet
1030 -20 m 2
 1030 -274 1035 -430.666666667 1045 -490 c 1
 845 -490 l 1
 845 185 l 1
 796.333333333 115.666666667 738.333333333 63.3333333333 671 28 c 128
 603.666666667 -7.33333333333 535 -25 465 -25 c 0
 358.333333333 -25 276.666666667 9.83333333333 220 79.5 c 128
 163.333333333 149.166666667 135 252.666666667 135 390 c 2
 135 1600 l 1
 320 1600 l 1
 320 465 l 2
 320 307.666666667 349.333333333 211.333333333 408 176 c 0
 438 158.666666667 476.166666667 150 522.5 150 c 128
 568.833333333 150 614 164.333333333 658 193 c 128
 702 221.666666667 740.5 257.833333333 773.5 301.5 c 128
 806.5 345.166666667 830.333333333 389.666666667 845 435 c 1
 845 1020 l 1
 1030 1020 l 1
 1030 -20 l 2
EndSplineSet
Validated: 524289
EndChar

StartChar: uni0570
Encoding: 1392 1392 67
Width: 1175
Flags: HW
LayerCount: 2
Fore
SplineSet
145 1255 m 0
 145 1427 140 1542 130 1600 c 1
 330 1600 l 1
 330 1600 330 1600 330 830 c 1
 379.333333333 899.333333333 437.5 951.666666667 504.5 987 c 128
 571.5 1022.33333333 640 1040 710 1040 c 0
 816.666666667 1040 898.333333333 1005.16666667 955 935.5 c 128
 1011.66666667 865.833333333 1040 762.333333333 1040 625 c 2
 1040 625 1040 625 1040 0 c 1
 855 0 l 1
 855 0 855 0 855 550 c 0
 855 707.333333333 825.333333333 803.333333333 766 838 c 0
 736.666666667 856 698.833333333 865 652.5 865 c 128
 606.166666667 865 561 850.666666667 517 822 c 128
 473 793.333333333 434.5 757.166666667 401.5 713.5 c 128
 368.5 669.833333333 344.666666667 625.333333333 330 580 c 1
 330 0 l 1
 145 0 l 1
 145 0 145 0 145 1255 c 0
EndSplineSet
Validated: 524289
EndChar

StartChar: uni0571
Encoding: 1393 1393 68
Width: 1185
Flags: HW
LayerCount: 2
Fore
SplineSet
510 130 m 0
 635.329101562 130 792.108635539 307.639491072 840 420 c 1
 840 491 l 1
 840 509 l 2
 840 638.61297963 682.110366281 758.157411328 495.394544475 797.231191158 c 1
 407.383870464 699.842042678 340.427191362 578.345816221 340 461 c 2
 340 405 l 2
 340 147.31640625 401.56640625 130 510 130 c 0
588 1298 m 0
 588 1193.53515625 647.836914062 1128 798 1128 c 1
 797.557212196 1117.96347645 l 5
 797.557212196 1117.96347645 797.557212196 1117.96347645 797.557617188 1117.96386719 c 5
 792 992 l 1
 736.014421935 982.002575346 667.244307203 946.540081926 600.395338318 894.750313011 c 1
 702.429561368 881.683467369 881.904083228 822.118428919 933.5 761.5 c 0
 994.5 689.833007812 1025 629 1025 529 c 2
 1025 491 l 1
 1025 450 l 2
 1025 267.333333333 1046.66666667 117.333333333 1090 0 c 1
 920 0 l 1
 892.666666667 68.6666666667 874.333333333 135.333333333 865 200 c 1
 741 50 611 -25 475 -25 c 0
 261.666666667 -25 155 88.3330078125 155 375 c 2
 155 461 l 2
 156.181218816 687.514973203 387.503812899 928.864726884 596.762611155 1046.23673149 c 1
 498.840655828 1086.79532842 428 1153.12305008 428 1288 c 0
 428 1478.18847656 559.749023438 1588 798 1588 c 1
 798 1458 l 1
 647.831054688 1458 588 1402.45898438 588 1298 c 0
EndSplineSet
Validated: 524289
EndChar

StartChar: uni0575
Encoding: 1397 1397 69
Width: 595
Flags: HW
LayerCount: 2
Fore
SplineSet
220 530 m 2
 220 778 215 941.333333333 205 1020 c 1
 405 1020 l 1
 405 25 l 2
 405 -210.333333333 346 -360 228 -424 c 0
 172 -454.666666667 106 -470 30 -470 c 0
 2 -470 -34.1666666667 -464.333333333 -78.5 -453 c 128
 -122.833333333 -441.666666667 -160 -425.666666667 -190 -405 c 1
 -155 -240 l 1
 -133 -256.666666667 -102 -270.833333333 -62 -282.5 c 128
 -22 -294.166666667 12 -300 40 -300 c 0
 93.3333333333 -300 136.666666667 -278.833333333 170 -236.5 c 128
 203.333333333 -194.166666667 220 -123.666666667 220 -25 c 2
 220 530 l 2
EndSplineSet
Validated: 524289
EndChar

StartChar: uni0572
Encoding: 1394 1394 70
Width: 1255
Flags: HW
LayerCount: 2
Fore
SplineSet
900 -370 m 5
 1248 -370 l 5
 1248 -490 l 5
 900 -490 l 5
 900 -370 l 5
325 825 m 1
 444.333333333 968.333333333 576 1040 720 1040 c 0
 826.666666667 1040 908.333333333 1005.16666667 965 935.5 c 128
 1021.66666667 865.833333333 1050 762.333333333 1050 625 c 2
 1050 625 1050 625 1050 -490 c 1
 865 -490 l 1
 865 -490 865 -490 865 550 c 0
 865 707.333333333 835.666666667 803.333333333 777 838 c 0
 747.666666667 856 709.666666667 865 663 865 c 128
 616.333333333 865 571 850.666666667 527 822 c 128
 483 793.333333333 444.5 757.166666667 411.5 713.5 c 128
 378.5 669.833333333 354.666666667 625.333333333 340 580 c 1
 340 0 l 1
 155 0 l 1
 155 0 155 0 155 615 c 0
 155 783 138.333333333 918 105 1020 c 1
 285 1020 l 1
 300.333333333 979.333333333 313.666666667 914.333333333 325 825 c 1
EndSplineSet
Validated: 524293
EndChar

StartChar: uni0573
Encoding: 1395 1395 71
Width: 1185
Flags: HW
LayerCount: 2
Fore
SplineSet
510 130 m 0
 635.329101562 130 792.108635539 307.639491072 840 420 c 1
 840 491 l 1
 840 609 l 2
 840 694.876953125 790 864 574 865 c 2
 397.733398438 865 l 1
 360.892578125 737.778320312 340.247292159 585.139291504 340 461 c 2
 340 405 l 2
 340 147.31640625 401.56640625 130 510 130 c 0
1025 491 m 1
 1025 450 l 2
 1025 267.333333333 1046.66666667 117.333333333 1090 0 c 1
 920 0 l 1
 892.666666667 68.6666666667 874.333333333 135.333333333 865 200 c 1
 741 50 611 -25 475 -25 c 0
 261.666666667 -25 155 88.3330078125 155 375 c 2
 155 461 l 2
 155.392615316 585.49846095 176.3671875 737.083984375 213.430664062 865 c 1
 104 865 l 1
 107 1017 l 1
 265.719726562 1017 l 1
 396.908203125 1344.96972656 629.255002338 1596.25650649 878 1608 c 1
 928 1482 l 1
 729.778771335 1463.87000957 556.713867188 1276.08105469 450.599609375 1017 c 1
 577 1017 l 1
 672.178710938 1011.43164062 836 994 926 906 c 0
 1014.02441406 819.931640625 1025 729 1025 629 c 2
 1025 491 l 1
EndSplineSet
Validated: 524289
EndChar

StartChar: uni0574
Encoding: 1396 1396 72
Width: 1185
Flags: HW
LayerCount: 2
Fore
SplineSet
905 1438 m 5
 905 1600 l 5
 1351 1600 l 5
 1351 1438 l 5
 905 1438 l 5
1025 450 m 2
 1025 267.333333333 1046.66666667 117.333333333 1090 0 c 1
 920 0 l 1
 892.666666667 68.6666666667 874.333333333 135.333333333 865 200 c 1
 741 50 611 -25 475 -25 c 0
 261.666666667 -25 155 118.333333333 155 405 c 2
 155 405 155 405 155 648 c 128
 155 810 148.333333333 934 135 1020 c 1
 340 1020 l 1
 340 465 l 2
 340 351.666666667 352.5 269.166666667 377.5 217.5 c 128
 402.5 165.833333333 446.666666667 140 510 140 c 0
 549.333333333 140 591.166666667 154.833333333 635.5 184.5 c 128
 679.833333333 214.166666667 720.666666667 250.666666667 758 294 c 128
 795.333333333 337.333333333 822.666666667 379.333333333 840 420 c 1
 840 1280 l 2
 840 1402.66699219 833.333007812 1509.33300781 820 1600 c 1
 1025 1600 l 1
 1025 450 l 2
EndSplineSet
Validated: 524293
EndChar

StartChar: uni0576
Encoding: 1398 1398 73
Width: 1241
Flags: HW
LayerCount: 2
Fore
SplineSet
-80 1438 m 1
 -80 1600 l 1
 366 1600 l 1
 366 1438 l 1
 -80 1438 l 1
1081 450 m 2
 1081 267.333007812 1102.66699219 117.333007812 1146 0 c 1
 976 0 l 1
 948.666992188 68.6669921875 930.333007812 135.333007812 921 200 c 1
 797 50 667 -25 531 -25 c 0
 317.666992188 -25 211 118.333007812 211 405 c 2
 211 405 211 985 211 1228 c 128
 211 1390 204.333007812 1514 191 1600 c 1
 396 1600 l 1
 396 465 l 2
 396 351.666992188 408.5 269.166992188 433.5 217.5 c 128
 458.5 165.833007812 502.666992188 140 566 140 c 0
 605.333007812 140 647.166992188 154.833007812 691.5 184.5 c 128
 735.833007812 214.166992188 776.666992188 250.666992188 814 294 c 128
 851.333007812 337.333007812 878.666992188 379.333007812 896 420 c 1
 896 700 l 2
 896 822.666992188 889.333007812 929.333007812 876 1020 c 1
 1081 1020 l 1
 1081 450 l 2
EndSplineSet
Validated: 524293
EndChar

StartChar: uni0577
Encoding: 1399 1399 74
Width: 1117
Flags: HW
LayerCount: 2
Fore
SplineSet
376.494140625 -490 m 2
 221.240418281 -490 106.494140625 -393.103143313 106.494140625 -262 c 0
 106.494140625 -175.275794918 123.793252994 -113.62804902 161.494140625 -66 c 1
 294 89 810 265.798278961 810 605 c 0
 810 760.194732835 705.760192444 845 515 845 c 0
 403.417100056 845 258.945801297 767.529883274 170 660 c 1
 125 830 l 1
 212.290542794 949.504827791 387.671635156 1025 578 1025 c 0
 812.492031726 1025 1010 839.379085372 1010 619 c 0
 1010 372.029718279 938.51983759 292.594505537 390 -70 c 1
 326.706101834 -111.932207535 291.494140625 -163.406530446 291.494140625 -214 c 0
 291.494140625 -288.008283493 349.748334642 -335 441.494140625 -335 c 2
 1000.49414062 -335 l 1
 1000.49414062 -490 l 1
 376.494140625 -490 l 2
EndSplineSet
Validated: 524289
EndChar

StartChar: uni0579
Encoding: 1401 1401 75
Width: 1117
Flags: HW
LayerCount: 2
Fore
SplineSet
106.494140625 -206.360351562 m 0
 106.494140625 39.5966796875 307.358398438 139.1171875 684.49609375 419.299804688 c 1
 930 419.299804688 l 1
 390 2.919921875 l 2
 338.357177072 -36.9005087892 291.494140625 -78.8935546875 291.494140625 -164.040039062 c 0
 291.494140625 -244.708984375 349.748046875 -285.9296875 441.494140625 -285.9296875 c 2
 1000.49414062 -285.9296875 l 1
 1000.49414062 -454.879882812 l 1
 376.494140625 -454.879882812 l 2
 221.240234375 -454.879882812 106.494140625 -349.262695312 106.494140625 -206.360351562 c 0
364 785.799804688 m 0
 364 665.435546875 415.817382812 584.299804688 604 584.299804688 c 2
 789 584.299804688 l 2
 838.34765625 584.299804688 885.34765625 584.678710938 930 585.435546875 c 1
 930 419.299804688 l 1
 569 419.299804688 l 2
 388.876953125 419.299804688 194 478.426757812 194 734.299804688 c 0
 194 840.966796875 224 960.966796875 284 1034.29980469 c 5
 454 989.299804688 l 5
 394 941.966796875 364 854.1328125 364 785.799804688 c 0
EndSplineSet
Validated: 524293
EndChar

StartChar: uni057A
Encoding: 1402 1402 76
Width: 1685
Flags: HW
LayerCount: 2
Fore
SplineSet
1520 -150 m 2
 1520 -294.666666667 1528.33333333 -408 1545 -490 c 1
 1335 -490 l 1
 1335 129 l 1
 1279 69 1225.83333333 28.3333333333 1175.5 7 c 128
 1125.16666667 -14.3333333333 1070.33333333 -25 1011 -25 c 128
 951.666666667 -25 901.666666667 -6.83333333333 861 29.5 c 128
 820.333333333 65.8333333333 791.666666667 106 775 150 c 1
 666.333333333 33.3333333333 557.166666667 -25 447.5 -25 c 128
 337.833333333 -25 263.333333333 8.33333333333 224 75 c 128
 184.666666667 141.666666667 165 236.666666667 165 360 c 2
 165 700 l 2
 165 843.333333333 158.333333333 950 145 1020 c 1
 350 1020 l 1
 350 470 l 2
 350 306.666666667 369.333333333 208.666666667 408 176 c 0
 428.666666667 158.666666667 460.666666667 150 504 150 c 128
 547.333333333 150 592 169.333333333 638 208 c 128
 684 246.666666667 721.333333333 297.333333333 750 360 c 1
 750 1020 l 1
 935 1020 l 1
 935 450 l 2
 935 294 954 202 992 174 c 0
 1013.33333333 158 1045.66666667 150 1089 150 c 128
 1132.33333333 150 1177.5 170 1224.5 210 c 128
 1271.5 250 1308.33333333 300 1335 360 c 1
 1335 1020 l 1
 1520 1020 l 1
 1520 -150 l 2
EndSplineSet
Validated: 524289
EndChar

StartChar: uni057B
Encoding: 1403 1403 77
Width: 1117
Flags: HW
LayerCount: 2
Fore
SplineSet
1010 619 m 0
 1010 109.001839836 291.494140625 25.3527899191 291.494140625 -214 c 0
 291.494140625 -288.008283493 349.748334642 -335 441.494140625 -335 c 2
 1000.49414062 -335 l 1
 1000.49414062 -490 l 1
 376.494140625 -490 l 2
 221.240418281 -490 106.494140625 -393.103143313 106.494140625 -262 c 0
 106.494140625 -106.616869222 209.398497263 -8.4462865067 336.494153661 78.4734147871 c 1
 147.956332335 285.409513468 110.142578125 373.059570312 109.142578125 655.5 c 5
 109.142578125 655.5 109.142578125 639.608398438 109.142578125 655.5 c 1
 109.142578125 945.096679688 387.671635156 1025 578 1025 c 0
 812.492031726 1025 1010 839.379085372 1010 619 c 0
515 845 m 0
 388.922329656 845 284 772.095703125 284 622 c 0
 284 383.641601562 366.391407008 250.791657265 474.033794226 166.676598825 c 5
 644.493620283 274.018677277 810 388.876768514 810 605 c 0
 810 760.194732835 705.760192444 845 515 845 c 0
EndSplineSet
Validated: 524293
EndChar

StartChar: uni057C
Encoding: 1404 1404 78
Width: 1325
Flags: HW
LayerCount: 2
Fore
SplineSet
940 150 m 5
 1288 150 l 5
 1288 0 l 5
 940 0 l 5
 940 150 l 5
325 825 m 1
 444.333333333 968.333333333 576 1040 720 1040 c 0
 826.666666667 1040 908.333333333 1005.16666667 965 935.5 c 128
 1021.66666667 865.833333333 1050 762.333333333 1050 625 c 2
 1050 625 1050 625 1050 0 c 1
 865 0 l 1
 865 0 865 0 865 550 c 0
 865 707.333333333 835.666666667 803.333333333 777 838 c 0
 747.666666667 856 709.666666667 865 663 865 c 128
 616.333333333 865 571 850.666666667 527 822 c 128
 483 793.333333333 444.5 757.166666667 411.5 713.5 c 128
 378.5 669.833333333 354.666666667 625.333333333 340 580 c 1
 340 0 l 1
 155 0 l 1
 155 0 155 0 155 615 c 0
 155 783 138.333333333 918 105 1020 c 1
 285 1020 l 1
 300.333333333 979.333333333 313.666666667 914.333333333 325 825 c 1
EndSplineSet
Validated: 524293
EndChar

StartChar: uni057E
Encoding: 1406 1406 79
Width: 1174
Flags: HW
LayerCount: 2
Fore
SplineSet
885 -490 m 1
 885 -328 l 1
 1331 -328 l 1
 1331 -490 l 1
 885 -490 l 1
1030 -20 m 2
 1030 -274 1035 -430.666666667 1045 -490 c 1
 845 -490 l 1
 845 185 l 1
 796.333333333 115.666666667 738.333333333 63.3333333333 671 28 c 128
 603.666666667 -7.33333333333 535 -25 465 -25 c 0
 358.333333333 -25 276.666666667 9.83333333333 220 79.5 c 128
 163.333333333 149.166666667 135 252.666666667 135 390 c 2
 135 1020 l 1
 320 1020 l 1
 320 465 l 2
 320 307.666666667 349.333333333 211.333333333 408 176 c 0
 438 158.666666667 476.166666667 150 522.5 150 c 128
 568.833333333 150 614 164.333333333 658 193 c 128
 702 221.666666667 740.5 257.833333333 773.5 301.5 c 128
 806.5 345.166666667 830.333333333 389.666666667 845 435 c 1
 845 1600 l 1
 1030 1600 l 1
 1030 -20 l 2
EndSplineSet
Validated: 524293
EndChar

StartChar: uni057F
Encoding: 1407 1407 80
Width: 1846
Flags: HW
LayerCount: 2
Fore
SplineSet
510 140 m 0
 635.329289385 140 792.108635539 307.639491072 840 420 c 1
 840 700 l 2
 840 822.666666667 833.333333333 929.333333333 820 1020 c 1
 1025 1020 l 1
 1025 450 l 2
 1025 267.333333333 1046.66666667 117.333333333 1090 0 c 1
 920 0 l 1
 892.666666667 68.6666666667 874.333333333 135.333333333 865 200 c 1
 741 50 611 -25 475 -25 c 0
 261.666666667 -25 155 118.333333333 155 405 c 2
 155 648 l 130
 155 810 148.333333333 934 135 1020 c 1
 340 1020 l 1
 340 465 l 2
 340 207.315970607 401.566464352 140 510 140 c 0
1012 594 m 1
 1012 847.849609375 l 1
 1125.99804688 975.701171875 1250.99902344 1039.62792969 1387 1039.62792969 c 0
 1540.24023438 1039.62792969 1717 965.704101562 1717 624.627929688 c 2
 1717 -0.3720703125 l 1
 1532 -0.3720703125 l 1
 1532 549.627929688 l 2
 1532 812.515625 1454.38769531 864.627929688 1330 864.627929688 c 0
 1185.98925781 864.627929688 1057.52929688 716.465820312 1012 594 c 1
EndSplineSet
Validated: 524293
EndChar

StartChar: uni0580
Encoding: 1408 1408 81
Width: 1185
Flags: HW
LayerCount: 2
Fore
SplineSet
663 865 m 128
 513.304773007 865 380.412229925 704.910528858 340 580 c 1
 340 -490 l 5
 155 -490 l 5
 155 615 l 2
 154.178917144 782.993552326 138.333333333 918 105 1020 c 1
 285 1020 l 1
 300.333333333 979.333333333 313.666666667 914.333333333 325 825 c 1
 444.333333333 968.333333333 576 1040 720 1040 c 0
 873.240442778 1040 1050 966.076479692 1050 625 c 2
 1050 0 l 1
 865 0 l 1
 865 550 l 2
 865 812.887922166 787.38814551 865 663 865 c 128
EndSplineSet
Validated: 524289
EndChar

StartChar: uni0582
Encoding: 1410 1410 82
Width: 747
Flags: HW
LayerCount: 2
Fore
SplineSet
335 150 m 1
 683 150 l 1
 683 0 l 1
 335 0 l 1
 335 150 l 1
175 1020 m 1
 375 1020 l 1
 375 1020 375 1020 375 600 c 128
 375 320 381.666666667 120 395 0 c 1
 190 0 l 1
 190 0 190 0 190 451 c 128
 190 751.666666667 185 941.333333333 175 1020 c 1
EndSplineSet
Validated: 524293
EndChar

StartChar: uni0583
Encoding: 1411 1411 83
Width: 1862
Flags: HW
LayerCount: 2
Fore
SplineSet
832 1255 m 0
 832 1427 827 1542 817 1600 c 1
 1017 1600 l 1
 1017 1600 1017 1600 1017 830 c 1
 1066.33300781 899.333007812 1124.5 951.666992188 1191.5 987 c 128
 1258.5 1022.33300781 1327 1040 1397 1040 c 0
 1503.66699219 1040 1585.33300781 1005.16699219 1642 935.5 c 128
 1698.66699219 865.833007812 1727 762.333007812 1727 625 c 2
 1727 625 1727 625 1727 0 c 1
 1542 0 l 1
 1542 0 1542 0 1542 550 c 0
 1542 707.333007812 1512.33300781 803.333007812 1453 838 c 0
 1423.66699219 856 1385.83300781 865 1339.5 865 c 128
 1293.16699219 865 1248 850.666992188 1204 822 c 128
 1160 793.333007812 1121.5 757.166992188 1088.5 713.5 c 128
 1055.5 669.833007812 1031.66699219 625.333007812 1017 580 c 1
 1017 -490 l 1
 832 -490 l 1
 832 -490 832 0 832 1255 c 0
841 410.68359375 m 1
 841 165 l 1
 725.466796875 36.6552734375 604.80078125 -27.5166015625 479 -27.5166015625 c 0
 265.666992188 -27.5166015625 159 115.81640625 159 402.483398438 c 2
 159 645.483398438 l 2
 159 807.483398438 152.333007812 931.483398438 139 1017.48339844 c 1
 344 1017.48339844 l 1
 344 462.483398438 l 2
 344 204.799804688 405.56640625 137.483398438 514 137.483398438 c 0
 636.825195312 137.483398438 789.85546875 298.490234375 841 410.68359375 c 1
EndSplineSet
Validated: 524293
EndChar

StartChar: uni0584
Encoding: 1412 1412 84
Width: 1170
Flags: HW
LayerCount: 2
Fore
SplineSet
72 -180 m 5
 906 -180 l 5
 906 -306 l 5
 72 -306 l 5
 72 -180 l 5
340 -150 m 2
 340 -294.666666667 348.333333333 -408 365 -490 c 1
 155 -490 l 1
 155 -490 155 -490 155 91 c 128
 155 478.333333333 152.333333333 715.833333333 147 803.5 c 128
 141.666666667 891.166666667 127.666666667 963.333333333 105 1020 c 1
 285 1020 l 1
 303 979.333333333 316.333333333 916 325 830 c 1
 372.333333333 892 427.333333333 942.5 490 981.5 c 128
 552.666666667 1020.5 621.5 1040 696.5 1040 c 128
 771.5 1040 837.5 1018.33333333 894.5 975 c 128
 951.5 931.666666667 995.833333333 872 1027.5 796 c 128
 1059.16666667 720 1075 629 1075 523 c 128
 1075 417 1054.5 322.166666667 1013.5 238.5 c 128
 972.5 154.833333333 917.666666667 90 849 44 c 128
 780.333333333 -2 704 -25 620 -25 c 0
 566.666666667 -25 518.5 -15 475.5 5 c 128
 432.5 25 387.333333333 51.6666666667 340 85 c 1
 340 -150 l 2
340 575 m 1
 340 260 l 1
 429.333333333 198 490.666666667 162.5 524 153.5 c 128
 557.333333333 144.5 593.5 140 632.5 140 c 128
 671.5 140 711.5 154.666666667 752.5 184 c 128
 793.5 213.333333333 826.666666667 255.333333333 852 310 c 128
 877.333333333 364.666666667 890 438.666666667 890 532 c 128
 890 625.333333333 869.666666667 705 829 771 c 128
 788.333333333 837 735.666666667 870 671 870 c 128
 606.333333333 870 544.333333333 845 485 795 c 128
 425.666666667 745 377.333333333 671.666666667 340 575 c 1
EndSplineSet
Validated: 524293
EndChar

StartChar: uni0585
Encoding: 1413 1413 85
Width: 1140
Flags: HW
LayerCount: 2
Fore
SplineSet
95 505 m 256
 95 619.666666667 117.166666667 716.833333333 161.5 796.5 c 128
 205.833333333 876.166666667 264.833333333 936.666666667 338.5 978 c 128
 412.166666667 1019.33333333 493.833333333 1040 583.5 1040 c 128
 673.166666667 1040 752.833333333 1019.33333333 822.5 978 c 128
 892.166666667 936.666666667 946.666666667 876.166666667 986 796.5 c 128
 1025.33333333 716.833333333 1045 619.666666667 1045 505 c 256
 1045 390.333333333 1022.83333333 293.666666667 978.5 215 c 128
 934.166666667 136.333333333 875.333333333 76.6666666667 802 36 c 128
 728.666666667 -4.66666666667 647.166666667 -25 557.5 -25 c 128
 467.833333333 -25 388 -4.66666666667 318 36 c 128
 248 76.6666666667 193.333333333 136.333333333 154 215 c 128
 114.666666667 293.666666667 95 390.333333333 95 505 c 256
364.5 780.5 m 128
 308.166666667 714.166666667 280 622.5 280 505.5 c 128
 280 388.5 306.833333333 297.5 360.5 232.5 c 128
 414.166666667 167.5 482.666666667 135 566 135 c 128
 649.333333333 135 719.166666667 167.5 775.5 232.5 c 128
 831.833333333 297.5 860 388.5 860 505.5 c 128
 860 622.5 833.166666667 714.166666667 779.5 780.5 c 128
 725.833333333 846.833333333 657.333333333 880 574 880 c 128
 490.666666667 880 420.833333333 846.833333333 364.5 780.5 c 128
EndSplineSet
Validated: 524289
EndChar

StartChar: uni0586
Encoding: 1414 1414 86
Width: 1175
Flags: HW
LayerCount: 2
Fore
SplineSet
671 162.534481264 m 1
 787.938680464 192.823082933 875 287.183461426 875 391 c 0
 875 529.714358842 835.194335938 620.874023438 671 690.092773438 c 1
 671 162.534481264 l 1
500 1406.90039062 m 1
 410.033203125 1381.16601562 325 1274.12890625 325 1175 c 0
 325 1074.234375 374.059570312 1004.16699219 500 952.384765625 c 1
 500 1406.90039062 l 1
135 1149.5 m 0
 135 1318.86523438 256.752929688 1598 605 1598 c 0
 622 1598 668.668945312 1597.99121094 671 1597.97460938 c 2
 671 895.109375 l 1
 939.720703125 807.223632812 1065 628.64601541 1065 439 c 0
 1065 165.55086765 875.794879103 22.0302844575 671 -15.1319777 c 1
 671 -490 l 1
 500 -490 l 1
 500 -22.7400153383 l 1
 401.772373717 -15.9455795236 224.865688045 10.492524745 95 110 c 1
 140 315 l 1
 248.910624873 220.419720505 368.910624873 166.500483144 500 153.242287915 c 1
 500 749.622070312 l 1
 280.006835938 818.772460938 135 939.051757812 135 1149.5 c 0
EndSplineSet
Validated: 524289
EndChar

StartChar: uni0587
Encoding: 1415 1415 87
Width: 1353
Flags: HW
LayerCount: 2
Fore
SplineSet
920 0 m 1
 920 138 l 1
 1328 138 l 1
 1328 0 l 1
 920 0 l 1
1025 530 m 2
 1025 347.333007812 1046.66666667 117.333333333 1090 0 c 1
 920 0 l 1
 892.666666667 68.6666666667 874.333333333 135.333333333 865 200 c 1
 741 50 611 -25 475 -25 c 0
 261.666666667 -25 155 118.333333333 155 405 c 2
 155 405 155 405 155 648 c 128
 155 810 148.333007812 1514 135 1600 c 1
 340 1600 l 1
 340 465 l 2
 340 351.666666667 352.5 269.166666667 377.5 217.5 c 128
 402.5 165.833333333 446.666666667 140 510 140 c 0
 549.333333333 140 591.166666667 154.833333333 635.5 184.5 c 128
 679.833333333 214.166666667 720.666666667 250.666666667 758 294 c 128
 795.333333333 337.333333333 822.666666667 379.333333333 840 420 c 1
 840 729 l 2
 840 841.666992188 833.333007812 928.333007812 820 1019 c 1
 1025 1019 l 1
 1025 530 l 2
EndSplineSet
Validated: 524293
EndChar

StartChar: uni0588
Encoding: 1416 1416 88
Width: 725
Flags: HW
LayerCount: 2
Fore
SplineSet
290 530 m 2
 290 778 285 941.333333333 275 1020 c 1
 475 1020 l 1
 475 25 l 2
 475 -210.333333333 416 -360 298 -424 c 0
 242 -454.666666667 176 -470 100 -470 c 0
 72 -470 35.8333333333 -464.333333333 -8.5 -453 c 128
 -52.8333333333 -441.666666667 -90 -425.666666667 -120 -405 c 1
 -85 -240 l 1
 -63 -256.666666667 -32 -270.833333333 8 -282.5 c 128
 48 -294.166666667 82 -300 110 -300 c 0
 163.333333333 -300 206.666666667 -278.833333333 240 -236.5 c 128
 273.333333333 -194.166666667 290 -123.666666667 290 -25 c 2
 290 530 l 2
50 -45 m 5
 50 100 l 5
 675 100 l 5
 675 -45 l 5
 50 -45 l 5
EndSplineSet
Validated: 524293
EndChar

StartChar: uni0589
Encoding: 1417 1417 89
Width: 640
Flags: HW
LayerCount: 2
Fore
SplineSet
225 695 m 128
 198.333333333 721.666666667 185 753.5 185 790.5 c 128
 185 827.5 198.333333333 859.166666667 225 885.5 c 128
 251.666666667 911.833333333 283.5 925 320.5 925 c 128
 357.5 925 389.166666667 911.833333333 415.5 885.5 c 128
 441.833333333 859.166666667 455 827.5 455 790.5 c 128
 455 753.5 441.833333333 721.666666667 415.5 695 c 128
 389.166666667 668.333333333 357.5 655 320.5 655 c 128
 283.5 655 251.666666667 668.333333333 225 695 c 128
225 15 m 128
 198.333333333 41.6666666667 185 73.5 185 110.5 c 128
 185 147.5 198.333333333 179.166666667 225 205.5 c 128
 251.666666667 231.833333333 283.5 245 320.5 245 c 128
 357.5 245 389.166666667 231.833333333 415.5 205.5 c 128
 441.833333333 179.166666667 455 147.5 455 110.5 c 128
 455 73.5 441.833333333 41.6666666667 415.5 15 c 128
 389.166666667 -11.6666666667 357.5 -25 320.5 -25 c 128
 283.5 -25 251.666666667 -11.6666666667 225 15 c 128
EndSplineSet
Validated: 524289
EndChar

StartChar: uni058A
Encoding: 1418 1418 90
Width: 747
Flags: HW
LayerCount: 2
Fore
SplineSet
686 596.36328125 m 1
 643.176757812 578.321289062 540 546 449 548 c 0
 207.806292157 553.300960612 84 750.538129675 84 948 c 1
 224 948 l 1
 239.563476562 817.646484375 314.529296875 698 449 698 c 0
 507.435546875 698 646.737304688 719.158203125 686 752.018554688 c 1
 686 596.36328125 l 1
EndSplineSet
Validated: 524321
EndChar

StartChar: uni058F
Encoding: 1423 1423 91
Width: 1416
Flags: HW
LayerCount: 2
Fore
SplineSet
636 536 m 5
 1364 536 l 5
 1364 402 l 5
 636 402 l 5
 636 536 l 5
636 816 m 1
 1364 816 l 1
 1364 682 l 1
 636 682 l 1
 636 816 l 1
621.5 1485 m 0
 818.557574632 1485 1155 1416.02766285 1155 945 c 2
 1155 435 l 2
 1155 199.666992188 1160 54.6669921875 1170 0 c 1
 965 0 l 1
 965 900 l 2
 965 1277.69708834 772.949856624 1325 621 1325 c 0
 488.030009891 1325 333.979588019 1288.66807035 291.268554688 1044 c 1
 95.802734375 1044 l 1
 120.840017434 1248.28644418 233.556654409 1485 621.5 1485 c 0
EndSplineSet
Validated: 524293
EndChar

StartChar: uni058D
Encoding: 1421 1421 92
Width: 2048
Flags: HW
LayerCount: 2
Fore
SplineSet
1314.45308146 -177 m 1
 1226.07710512 -245.873349762 1122.35815239 -282 1013 -282 c 0
 893.080326615 -282 779.786966275 -239.004507711 690.909501169 -159.76477353 c 1
 569.73433822 -151.792894294 461.263448279 -102.684858925 377.93031875 -18.06968125 c 0
 293.271121967 66.5895155328 244.066980211 174.938179436 236.232652506 293.951873599 c 1
 156.127876595 385.145613678 113 498.203147102 113 617 c 2
 113 617.110699817 l 1
 114.330222728 739.491190775 157.506247877 852.312212531 236.238387287 939.138508659 c 1
 251.8321638 1175.82423266 432.06516961 1365.84148135 665.368103927 1391.56423234 c 1
 758.642173129 1486.29631427 881.384386947 1538 1013 1538 c 0
 1136.08226395 1538 1252.27793577 1492.75309931 1342.08804664 1409.85224775 c 1
 1593.44261969 1399.36135642 1795.39378497 1197.41018243 1805.85248631 946.087788073 c 1
 1888.75319005 856.277706654 1934 740.082142839 1934 617 c 0
 1934 493.917736051 1888.75309931 377.722064226 1805.85224775 287.911953363 c 1
 1800.79897631 166.839029786 1751.35968217 54.5424909692 1664.12002475 -34.0189794402 c 0
 1572.99939616 -126.44133129 1450.96355583 -177 1319 -177 c 2
 1314.45308146 -177 l 1
990.276757124 780.047022295 m 1
 1058.93249364 974.313687453 1242.17032018 1104 1448 1104 c 0
 1518.124462 1104 1585.24768868 1088.94762531 1653.83173773 1057.84226009 c 1
 1596.65422023 1195.96741335 1464.63582241 1285 1317 1285 c 0
 1118.92436095 1285 960 1125.1853065 960 926 c 0
 960 875.538864938 970.197921482 826.378480932 990.276757124 780.047022295 c 1
1111.98898471 750.476799603 m 1
 1175.95942191 781.212524933 1246.5471865 797 1320 797 c 0
 1526.12909255 797 1708.13452164 669.204792256 1777.7196574 475.611901848 c 1
 1797.10213584 519.856819667 1807 567.651348876 1807 617 c 0
 1807 815.933715768 1645.73555316 979 1449 979 c 0
 1301.49988863 979 1166.76680214 887.639080839 1111.98898471 750.476799603 c 1
833 924 m 0
 833 1130.70231575 959.724405685 1311.08801509 1154.51709643 1381.66311528 c 1
 1110.23805554 1401.08236748 1062.3967605 1411 1013 1411 c 0
 813.599910993 1411 651 1249.74760208 651 1052 c 0
 651 905.334971711 742.580221589 770.679220422 879.523200397 715.988984712 c 1
 848.787475067 779.959421909 833 850.5471865 833 924 c 0
559.82761945 1228.85495009 m 1
 435.388742417 1165.3063121 361 1044.5143729 361 906 c 0
 361 706.502862044 520.388352893 548 721 548 c 0
 776.78872348 548 831.496508713 560.558388459 880.510472455 584.616259785 c 1
 671.396461805 643.093846667 526 834.783366195 526 1052 c 0
 526 1111.84745998 537.091805292 1169.83678063 559.82761945 1228.85495009 c 1
1439.97163545 -29.7126731789 m 1
 1583.93575622 20.7340525544 1681 158.344753576 1681 312 c 0
 1681 511.221110239 1521.33407734 670 1321 670 c 0
 1281.387746 670 1242.714635 663.607193844 1204.87189494 650.803601117 c 1
 1384.56572538 574.726794382 1500 399.967262133 1500 204 c 0
 1500 120.456806813 1479.63126522 41.1537724759 1439.97163545 -29.7126731789 c 1
241 617 m 0
 241 417.420512469 402.074486123 255 600 255 c 0
 741.125868015 255 869.611125157 338.449763823 929.385731595 468.932416214 c 1
 864.633254435 438.480651908 794.737817047 423 722 423 c 0
 514.078582854 423 334.284017675 549.177810317 263.926210858 744.47105014 c 1
 248.633008091 703.775738234 241 661.335774512 241 617 c 0
1013 -155 m 0
 1212.40283957 -155 1375 6.24967014799 1375 204 c 0
 1375 345.125868015 1291.55023618 473.611125157 1161.06758379 533.385731595 c 1
 1191.51934809 468.633254435 1207 398.737817047 1207 326 c 0
 1207 118.40830895 1081.59146372 -60.6432025172 886.175347501 -132.056051433 c 1
 926.422941656 -147.361444418 968.645715757 -155 1013 -155 c 0
394.400881776 176.208159667 m 1
 453.49252528 47.0676221188 581.562463145 -35 724 -35 c 0
 923.497137956 -35 1082 124.388352893 1082 325 c 0
 1082 368.962921211 1074.0693448 411.71752218 1058.18074653 453.41091336 c 1
 988.682346055 258.560339029 806.549122725 130 600 130 c 0
 529.099827721 130 460.956248372 145.3151892 394.400881776 176.208159667 c 1
EndSplineSet
Validated: 524289
EndChar

StartChar: uni058E
Encoding: 1422 1422 93
Width: 2048
Flags: HW
LayerCount: 2
Fore
SplineSet
1035 -282 m 0
 925.641847608 -282 821.922894875 -245.873349762 733.546918542 -177 c 1
 729 -177 l 2
 467.644034003 -177 252.996892885 27.9739360544 242.147752927 287.911951959 c 1
 159.246901344 377.722062019 114 493.917735397 114 617 c 0
 114 740.082142893 159.246810006 856.277706838 242.147513744 946.08778819 c 1
 252.60621489 1197.41018189 454.557381934 1399.36135793 705.911951959 1409.85224707 c 1
 795.722062019 1492.75309866 911.917735397 1538 1035 1538 c 0
 1166.61561385 1538 1289.3578296 1486.29631338 1382.63189761 1391.56423148 c 1
 1615.93482773 1365.84148374 1796.16783734 1175.82423094 1811.76161222 939.138509679 c 1
 1890.49406023 852.311873865 1933.66915926 739.492721683 1934.99939862 617.110699817 c 1
 1934.99939862 617 l 2
 1934.99939862 498.201681054 1891.87241958 385.145948952 1811.76734667 293.951871845 c 1
 1803.93414288 174.955233289 1754.73578915 66.5968417544 1670.12385281 -18.0150945909 c 0
 1586.74397282 -102.677741963 1478.28287037 -151.7917621 1357.09049858 -159.764773649 c 1
 1268.21303332 -239.004507829 1154.91967327 -282 1035 -282 c 0
394.168262231 1057.84226004 m 1
 462.752311106 1088.94762526 529.875537945 1104 600 1104 c 0
 805.829679739 1104 989.067505831 974.313687851 1057.72324289 780.047022484 c 1
 1077.80207858 826.378481302 1088 875.538864972 1088 926 c 0
 1088 1125.18540495 929.075736956 1285 731 1285 c 0
 583.364177593 1285 451.345779693 1195.96741329 394.168262231 1057.84226004 c 1
270.27944694 475.613945821 m 1
 339.830778368 669.178862078 521.874651092 797 728 797 c 0
 801.452813516 797 872.040578081 781.212524933 936.011015311 750.476799582 c 1
 881.233197796 887.639080884 746.500111376 979 599 979 c 0
 402.264446837 979 241 815.933715768 241 617 c 0
 241 567.652111235 250.897551264 519.858321885 270.27944694 475.613945821 c 1
893.482903572 1381.66311528 m 1
 1088.27559432 1311.08801508 1215 1130.70231575 1215 924 c 0
 1215 850.547186484 1199.21252493 779.959421919 1168.47679958 715.988984689 c 1
 1305.41977846 770.679220485 1397 905.334971704 1397 1052 c 0
 1397 1249.57247794 1234.22350144 1411 1035 1411 c 0
 985.603239501 1411 937.761944465 1401.08236748 893.482903572 1381.66311528 c 1
1522 1052 m 0
 1522 834.817029374 1377.20105339 643.989888889 1167.38853222 584.665851774 c 1
 1216.4298543 560.575371664 1271.17216716 548 1327 548 c 0
 1527.61164711 548 1687 706.502862044 1687 906 c 0
 1687 1044.5143729 1612.61125758 1165.3063121 1488.17238055 1228.85495009 c 1
 1510.90819471 1169.83678063 1522 1111.84745998 1522 1052 c 0
548 204 m 0
 548 399.967262201 663.434274738 574.726794552 843.128105185 650.803601123 c 1
 805.254994065 663.617469482 733.368764267 668.947220063 727 670 c 1
 526.665823903 670 367 511.221208452 367 312 c 0
 367 158.344753786 464.064243578 20.7340530073 608.028364319 -29.7126729588 c 1
 568.368734796 41.1537723356 548 120.456806956 548 204 c 0
1784.07378915 744.471050229 m 1
 1713.71598234 549.177810324 1533.9214172 423 1326 423 c 0
 1253.0721344 423 1183.01565785 438.558470298 1118.11288996 469.168542668 c 1
 1175.26764376 340.552724936 1307.04582571 255 1448 255 c 0
 1645.74760208 255 1807 417.599910993 1807 617 c 0
 1807 661.335774508 1799.36699191 703.775738258 1784.07378915 744.471050229 c 1
1161.8246521 -132.05605142 m 1
 966.408536135 -60.6432022782 841 118.408309193 841 326 c 0
 841 398.737816897 856.480651816 468.633254012 886.932416097 533.38573149 c 1
 756.44976368 473.61112496 673 345.125868008 673 204 c 0
 673 6.07448612264 835.420512469 -155 1035 -155 c 0
 1079.35428422 -155 1121.5770582 -147.361444412 1161.8246521 -132.05605142 c 1
1653.59911814 176.208159619 m 1
 1587.04375236 145.315189347 1518.90017231 130 1448 130 c 0
 1241.45087731 130 1059.3176541 258.560338912 989.819253469 453.410913289 c 1
 973.930655218 411.717522157 966.000000021 368.962921214 966 325 c 0
 966 124.388352893 1124.50286204 -35 1324 -35 c 0
 1466.43753698 -35 1594.50747604 47.0676228857 1653.59911814 176.208159619 c 1
EndSplineSet
Validated: 524289
EndChar

StartChar: uniFB13
Encoding: 64275 64275 94
Width: 2426
Flags: HW
LayerCount: 2
Fore
SplineSet
905 1438 m 5
 905 1600 l 5
 1351 1600 l 5
 1351 1438 l 5
 905 1438 l 5
1025 450 m 2
 1025 267.333007812 1046.66699219 117.333007812 1090 0 c 1
 920 0 l 1
 892.666992188 68.6669921875 874.333007812 135.333007812 865 200 c 1
 741 50 611 -25 475 -25 c 0
 261.666992188 -25 155 118.333007812 155 405 c 2
 155 405 155 405 155 648 c 128
 155 810 148.333007812 934 135 1020 c 1
 340 1020 l 1
 340 465 l 2
 340 351.666992188 352.5 269.166992188 377.5 217.5 c 128
 402.5 165.833007812 446.666992188 140 510 140 c 0
 549.333007812 140 591.166992188 154.833007812 635.5 184.5 c 128
 679.833007812 214.166992188 720.666992188 250.666992188 758 294 c 128
 795.333007812 337.333007812 822.666992188 379.333007812 840 420 c 1
 840 1280 l 2
 840 1402.66699219 833.333007812 1509.33300781 820 1600 c 1
 1025 1600 l 1
 1025 450 l 2
1105 1438 m 1
 1105 1600 l 1
 1551 1600 l 1
 1551 1438 l 1
 1105 1438 l 1
2266 450 m 2
 2266 267.333007812 2287.66699219 117.333007812 2331 0 c 1
 2161 0 l 1
 2133.66699219 68.6669921875 2115.33300781 135.333007812 2106 200 c 1
 1982 50 1852 -25 1716 -25 c 0
 1502.66699219 -25 1396 118.333007812 1396 405 c 2
 1396 405 1396 985 1396 1228 c 128
 1396 1390 1389.33300781 1514 1376 1600 c 1
 1581 1600 l 1
 1581 465 l 2
 1581 351.666992188 1593.5 269.166992188 1618.5 217.5 c 128
 1643.5 165.833007812 1687.66699219 140 1751 140 c 0
 1790.33300781 140 1832.16699219 154.833007812 1876.5 184.5 c 128
 1920.83300781 214.166992188 1961.66699219 250.666992188 1999 294 c 128
 2036.33300781 337.333007812 2063.66699219 379.333007812 2081 420 c 1
 2081 700 l 2
 2081 822.666992188 2074.33300781 929.333007812 2061 1020 c 1
 2266 1020 l 1
 2266 450 l 2
EndSplineSet
Validated: 524293
EndChar

StartChar: uniFB14
Encoding: 64276 64276 95
Width: 2370
Flags: HW
LayerCount: 2
Fore
SplineSet
905 1438 m 5
 905 1600 l 5
 1351 1600 l 5
 1351 1438 l 5
 905 1438 l 5
1025 450 m 2
 1025 267.333007812 1046.66699219 117.333007812 1090 0 c 1
 920 0 l 1
 892.666992188 68.6669921875 874.333007812 135.333007812 865 200 c 1
 741 50 611 -25 475 -25 c 0
 261.666992188 -25 155 118.333007812 155 405 c 2
 155 405 155 405 155 648 c 128
 155 810 148.333007812 934 135 1020 c 1
 340 1020 l 1
 340 465 l 2
 340 351.666992188 352.5 269.166992188 377.5 217.5 c 128
 402.5 165.833007812 446.666992188 140 510 140 c 0
 549.333007812 140 591.166992188 154.833007812 635.5 184.5 c 128
 679.833007812 214.166992188 720.666992188 250.666992188 758 294 c 128
 795.333007812 337.333007812 822.666992188 379.333007812 840 420 c 1
 840 1280 l 2
 840 1402.66699219 833.333007812 1509.33300781 820 1600 c 1
 1025 1600 l 1
 1025 450 l 2
1395 1104 m 5
 2205 1104 l 5
 2205 964 l 5
 1395 964 l 5
 1395 1104 l 5
2210 450 m 2
 2210 267.333007812 2231.66699219 117.333007812 2275 0 c 1
 2105 0 l 1
 2077.66699219 68.6669921875 2059.33300781 135.333007812 2050 200 c 1
 1926 50 1796 -25 1660 -25 c 0
 1446.66699219 -25 1340 118.333007812 1340 405 c 2
 1340 405 1340 405 1340 648 c 128
 1340 810 1333.33300781 1514 1320 1600 c 1
 1525 1600 l 1
 1525 465 l 2
 1525 351.666992188 1537.5 269.166992188 1562.5 217.5 c 128
 1587.5 165.833007812 1631.66699219 140 1695 140 c 0
 1734.33300781 140 1776.16699219 154.833007812 1820.5 184.5 c 128
 1864.83300781 214.166992188 1905.66699219 250.666992188 1943 294 c 128
 1980.33300781 337.333007812 2007.66699219 379.333007812 2025 420 c 1
 2025 500 l 2
 2025 612.666992188 2018.33300781 699.333007812 2005 790 c 1
 2210 790 l 1
 2210 450 l 2
EndSplineSet
Validated: 524293
EndChar

StartChar: uniFB15
Encoding: 64277 64277 96
Width: 2360
Flags: HW
LayerCount: 2
Fore
SplineSet
905 1438 m 5
 905 1600 l 5
 1351 1600 l 5
 1351 1438 l 5
 905 1438 l 5
1025 450 m 2
 1025 267.333007812 1046.66699219 117.333007812 1090 0 c 1
 920 0 l 1
 892.666992188 68.6669921875 874.333007812 135.333007812 865 200 c 1
 741 50 611 -25 475 -25 c 0
 261.666992188 -25 155 118.333007812 155 405 c 2
 155 405 155 405 155 648 c 128
 155 810 148.333007812 934 135 1020 c 1
 340 1020 l 1
 340 465 l 2
 340 351.666992188 352.5 269.166992188 377.5 217.5 c 128
 402.5 165.833007812 446.666992188 140 510 140 c 0
 549.333007812 140 591.166992188 154.833007812 635.5 184.5 c 128
 679.833007812 214.166992188 720.666992188 250.666992188 758 294 c 128
 795.333007812 337.333007812 822.666992188 379.333007812 840 420 c 1
 840 1280 l 2
 840 1402.66699219 833.333007812 1509.33300781 820 1600 c 1
 1025 1600 l 1
 1025 450 l 2
1330 1255 m 0
 1330 1427 1325 1542 1315 1600 c 1
 1515 1600 l 1
 1515 1600 1515 1600 1515 830 c 1
 1564.33300781 899.333007812 1622.5 951.666992188 1689.5 987 c 128
 1756.5 1022.33300781 1825 1040 1895 1040 c 0
 2001.66699219 1040 2083.33300781 1005.16699219 2140 935.5 c 128
 2196.66699219 865.833007812 2225 762.333007812 2225 625 c 2
 2225 625 2225 625 2225 0 c 1
 2040 0 l 1
 2040 0 2040 0 2040 550 c 0
 2040 707.333007812 2010.33300781 803.333007812 1951 838 c 0
 1921.66699219 856 1883.83300781 865 1837.5 865 c 128
 1791.16699219 865 1746 850.666992188 1702 822 c 128
 1658 793.333007812 1619.5 757.166992188 1586.5 713.5 c 128
 1553.5 669.833007812 1529.66699219 625.333007812 1515 580 c 1
 1515 -490 l 1
 1330 -490 l 1
 1330 -490 1330 0 1330 1255 c 0
EndSplineSet
Validated: 524293
EndChar

StartChar: uniFB16
Encoding: 64278 64278 97
Width: 2315
Flags: HW
LayerCount: 2
Fore
SplineSet
885 -490 m 1
 885 -328 l 1
 1331 -328 l 1
 1331 -490 l 1
 885 -490 l 1
1030 -20 m 2
 1030 -274 1035 -430.666992188 1045 -490 c 1
 845 -490 l 1
 845 185 l 1
 796.333007812 115.666992188 738.333007812 63.3330078125 671 28 c 128
 603.666992188 -7.3330078125 535 -25 465 -25 c 0
 358.333007812 -25 276.666992188 9.8330078125 220 79.5 c 128
 163.333007812 149.166992188 135 252.666992188 135 390 c 2
 135 1020 l 1
 320 1020 l 1
 320 465 l 2
 320 307.666992188 349.333007812 211.333007812 408 176 c 0
 438 158.666992188 476.166992188 150 522.5 150 c 128
 568.833007812 150 614 164.333007812 658 193 c 128
 702 221.666992188 740.5 257.833007812 773.5 301.5 c 128
 806.5 345.166992188 830.333007812 389.666992188 845 435 c 1
 845 1600 l 1
 1030 1600 l 1
 1030 -20 l 2
994 1438 m 5
 994 1600 l 5
 1440 1600 l 5
 1440 1438 l 5
 994 1438 l 5
2155 450 m 6
 2155 267.333007812 2176.66699219 117.333007812 2220 0 c 5
 2050 0 l 5
 2022.66699219 68.6669921875 2004.33300781 135.333007812 1995 200 c 5
 1871 50 1741 -25 1605 -25 c 4
 1391.66699219 -25 1285 118.333007812 1285 405 c 6
 1285 405 1285 985 1285 1228 c 132
 1285 1390 1278.33300781 1514 1265 1600 c 5
 1470 1600 l 5
 1470 465 l 6
 1470 351.666992188 1482.5 269.166992188 1507.5 217.5 c 132
 1532.5 165.833007812 1576.66699219 140 1640 140 c 4
 1679.33300781 140 1721.16699219 154.833007812 1765.5 184.5 c 132
 1809.83300781 214.166992188 1850.66699219 250.666992188 1888 294 c 132
 1925.33300781 337.333007812 1952.66699219 379.333007812 1970 420 c 5
 1970 700 l 6
 1970 822.666992188 1963.33300781 929.333007812 1950 1020 c 5
 2155 1020 l 5
 2155 450 l 6
EndSplineSet
Validated: 524293
EndChar

StartChar: uniFB17
Encoding: 64279 64279 98
Width: 3045
Flags: HWO
LayerCount: 2
Fore
SplineSet
905 1438 m 1
 905 1600 l 1
 1351 1600 l 1
 1351 1438 l 1
 905 1438 l 1
1025 450 m 2
 1025 267.333007812 1046.66699219 117.333007812 1090 0 c 1
 920 0 l 1
 892.666992188 68.6669921875 874.333007812 135.333007812 865 200 c 1
 741 50 611 -25 475 -25 c 0
 261.666992188 -25 155 118.333007812 155 405 c 2
 155 405 155 405 155 648 c 128
 155 810 148.333007812 934 135 1020 c 1
 340 1020 l 1
 340 465 l 2
 340 351.666992188 352.5 269.166992188 377.5 217.5 c 128
 402.5 165.833007812 446.666992188 140 510 140 c 0
 549.333007812 140 591.166992188 154.833007812 635.5 184.5 c 128
 679.833007812 214.166992188 720.666992188 250.666992188 758 294 c 128
 795.333007812 337.333007812 822.666992188 379.333007812 840 420 c 1
 840 1280 l 2
 840 1402.66699219 833.333007812 1509.33300781 820 1600 c 1
 1025 1600 l 1
 1025 450 l 2
2370 140 m 4
 2495.32910156 140 2652.10839844 307.639648438 2700 420 c 5
 2700 700 l 6
 2700 822.666992188 2693.33300781 929.333007812 2680 1020 c 5
 2885 1020 l 5
 2885 450 l 6
 2885 267.333007812 2906.66699219 117.333007812 2950 0 c 5
 2780 0 l 5
 2752.66699219 68.6669921875 2734.33300781 135.333007812 2725 200 c 5
 2601 50 2471 -25 2335 -25 c 4
 2121.66699219 -25 2015 118.333007812 2015 405 c 6
 2015 550 l 6
 2015 812.887695312 1937.38769531 865 1813 865 c 4
 1663.3046875 865 1530.41210938 704.91015625 1490 580 c 5
 1490 500 l 5
 1490 -20 l 6
 1490 -215.333007812 1496.66699219 -372 1510 -490 c 5
 1305 -490 l 5
 1305 1126 l 6
 1305 1340 1298.33300781 1498.33300781 1285 1601 c 5
 1490 1601 l 5
 1490 842.565429688 l 5
 1605.34082031 974.188476562 1732.00683594 1040 1870 1040 c 4
 2023.24023438 1040 2200 966.076171875 2200 625 c 6
 2200 465 l 6
 2200 207.31640625 2261.56640625 140 2370 140 c 4
EndSplineSet
Validated: 524293
EndChar

StartChar: hyphen
Encoding: 45 45 99
Width: 860
Flags: HW
LayerCount: 2
Fore
SplineSet
80 555 m 1
 80 705 l 1
 780 705 l 1
 780 555 l 1
 80 555 l 1
EndSplineSet
EndChar

StartChar: exclam
Encoding: 33 33 101
Width: 764
Flags: HW
LayerCount: 2
Fore
SplineSet
450 440 m 1
 275 440 l 1
 271.666666667 585.333333333 269 745.833333333 267 921.5 c 128
 265 1097.16666667 254.333333333 1293.33333333 235 1510 c 1
 490 1510 l 1
 470.666666667 1293.33333333 460 1097.16666667 458 921.5 c 128
 456 745.833333333 453.333333333 585.333333333 450 440 c 1
265 15 m 128
 238.333333333 41.6666666667 225 73.5 225 110.5 c 128
 225 147.5 238.333333333 179.166666667 265 205.5 c 128
 291.666666667 231.833333333 323.5 245 360.5 245 c 128
 397.5 245 429.166666667 231.833333333 455.5 205.5 c 128
 481.833333333 179.166666667 495 147.5 495 110.5 c 128
 495 73.5 481.833333333 41.6666666667 455.5 15 c 128
 429.166666667 -11.6666666667 397.5 -25 360.5 -25 c 128
 323.5 -25 291.666666667 -11.6666666667 265 15 c 128
EndSplineSet
EndChar

StartChar: quotedbl
Encoding: 34 34 102
Width: 1025
Flags: HW
LayerCount: 2
Fore
SplineSet
445 1585 m 1
 425.666666667 1425 412.333333333 1245 405 1045 c 1
 280 1045 l 1
 274.666666667 1234.33333333 261.333333333 1414.33333333 240 1585 c 1
 445 1585 l 1
785 1585 m 1
 765.666666667 1425 752.333333333 1245 745 1045 c 1
 620 1045 l 1
 614.666666667 1234.33333333 601.333333333 1414.33333333 580 1585 c 1
 785 1585 l 1
EndSplineSet
EndChar

StartChar: numbersign
Encoding: 35 35 103
Width: 1200
Flags: HW
LayerCount: 2
Fore
SplineSet
487 1460 m 1
 637 1460 l 1
 277 200 l 1
 127 200 l 1
 487 1460 l 1
25 575 m 1
 25 725 l 1
 1116 725 l 1
 1116 575 l 1
 25 575 l 1
84 960 m 1
 84 1110 l 1
 1175 1110 l 1
 1175 960 l 1
 84 960 l 1
912 1460 m 1
 1062 1460 l 1
 702 200 l 1
 552 200 l 1
 912 1460 l 1
EndSplineSet
EndChar

StartChar: dollar
Encoding: 36 36 104
Width: 1200
Flags: HW
LayerCount: 2
Fore
SplineSet
195 313 m 1
 311.666666667 211.666666667 442 161 586 161 c 0
 694 161 775.333333333 197 830 269 c 0
 857.333333333 304.333333333 871 342.333333333 871 383 c 128
 871 423.666666667 863.333333333 458 848 486 c 0
 816 545.333333333 713.333333333 601 540 653 c 0
 363.333333333 706.333333333 256 779.333333333 218 872 c 0
 199.333333333 916.666666667 190 961.833333333 190 1007.5 c 128
 190 1053.16666667 198.333333333 1097.5 215 1140.5 c 128
 231.666666667 1183.5 257.333333333 1224 292 1262 c 0
 370 1346.66666667 480.333333333 1389 623 1389 c 0
 751.666666667 1389 872.666666667 1361.33333333 986 1306 c 1
 949 1127 l 1
 883.666666667 1163.66666667 826.166666667 1189.66666667 776.5 1205 c 128
 726.833333333 1220.33333333 668.833333333 1228 602.5 1228 c 128
 536.166666667 1228 480 1207.83333333 434 1167.5 c 128
 388 1127.16666667 365 1081.33333333 365 1030 c 0
 365 996.666666667 372 967.333333333 386 942 c 0
 412.666666667 892.666666667 496.833333333 847.166666667 638.5 805.5 c 128
 780.166666667 763.833333333 883.5 713 948.5 653 c 128
 1013.5 593 1046 517.666666667 1046 427 c 128
 1046 336.333333333 1025.16666667 259.833333333 983.5 197.5 c 128
 941.833333333 135.166666667 886.166666667 86.6666666667 816.5 52 c 128
 746.833333333 17.3333333333 668.833333333 0 582.5 0 c 128
 496.166666667 0 414.833333333 11.6666666667 338.5 35 c 128
 262.166666667 58.3333333333 200.333333333 88 153 124 c 1
 195 313 l 1
554 1600 m 1
 684 1600 l 1
 684 777 l 1
 682 685 l 1
 682 -220 l 1
 552 -220 l 1
 552 721 l 1
 554 797 l 1
 554 1600 l 1
EndSplineSet
EndChar

StartChar: percent
Encoding: 37 37 105
Width: 1526
Flags: HW
LayerCount: 2
Fore
SplineSet
1073 1480 m 1
 1239 1480 l 1
 459 -25 l 1
 291 -25 l 1
 1073 1480 l 1
492 881.5 m 128
 514 919.166666667 525 986 525 1082 c 128
 525 1178 514.5 1245 493.5 1283 c 128
 472.5 1321 439.833333333 1340 395.5 1340 c 128
 351.166666667 1340 318.333333333 1321.5 297 1284.5 c 128
 275.666666667 1247.5 265 1181 265 1085 c 128
 265 989 275.333333333 921.666666667 296 883 c 128
 316.666666667 844.333333333 349 825 393 825 c 128
 437 825 470 843.833333333 492 881.5 c 128
610 1387 m 128
 663.333333333 1325 690 1223 690 1081 c 128
 690 939 661.833333333 837.5 605.5 776.5 c 128
 549.166666667 715.5 477.333333333 685 390 685 c 256
 302.666666667 685 232.5 715.333333333 179.5 776 c 128
 126.5 836.666666667 100 937.5 100 1078.5 c 128
 100 1219.5 128.166666667 1321.66666667 184.5 1385 c 128
 240.833333333 1448.33333333 312.5 1480 399.5 1480 c 128
 486.5 1480 556.666666667 1449 610 1387 c 128
1228 171.5 m 128
 1250 209.166666667 1261 276 1261 372 c 128
 1261 468 1250.5 535 1229.5 573 c 128
 1208.5 611 1175.83333333 630 1131.5 630 c 128
 1087.16666667 630 1054.33333333 611.5 1033 574.5 c 128
 1011.66666667 537.5 1001 471 1001 375 c 128
 1001 279 1011.33333333 211.666666667 1032 173 c 128
 1052.66666667 134.333333333 1085 115 1129 115 c 128
 1173 115 1206 133.833333333 1228 171.5 c 128
1346 677 m 128
 1399.33333333 615 1426 513 1426 371 c 128
 1426 229 1397.83333333 127.5 1341.5 66.5 c 128
 1285.16666667 5.5 1213.33333333 -25 1126 -25 c 256
 1038.66666667 -25 968.5 5.33333333333 915.5 66 c 128
 862.5 126.666666667 836 227.5 836 368.5 c 128
 836 509.5 864.166666667 611.666666667 920.5 675 c 128
 976.833333333 738.333333333 1048.5 770 1135.5 770 c 128
 1222.5 770 1292.66666667 739 1346 677 c 128
EndSplineSet
EndChar

StartChar: ampersand
Encoding: 38 38 106
Width: 1222
Flags: HW
LayerCount: 2
Fore
SplineSet
1175 70 m 1
 1103.66666667 6.66666666667 1054.33333333 -25 1027 -25 c 0
 977.666666667 -25 813.666666667 173.333333333 535 570 c 0
 477.666666667 652 419.666666667 728.666666667 361 800 c 128
 302.333333333 871.333333333 253.333333333 939.166666667 214 1003.5 c 128
 174.666666667 1067.83333333 155 1133.5 155 1200.5 c 128
 155 1267.5 172 1322.66666667 206 1366 c 0
 268 1445.33333333 362.666666667 1485 490 1485 c 0
 540.666666667 1485 588.833333333 1473.83333333 634.5 1451.5 c 128
 680.166666667 1429.16666667 717.5 1396.83333333 746.5 1354.5 c 128
 775.5 1312.16666667 790 1259.33333333 790 1196 c 128
 790 1132.66666667 759.333333333 1060.66666667 698 980 c 128
 636.666666667 899.333333333 561.666666667 820 473 742 c 128
 384.333333333 664 321.666666667 598 285 544 c 128
 248.333333333 490 230 439.833333333 230 393.5 c 128
 230 347.166666667 238.666666667 306.333333333 256 271 c 128
 273.333333333 235.666666667 298.833333333 206.666666667 332.5 184 c 128
 366.166666667 161.333333333 406 150 452 150 c 128
 498 150 547.5 163.833333333 600.5 191.5 c 128
 653.5 219.166666667 705.333333333 254.666666667 756 298 c 0
 868.666666667 392.666666667 941.666666667 483.333333333 975 570 c 1
 1080 435 l 1
 1060.66666667 395 1029.33333333 348.833333333 986 296.5 c 128
 942.666666667 244.166666667 891.666666667 193.333333333 833 144 c 0
 697.666666667 31.3333333333 566.666666667 -25 440 -25 c 0
 366 -25 300 -7.16666666667 242 28.5 c 128
 184 64.1666666667 138.333333333 112.166666667 105 172.5 c 128
 71.6666666667 232.833333333 55 300.666666667 55 376 c 128
 55 451.333333333 78.6666666667 523.833333333 126 593.5 c 128
 173.333333333 663.166666667 244.166666667 741.833333333 338.5 829.5 c 128
 432.833333333 917.166666667 505 990.5 555 1049.5 c 128
 605 1108.5 630 1160.33333333 630 1205 c 256
 630 1249.66666667 614.166666667 1285 582.5 1311 c 128
 550.833333333 1337 515.333333333 1350 476 1350 c 128
 436.666666667 1350 400 1336.33333333 366 1309 c 128
 332 1281.66666667 315 1246.33333333 315 1203 c 128
 315 1159.66666667 332.166666667 1112 366.5 1060 c 128
 400.833333333 1008 443.666666667 950.5 495 887.5 c 128
 546.333333333 824.5 618 726.333333333 710 593 c 128
 802 459.666666667 890.666666667 344.166666667 976 246.5 c 128
 1061.33333333 148.833333333 1127.66666667 90 1175 70 c 1
EndSplineSet
EndChar

StartChar: quotesingle
Encoding: 39 39 107
Width: 605
Flags: HW
LayerCount: 2
Fore
SplineSet
405 1585 m 1
 385.666666667 1425 372.333333333 1245 365 1045 c 1
 240 1045 l 1
 234.666666667 1234.33333333 221.333333333 1414.33333333 200 1585 c 1
 405 1585 l 1
EndSplineSet
EndChar

StartChar: parenleft
Encoding: 40 40 108
Width: 795
Flags: HW
LayerCount: 2
Fore
SplineSet
535 -410 m 1
 255 -119.333333333 115 225.666666667 115 625 c 0
 115 915.666666667 184.666666667 1170 324 1388 c 0
 390 1490.66666667 467 1574.66666667 555 1640 c 1
 630 1485 l 1
 512.666666667 1382.33333333 429.166666667 1258 379.5 1112 c 128
 329.833333333 966 305 805 305 629 c 128
 305 453 329.833333333 292.166666667 379.5 146.5 c 128
 429.166666667 0.833333333333 512.666666667 -136.333333333 630 -265 c 1
 535 -410 l 1
EndSplineSet
EndChar

StartChar: parenright
Encoding: 41 41 109
Width: 795
Flags: HW
LayerCount: 2
Fore
SplineSet
185 1485 m 1
 260 1640 l 1
 440.666666667 1506.66666667 569 1306 645 1038 c 0
 681.666666667 908.666666667 700 771 700 625 c 0
 700 225.666666667 560 -119.333333333 280 -410 c 1
 185 -265 l 1
 297.666666667 -136.333333333 380 0.833333333333 432 146.5 c 128
 484 292.166666667 510 450.5 510 621.5 c 128
 510 792.5 484 953.5 432 1104.5 c 128
 380 1255.5 297.666666667 1382.33333333 185 1485 c 1
EndSplineSet
EndChar

StartChar: asterisk
Encoding: 42 42 110
Width: 1028
Flags: HW
LayerCount: 2
Fore
SplineSet
450 1300 m 1
 447.333333333 1364 435.666666667 1464 415 1600 c 1
 560 1600 l 1
 548 1478.66666667 541.333333333 1378.66666667 540 1300 c 1
 606 1342.66666667 687.666666667 1402.66666667 785 1480 c 1
 855 1355 l 1
 759 1311 669 1266 585 1220 c 1
 634.333333333 1194 727.666666667 1154 865 1100 c 1
 790 975 l 1
 711.333333333 1031.66666667 628 1086.66666667 540 1140 c 1
 544.666666667 1044.66666667 554.666666667 944.666666667 570 840 c 1
 430 840 l 1
 442.666666667 977.333333333 449.333333333 1077.33333333 450 1140 c 1
 400.666666667 1109.33333333 319 1049.33333333 205 960 c 1
 135 1085 l 1
 235 1129.66666667 325 1174.66666667 405 1220 c 1
 352.333333333 1247.33333333 259 1287.33333333 125 1340 c 1
 200 1465 l 1
 293.333333333 1399 376.666666667 1344 450 1300 c 1
EndSplineSet
EndChar

StartChar: plus
Encoding: 43 43 111
Width: 1200
Flags: HW
LayerCount: 2
Fore
SplineSet
525 1180 m 1
 675 1180 l 1
 675 285 l 1
 525 285 l 1
 525 1180 l 1
155 660 m 1
 155 810 l 1
 1045 810 l 1
 1045 660 l 1
 155 660 l 1
EndSplineSet
EndChar

StartChar: comma
Encoding: 44 44 112
Width: 650
Flags: HW
LayerCount: 2
Fore
SplineSet
185 50 m 1
 185 150 l 1
 191.666666667 181.333333333 208.666666667 205.833333333 236 223.5 c 128
 263.333333333 241.166666667 294.166666667 250 328.5 250 c 128
 362.833333333 250 394.166666667 235.166666667 422.5 205.5 c 128
 450.833333333 175.833333333 465 133.333333333 465 78 c 0
 465 -44 406.666666667 -160 290 -270 c 1
 190 -230 l 1
 238 -182 272.5 -131.833333333 293.5 -79.5 c 128
 314.5 -27.1666666667 325 16 325 50 c 1
 185 50 l 1
EndSplineSet
EndChar

StartChar: period
Encoding: 46 46 113
Width: 640
Flags: HW
LayerCount: 2
Fore
SplineSet
225 15 m 128
 198.333333333 41.6666666667 185 73.5 185 110.5 c 128
 185 147.5 198.333333333 179.166666667 225 205.5 c 128
 251.666666667 231.833333333 283.5 245 320.5 245 c 128
 357.5 245 389.166666667 231.833333333 415.5 205.5 c 128
 441.833333333 179.166666667 455 147.5 455 110.5 c 128
 455 73.5 441.833333333 41.6666666667 415.5 15 c 128
 389.166666667 -11.6666666667 357.5 -25 320.5 -25 c 128
 283.5 -25 251.666666667 -11.6666666667 225 15 c 128
EndSplineSet
EndChar

StartChar: slash
Encoding: 47 47 114
Width: 1000
Flags: HW
LayerCount: 2
Fore
SplineSet
840 1600 m 1
 990 1600 l 1
 160 -245 l 1
 10 -245 l 1
 840 1600 l 1
EndSplineSet
EndChar

StartChar: zero
Encoding: 48 48 115
Width: 1200
Flags: HW
LayerCount: 2
Fore
SplineSet
600 1315 m 0
 393.333333333 1315 290 1125 290 745 c 0
 290 464.333333333 337.333333333 284 432 204 c 0
 478 164.666666667 534 145 600 145 c 0
 696 145 771.666666667 189.166666667 827 277.5 c 128
 882.333333333 365.833333333 910 511.666666667 910 715 c 0
 910 997.666666667 863.333333333 1178.33333333 770 1257 c 0
 724 1295.66666667 667.333333333 1315 600 1315 c 0
1046 1176 m 0
 1088.66666667 1067.33333333 1110 930.666666667 1110 766 c 128
 1110 601.333333333 1096.66666667 469.833333333 1070 371.5 c 128
 1043.33333333 273.166666667 1006.33333333 195 959 137 c 0
 871 29 748 -25 590 -25 c 0
 380 -25 235 74.6666666667 155 274 c 0
 111.666666667 382.666666667 90 531.166666667 90 719.5 c 128
 90 907.833333333 113.333333333 1058 160 1170 c 0
 248 1380 398 1485 610 1485 c 0
 819.333333333 1485 964.666666667 1382 1046 1176 c 0
EndSplineSet
EndChar

StartChar: one
Encoding: 49 49 116
Width: 1200
Flags: HW
LayerCount: 2
Fore
SplineSet
220 0 m 1
 220 170 l 1
 535 170 l 1
 535 1260 l 1
 235 1088 l 1
 210 1268 l 1
 555 1480 l 1
 725 1480 l 1
 725 170 l 1
 1040 170 l 1
 1040 0 l 1
 220 0 l 1
EndSplineSet
EndChar

StartChar: two
Encoding: 50 50 117
Width: 1200
Flags: HW
LayerCount: 2
Fore
SplineSet
645 165 m 2
 875 165 1020 170 1080 180 c 1
 1080 0 l 1
 120 0 l 1
 120 170 l 1
 242.666666667 258 362.666666667 362 480 482 c 0
 700 708.666666667 810 896.333333333 810 1045 c 0
 810 1161.66666667 760.666666667 1239.66666667 662 1279 c 0
 618.666666667 1296.33333333 569.666666667 1305 515 1305 c 128
 460.333333333 1305 400.333333333 1287.66666667 335 1253 c 128
 269.666666667 1218.33333333 214.666666667 1174 170 1120 c 1
 125 1290 l 1
 181 1366.66666667 269.666666667 1423.33333333 391 1460 c 0
 447.666666667 1476.66666667 510 1485 578 1485 c 128
 646 1485 714.166666667 1467.83333333 782.5 1433.5 c 128
 850.833333333 1399.16666667 905.833333333 1350.66666667 947.5 1288 c 128
 989.166666667 1225.33333333 1010 1155.66666667 1010 1079 c 128
 1010 1002.33333333 995.833333333 929.5 967.5 860.5 c 128
 939.166666667 791.5 901.666666667 723.666666667 855 657 c 128
 808.333333333 590.333333333 757.333333333 526.666666667 702 466 c 0
 608.666666667 362.666666667 504.666666667 262.333333333 390 165 c 1
 645 165 l 2
EndSplineSet
EndChar

StartChar: three
Encoding: 51 51 118
Width: 1200
Flags: HW
LayerCount: 2
Fore
SplineSet
135 355 m 1
 257 218.333333333 400.333333333 150 565 150 c 0
 616.333333333 150 667.333333333 160.166666667 718 180.5 c 128
 768.666666667 200.833333333 810.833333333 231.333333333 844.5 272 c 128
 878.166666667 312.666666667 895 362 895 420 c 128
 895 478 876.833333333 527.5 840.5 568.5 c 128
 804.166666667 609.5 754.666666667 641.666666667 692 665 c 128
 629.333333333 688.333333333 558.666666667 700 480 700 c 2
 410 700 l 1
 410 870 l 1
 480 870 l 2
 546.666666667 870 608 881.833333333 664 905.5 c 128
 720 929.166666667 765 959.666666667 799 997 c 128
 833 1034.33333333 850 1074.66666667 850 1118 c 128
 850 1161.33333333 836.666666667 1197.33333333 810 1226 c 0
 758 1282 689.166666667 1310 603.5 1310 c 128
 517.833333333 1310 445.833333333 1298.66666667 387.5 1276 c 128
 329.166666667 1253.33333333 271.666666667 1213 215 1155 c 1
 180 1325 l 1
 220 1370.33333333 275.833333333 1408.33333333 347.5 1439 c 128
 419.166666667 1469.66666667 496.5 1485 579.5 1485 c 128
 662.5 1485 738.833333333 1471.16666667 808.5 1443.5 c 128
 878.166666667 1415.83333333 934.166666667 1376.16666667 976.5 1324.5 c 128
 1018.83333333 1272.83333333 1040 1214 1040 1148 c 128
 1040 1082 1023.16666667 1025.16666667 989.5 977.5 c 128
 955.833333333 929.833333333 914.333333333 890.833333333 865 860.5 c 128
 815.666666667 830.166666667 767.333333333 810 720 800 c 1
 810 784.666666667 889.333333333 749.333333333 958 694 c 0
 1046 622.666666667 1090 526.333333333 1090 405 c 0
 1090 288.333333333 1035.33333333 187.333333333 926 102 c 0
 818 17.3333333333 691 -25 545 -25 c 0
 456.333333333 -25 374.833333333 -9.66666666667 300.5 21 c 128
 226.166666667 51.6666666667 162.666666667 91.3333333333 110 140 c 1
 135 355 l 1
EndSplineSet
EndChar

StartChar: four
Encoding: 52 52 119
Width: 1200
Flags: HW
LayerCount: 2
Fore
SplineSet
1125 395 m 1
 935 395 l 1
 935 0 l 1
 745 0 l 1
 745 395 l 1
 90 395 l 1
 90 550 l 1
 745 1480 l 1
 935 1480 l 1
 935 550 l 1
 1125 550 l 1
 1125 395 l 1
745 1237 m 1
 263 550 l 1
 745 550 l 1
 745 1237 l 1
EndSplineSet
EndChar

StartChar: five
Encoding: 53 53 120
Width: 1200
Flags: HW
LayerCount: 2
Fore
SplineSet
510 750 m 0
 412 750 307 728.333333333 195 685 c 1
 195 1460 l 1
 1000 1460 l 1
 1000 1270 l 1
 938 1283.33333333 859.666666667 1290 765 1290 c 2
 380 1290 l 1
 380 920 l 1
 431.333333333 926.666666667 495.666666667 930 573 930 c 128
 650.333333333 930 727.833333333 910.666666667 805.5 872 c 128
 883.166666667 833.333333333 945 779.833333333 991 711.5 c 128
 1037 643.166666667 1060 560.666666667 1060 464 c 128
 1060 367.333333333 1036.5 281.666666667 989.5 207 c 128
 942.5 132.333333333 878.333333333 75 797 35 c 128
 715.666666667 -5 629.5 -25 538.5 -25 c 128
 447.5 -25 372.333333333 -17.1666666667 313 -1.5 c 128
 253.666666667 14.1666666667 192.666666667 41.3333333333 130 80 c 1
 160 290 l 1
 227.333333333 236 288.333333333 200 343 182 c 128
 397.666666667 164 460 155 530 155 c 0
 630 155 711.666666667 182.333333333 775 237 c 128
 838.333333333 291.666666667 870 369.333333333 870 470 c 0
 870 537.333333333 851.166666667 591.5 813.5 632.5 c 128
 775.833333333 673.5 729.166666667 703.333333333 673.5 722 c 128
 617.833333333 740.666666667 563.333333333 750 510 750 c 0
EndSplineSet
EndChar

StartChar: six
Encoding: 54 54 121
Width: 1200
Flags: HW
LayerCount: 2
Fore
SplineSet
215 625 m 1
 347 805 497 895 665 895 c 0
 757.666666667 895 837.666666667 876.833333333 905 840.5 c 128
 972.333333333 804.166666667 1024.16666667 754.166666667 1060.5 690.5 c 128
 1096.83333333 626.833333333 1115 548.833333333 1115 456.5 c 128
 1115 364.166666667 1093.33333333 281 1050 207 c 128
 1006.66666667 133 946.5 75.8333333333 869.5 35.5 c 128
 792.5 -4.83333333333 702.666666667 -25 600 -25 c 0
 445.333333333 -25 325 37.8333333333 239 163.5 c 128
 153 289.166666667 110 461.333333333 110 680 c 0
 110 892.666666667 153.333333333 1073 240 1221 c 0
 286 1300.33333333 348.666666667 1364.16666667 428 1412.5 c 128
 507.333333333 1460.83333333 606.333333333 1485 725 1485 c 0
 784.333333333 1485 837.5 1478.83333333 884.5 1466.5 c 128
 931.5 1454.16666667 981 1430.33333333 1033 1395 c 1
 989 1200 l 1
 917 1273.33333333 825.666666667 1310 715 1310 c 0
 543.666666667 1310 424.666666667 1218 358 1034 c 0
 322.666666667 937.333333333 305 807.666666667 305 645 c 0
 305 561 316.666666667 481.166666667 340 405.5 c 128
 363.333333333 329.833333333 399.166666667 268.333333333 447.5 221 c 128
 495.833333333 173.666666667 560.333333333 150 641 150 c 128
 721.666666667 150 788.333333333 177.5 841 232.5 c 128
 893.666666667 287.5 920 357 920 441 c 128
 920 525 896.5 592.5 849.5 643.5 c 128
 802.5 694.5 737.333333333 720 654 720 c 0
 496 720 371.333333333 663.333333333 280 550 c 1
 215 625 l 1
EndSplineSet
EndChar

StartChar: seven
Encoding: 55 55 122
Width: 1200
Flags: HW
LayerCount: 2
Fore
SplineSet
1090 1300 m 1
 804 908 594 474.666666667 460 0 c 1
 275 0 l 1
 390.333333333 395.333333333 529 732 691 1010 c 0
 745.666666667 1104 805.333333333 1199 870 1295 c 1
 480 1295 l 2
 290 1295 163.333333333 1288.33333333 100 1275 c 1
 100 1460 l 1
 1090 1460 l 1
 1090 1300 l 1
EndSplineSet
EndChar

StartChar: eight
Encoding: 56 56 123
Width: 1200
Flags: HW
LayerCount: 2
Fore
SplineSet
90 405 m 0
 90 570.333333333 176.666666667 700.333333333 350 795 c 1
 274 837.666666667 218.666666667 890.333333333 184 953 c 0
 161.333333333 993.666666667 150 1049.66666667 150 1121 c 128
 150 1192.33333333 172.5 1256.16666667 217.5 1312.5 c 128
 262.5 1368.83333333 320 1411.66666667 390 1441 c 128
 460 1470.33333333 533.333333333 1485 610 1485 c 256
 686.666666667 1485 758.5 1470.33333333 825.5 1441 c 128
 892.5 1411.66666667 946.666666667 1368.83333333 988 1312.5 c 128
 1029.33333333 1256.16666667 1050 1192.33333333 1050 1121 c 128
 1050 1049.66666667 1039.16666667 994.166666667 1017.5 954.5 c 128
 995.833333333 914.833333333 969.833333333 882.5 939.5 857.5 c 128
 909.166666667 832.5 881 811.666666667 855 795 c 1
 948.333333333 747.666666667 1019.66666667 677.666666667 1069 585 c 0
 1096.33333333 533.666666667 1110 468.333333333 1110 389 c 128
 1110 309.666666667 1085.33333333 237.833333333 1036 173.5 c 128
 986.666666667 109.166666667 923.166666667 60 845.5 26 c 128
 767.833333333 -8 686.166666667 -25 600.5 -25 c 128
 514.833333333 -25 433 -8 355 26 c 128
 277 60 213.333333333 109.166666667 164 173.5 c 128
 114.666666667 237.833333333 90 315 90 405 c 0
783.5 926.5 m 128
 834.5 967.5 860 1025.83333333 860 1101.5 c 128
 860 1177.16666667 834.5 1233.33333333 783.5 1270 c 128
 732.5 1306.66666667 671.333333333 1325 600 1325 c 256
 528.666666667 1325 467.5 1306.66666667 416.5 1270 c 128
 365.5 1233.33333333 340 1177.16666667 340 1101.5 c 128
 340 1025.83333333 365.5 967.5 416.5 926.5 c 128
 467.5 885.5 528.666666667 865 600 865 c 256
 671.333333333 865 732.5 885.5 783.5 926.5 c 128
822 219.5 m 128
 880.666666667 269.166666667 910 336.666666667 910 422 c 128
 910 507.333333333 880.666666667 576.666666667 822 630 c 128
 763.333333333 683.333333333 689.166666667 710 599.5 710 c 128
 509.833333333 710 435.833333333 683.333333333 377.5 630 c 128
 319.166666667 576.666666667 290 507.333333333 290 422 c 128
 290 336.666666667 319.166666667 269.166666667 377.5 219.5 c 128
 435.833333333 169.833333333 509.833333333 145 599.5 145 c 128
 689.166666667 145 763.333333333 169.833333333 822 219.5 c 128
EndSplineSet
EndChar

StartChar: nine
Encoding: 57 57 124
Width: 1200
Flags: HW
LayerCount: 2
Fore
SplineSet
237 260 m 1
 311.666666667 186.666666667 403 150 511 150 c 0
 681.666666667 150 800 241.333333333 866 424 c 0
 901.333333333 521.333333333 919 651 919 813 c 0
 919 1007.66666667 875.333333333 1149.33333333 788 1238 c 0
 740.666666667 1286 674.833333333 1310 590.5 1310 c 128
 506.166666667 1310 437.666666667 1284.33333333 385 1233 c 128
 332.333333333 1181.66666667 306 1114 306 1030 c 128
 306 946 332.333333333 880 385 832 c 128
 437.666666667 784 503.166666667 760 581.5 760 c 128
 659.833333333 760 731.333333333 779.333333333 796 818 c 128
 860.666666667 856.666666667 911.333333333 904.333333333 948 961 c 1
 1019 878 l 1
 949.666666667 762.666666667 857.333333333 678.666666667 742 626 c 0
 684 599.333333333 615.833333333 586 537.5 586 c 128
 459.166666667 586 386.666666667 604.833333333 320 642.5 c 128
 253.333333333 680.166666667 202 730.5 166 793.5 c 128
 130 856.5 112 932.333333333 112 1021 c 128
 112 1109.66666667 135.5 1190 182.5 1262 c 128
 229.5 1334 291.333333333 1389.16666667 368 1427.5 c 128
 444.666666667 1465.83333333 531 1485 627 1485 c 128
 723 1485 808.166666667 1455.33333333 882.5 1396 c 128
 956.833333333 1336.66666667 1014 1254 1054 1148 c 128
 1094 1042 1114 931.166666667 1114 815.5 c 128
 1114 699.833333333 1104.16666667 594.666666667 1084.5 500 c 128
 1064.83333333 405.333333333 1032 318.333333333 986 239 c 0
 882.666666667 63 721 -25 501 -25 c 0
 442.333333333 -25 389.333333333 -18.6666666667 342 -6 c 128
 294.666666667 6.66666666667 245 30.3333333333 193 65 c 1
 237 260 l 1
EndSplineSet
EndChar

StartChar: colon
Encoding: 58 58 125
Width: 640
Flags: HW
LayerCount: 2
Fore
SplineSet
225 695 m 128
 198.333333333 721.666666667 185 753.5 185 790.5 c 128
 185 827.5 198.333333333 859.166666667 225 885.5 c 128
 251.666666667 911.833333333 283.5 925 320.5 925 c 128
 357.5 925 389.166666667 911.833333333 415.5 885.5 c 128
 441.833333333 859.166666667 455 827.5 455 790.5 c 128
 455 753.5 441.833333333 721.666666667 415.5 695 c 128
 389.166666667 668.333333333 357.5 655 320.5 655 c 128
 283.5 655 251.666666667 668.333333333 225 695 c 128
225 15 m 128
 198.333333333 41.6666666667 185 73.5 185 110.5 c 128
 185 147.5 198.333333333 179.166666667 225 205.5 c 128
 251.666666667 231.833333333 283.5 245 320.5 245 c 128
 357.5 245 389.166666667 231.833333333 415.5 205.5 c 128
 441.833333333 179.166666667 455 147.5 455 110.5 c 128
 455 73.5 441.833333333 41.6666666667 415.5 15 c 128
 389.166666667 -11.6666666667 357.5 -25 320.5 -25 c 128
 283.5 -25 251.666666667 -11.6666666667 225 15 c 128
EndSplineSet
EndChar

StartChar: semicolon
Encoding: 59 59 126
Width: 650
Flags: HW
LayerCount: 2
Fore
SplineSet
225 695 m 128
 198.333333333 721.666666667 185 753.5 185 790.5 c 128
 185 827.5 198.333333333 859.166666667 225 885.5 c 128
 251.666666667 911.833333333 283.5 925 320.5 925 c 128
 357.5 925 389.166666667 911.833333333 415.5 885.5 c 128
 441.833333333 859.166666667 455 827.5 455 790.5 c 128
 455 753.5 441.833333333 721.666666667 415.5 695 c 128
 389.166666667 668.333333333 357.5 655 320.5 655 c 128
 283.5 655 251.666666667 668.333333333 225 695 c 128
185 50 m 1
 185 150 l 1
 191.666666667 181.333333333 208.666666667 205.833333333 236 223.5 c 128
 263.333333333 241.166666667 294.166666667 250 328.5 250 c 128
 362.833333333 250 394.166666667 235.166666667 422.5 205.5 c 128
 450.833333333 175.833333333 465 133.333333333 465 78 c 0
 465 -44 406.666666667 -160 290 -270 c 1
 190 -230 l 1
 238 -182 272.5 -131.833333333 293.5 -79.5 c 128
 314.5 -27.1666666667 325 16 325 50 c 1
 185 50 l 1
EndSplineSet
EndChar

StartChar: less
Encoding: 60 60 127
Width: 1200
Flags: HW
LayerCount: 2
Fore
SplineSet
1080 425 m 1
 1080 245 l 1
 100 645 l 1
 100 815 l 1
 1080 1215 l 1
 1080 1035 l 1
 290 730 l 1
 1080 425 l 1
EndSplineSet
EndChar

StartChar: equal
Encoding: 61 61 128
Width: 1200
Flags: HW
LayerCount: 2
Fore
SplineSet
120 480 m 1
 120 630 l 1
 1080 630 l 1
 1080 480 l 1
 120 480 l 1
120 830 m 1
 120 980 l 1
 1080 980 l 1
 1080 830 l 1
 120 830 l 1
EndSplineSet
EndChar

StartChar: greater
Encoding: 62 62 129
Width: 1200
Flags: HW
LayerCount: 2
Fore
SplineSet
120 245 m 1
 120 425 l 1
 910 730 l 1
 120 1035 l 1
 120 1215 l 1
 1100 815 l 1
 1100 645 l 1
 120 245 l 1
EndSplineSet
EndChar

StartChar: question
Encoding: 63 63 130
Width: 1050
Flags: HW
LayerCount: 2
Fore
SplineSet
583.5 1319.5 m 128
 555.833333333 1349.83333333 500.833333333 1365 418.5 1365 c 128
 336.166666667 1365 258.333333333 1327 185 1251 c 1
 140 1430 l 1
 173.333333333 1461.33333333 219.333333333 1487.5 278 1508.5 c 128
 336.666666667 1529.5 397.333333333 1540 460 1540 c 0
 578.666666667 1540 670 1512.83333333 734 1458.5 c 128
 798 1404.16666667 830 1331.33333333 830 1240 c 0
 830 1178.66666667 813.5 1123.66666667 780.5 1075 c 128
 747.5 1026.33333333 711.333333333 979.5 672 934.5 c 128
 632.666666667 889.5 604 847.666666667 586 809 c 0
 555.333333333 743 540 620 540 440 c 1
 355 440 l 1
 355 624 374 762 412 854 c 0
 431.333333333 900.666666667 459.166666667 947.333333333 495.5 994 c 128
 531.833333333 1040.66666667 562.5 1083 587.5 1121 c 128
 612.5 1159 625 1194 625 1226 c 128
 625 1258 611.166666667 1289.16666667 583.5 1319.5 c 128
355 15 m 128
 328.333333333 41.6666666667 315 73.5 315 110.5 c 128
 315 147.5 328.333333333 179.166666667 355 205.5 c 128
 381.666666667 231.833333333 413.5 245 450.5 245 c 128
 487.5 245 519.166666667 231.833333333 545.5 205.5 c 128
 571.833333333 179.166666667 585 147.5 585 110.5 c 128
 585 73.5 571.833333333 41.6666666667 545.5 15 c 128
 519.166666667 -11.6666666667 487.5 -25 450.5 -25 c 128
 413.5 -25 381.666666667 -11.6666666667 355 15 c 128
EndSplineSet
EndChar

StartChar: at
Encoding: 64 64 131
Width: 1702
Flags: HW
LayerCount: 2
Fore
SplineSet
553.5 -10 m 128
 649.166666667 -66.6666666667 751.166666667 -95 859.5 -95 c 128
 967.833333333 -95 1063 -66.6666666667 1145 -10 c 1
 1250 -118 l 1
 1200 -152.666666667 1138.5 -180.833333333 1065.5 -202.5 c 128
 992.5 -224.166666667 914.666666667 -235 832 -235 c 128
 749.333333333 -235 662.666666667 -217.5 572 -182.5 c 128
 481.333333333 -147.5 400 -96 328 -28 c 0
 172.666666667 120.666666667 95 321.666666667 95 575 c 0
 95 840.333333333 174 1047.66666667 332 1197 c 0
 478.666666667 1335.66666667 661.333333333 1405 880 1405 c 0
 1022.66666667 1405 1148.33333333 1375.83333333 1257 1317.5 c 128
 1365.66666667 1259.16666667 1450.83333333 1177.33333333 1512.5 1072 c 128
 1574.16666667 966.666666667 1605 850.666666667 1605 724 c 128
 1605 597.333333333 1587.5 495.333333333 1552.5 418 c 128
 1517.5 340.666666667 1473 281.666666667 1419 241 c 128
 1365 200.333333333 1313.16666667 180 1263.5 180 c 128
 1213.83333333 180 1174 194 1144 222 c 0
 1082 280 1047.33333333 369.333333333 1040 490 c 1
 1010.66666667 419.333333333 975 360.5 933 313.5 c 128
 891 266.5 854.833333333 233 824.5 213 c 128
 794.166666667 193 760.5 183 723.5 183 c 128
 686.5 183 646.5 195.5 603.5 220.5 c 128
 560.5 245.5 525 283.666666667 497 335 c 128
 469 386.333333333 455 451.333333333 455 530 c 0
 455 652 478 750.333333333 524 825 c 128
 570 899.666666667 620.333333333 954.166666667 675 988.5 c 128
 729.666666667 1022.83333333 798 1040 880 1040 c 0
 920.666666667 1040 969.166666667 1034.33333333 1025.5 1023 c 128
 1081.83333333 1011.66666667 1131.66666667 997.333333333 1175 980 c 1
 1175 630 l 2
 1175 520 1185.16666667 440 1205.5 390 c 128
 1225.83333333 340 1250.66666667 315 1280 315 c 0
 1302.66666667 315 1328.5 328 1357.5 354 c 128
 1386.5 380 1411.66666667 419.333333333 1433 472 c 128
 1454.33333333 524.666666667 1465 598.5 1465 693.5 c 128
 1465 788.5 1442.66666667 881.333333333 1398 972 c 128
 1353.33333333 1062.66666667 1287 1135 1199 1189 c 128
 1111 1243 1001.33333333 1270 870 1270 c 0
 701.333333333 1270 555.333333333 1209 432 1087 c 0
 304 960.333333333 240 799.666666667 240 605 c 0
 240 461.666666667 268.333333333 337.5 325 232.5 c 128
 381.666666667 127.5 457.833333333 46.6666666667 553.5 -10 c 128
1025 870 m 1
 976.333333333 893.333333333 926.5 905 875.5 905 c 128
 824.5 905 781.166666667 896.166666667 745.5 878.5 c 128
 709.833333333 860.833333333 678 828 650 780 c 0
 620 729.333333333 605 660.333333333 605 573 c 128
 605 485.666666667 619.833333333 421.666666667 649.5 381 c 128
 679.166666667 340.333333333 708.666666667 320 738 320 c 128
 767.333333333 320 796.166666667 334 824.5 362 c 128
 852.833333333 390 880.666666667 425.333333333 908 468 c 0
 968.666666667 561.333333333 1007.66666667 645.333333333 1025 720 c 1
 1025 870 l 1
EndSplineSet
EndChar

StartChar: A
Encoding: 65 65 132
Width: 1395
Flags: HW
LayerCount: 2
Fore
SplineSet
245 0 m 1
 40 0 l 1
 80 90.6666666667 126.666666667 209 180 355 c 2
 580 1460 l 1
 795 1460 l 1
 1195 355 l 2
 1240.33333333 229.666666667 1287 111.333333333 1335 0 c 1
 1130 0 l 1
 994 385 l 1
 379 385 l 1
 245 0 l 1
940 540 m 1
 685 1265 l 1
 433 540 l 1
 940 540 l 1
EndSplineSet
EndChar

StartChar: B
Encoding: 66 66 133
Width: 1285
Flags: HW
LayerCount: 2
Fore
SplineSet
805.5 1258.5 m 128
 762.5 1296.16666667 691.666666667 1315 593 1315 c 128
 494.333333333 1315 418.333333333 1313.33333333 365 1310 c 1
 365 855 l 1
 560 855 l 2
 667.333333333 855 745.833333333 876.833333333 795.5 920.5 c 128
 845.166666667 964.166666667 870 1022 870 1094 c 128
 870 1166 848.5 1220.83333333 805.5 1258.5 c 128
160 0 m 1
 170 54.6666666667 175 206.333333333 175 455 c 2
 175 1000 l 2
 175 1252 170 1405.33333333 160 1460 c 1
 248 1466.66666667 394.666666667 1470 600 1470 c 0
 748.666666667 1470 863.333333333 1444.33333333 944 1393 c 128
 1024.66666667 1341.66666667 1065 1250.66666667 1065 1120 c 0
 1065 1036 1041.16666667 968.166666667 993.5 916.5 c 128
 945.833333333 864.833333333 888 826 820 800 c 1
 946.666666667 767.333333333 1037.33333333 707.666666667 1092 621 c 0
 1124 570.333333333 1140 504 1140 422 c 128
 1140 340 1122 266.666666667 1086 202 c 0
 1008 60.6666666667 847.666666667 -10 605 -10 c 0
 398.333333333 -10 250 -6.66666666667 160 0 c 1
365 155 m 1
 458.333333333 151.666666667 536.833333333 150 600.5 150 c 128
 664.166666667 150 721.333333333 158 772 174 c 0
 887.333333333 210 945 292 945 420 c 0
 945 606.666666667 830 700 600 700 c 2
 365 700 l 1
 365 155 l 1
EndSplineSet
EndChar

StartChar: C
Encoding: 67 67 134
Width: 1355
Flags: HW
LayerCount: 2
Fore
SplineSet
1155 1165 m 1
 1044.33333333 1265 916 1315 770 1315 c 0
 677.333333333 1315 594.833333333 1293.33333333 522.5 1250 c 128
 450.166666667 1206.66666667 393.333333333 1142 352 1056 c 128
 310.666666667 970 290 865.166666667 290 741.5 c 128
 290 617.833333333 310.333333333 512.166666667 351 424.5 c 128
 391.666666667 336.833333333 447.5 269.166666667 518.5 221.5 c 128
 589.5 173.833333333 666.5 150 749.5 150 c 128
 832.5 150 912.666666667 166.833333333 990 200.5 c 128
 1067.33333333 234.166666667 1134 279 1190 335 c 1
 1230 140 l 1
 1156.66666667 71.3333333333 1052 22.6666666667 916 -6 c 0
 856 -18.6666666667 800.666666667 -25 750 -25 c 0
 615.333333333 -25 499 5 401 65 c 128
 303 125 227.5 210 174.5 320 c 128
 121.5 430 95 554.666666667 95 694 c 128
 95 833.333333333 113.333333333 951.5 150 1048.5 c 128
 186.666666667 1145.5 236.666666667 1226.33333333 300 1291 c 0
 428 1420.33333333 584.666666667 1485 770 1485 c 0
 942 1485 1090.33333333 1438.33333333 1215 1345 c 1
 1155 1165 l 1
EndSplineSet
EndChar

StartChar: D
Encoding: 68 68 135
Width: 1435
Flags: HW
LayerCount: 2
Fore
SplineSet
160 0 m 1
 170 54.6666666667 175 206.333333333 175 455 c 2
 175 1000 l 2
 175 1252 170 1405.33333333 160 1460 c 1
 255.333333333 1466.66666667 407 1470 615 1470 c 0
 733.666666667 1470 846.333333333 1447 953 1401 c 0
 1098.33333333 1338.33333333 1202 1227.33333333 1264 1068 c 0
 1298 980 1315 873.666666667 1315 749 c 128
 1315 624.333333333 1299.66666667 519.166666667 1269 433.5 c 128
 1238.33333333 347.833333333 1197.33333333 276.333333333 1146 219 c 128
 1094.66666667 161.666666667 1037.33333333 116.333333333 974 83 c 0
 857.333333333 21 731 -10 595 -10 c 0
 525 -10 380 -6.66666666667 160 0 c 1
854.5 1255.5 m 128
 774.166666667 1291.83333333 688.333333333 1310 597 1310 c 128
 505.666666667 1310 428.333333333 1308.33333333 365 1305 c 1
 365 165 l 1
 443 158.333333333 516 155 584 155 c 128
 652 155 717.666666667 165.166666667 781 185.5 c 128
 844.333333333 205.833333333 901.666666667 238.333333333 953 283 c 0
 1064.33333333 379.666666667 1120 525.333333333 1120 720 c 0
 1120 869.333333333 1095.83333333 986.833333333 1047.5 1072.5 c 128
 999.166666667 1158.16666667 934.833333333 1219.16666667 854.5 1255.5 c 128
EndSplineSet
EndChar

StartChar: E
Encoding: 69 69 136
Width: 1160
Flags: HW
LayerCount: 2
Fore
SplineSet
175 1025 m 2
 175 1260.33333333 170 1405.33333333 160 1460 c 1
 1010 1460 l 1
 1010 1295 l 1
 365 1295 l 1
 365 845 l 1
 935 845 l 1
 935 685 l 1
 365 685 l 1
 365 165 l 1
 629 165 l 2
 843 165 980 170 1040 180 c 1
 1040 0 l 1
 160 0 l 1
 170 54.6666666667 175 199.666666667 175 435 c 2
 175 1025 l 2
EndSplineSet
EndChar

StartChar: F
Encoding: 70 70 137
Width: 1150
Flags: HW
LayerCount: 2
Fore
SplineSet
175 1020 m 2
 175 1258.66666667 170 1405.33333333 160 1460 c 1
 1030 1460 l 1
 1030 1295 l 1
 365 1295 l 1
 365 835 l 1
 945 835 l 1
 945 675 l 1
 365 675 l 1
 365 435 l 2
 365 198.333333333 370 53.3333333333 380 0 c 1
 160 0 l 1
 170 54.6666666667 175 199.666666667 175 435 c 2
 175 1020 l 2
EndSplineSet
EndChar

StartChar: G
Encoding: 71 71 138
Width: 1420
Flags: HW
LayerCount: 2
Fore
SplineSet
1275 745 m 1
 1275 155 l 1
 1172.33333333 83 1080 35 998 11 c 128
 916 -13 831.666666667 -25 745 -25 c 0
 619 -25 507.166666667 3.83333333333 409.5 61.5 c 128
 311.833333333 119.166666667 235 203.5 179 314.5 c 128
 123 425.5 95 560.833333333 95 720.5 c 128
 95 880.166666667 125.833333333 1017 187.5 1131 c 128
 249.166666667 1245 332.333333333 1332.5 437 1393.5 c 128
 541.666666667 1454.5 657.666666667 1485 785 1485 c 0
 866.333333333 1485 944 1476.33333333 1018 1459 c 128
 1092 1441.66666667 1172.66666667 1403.66666667 1260 1345 c 1
 1195 1165 l 1
 1120.33333333 1225.66666667 1050 1265.83333333 984 1285.5 c 128
 918 1305.16666667 851.666666667 1315 785 1315 c 0
 683.666666667 1315 595.833333333 1291.66666667 521.5 1245 c 128
 447.166666667 1198.33333333 390 1132.5 350 1047.5 c 128
 310 962.5 290 860.166666667 290 740.5 c 128
 290 620.833333333 309 516.5 347 427.5 c 128
 385 338.5 439 270 509 222 c 128
 579 174 661.666666667 150 757 150 c 0
 816.333333333 150 870.666666667 156.666666667 920 170 c 128
 969.333333333 183.333333333 1024.33333333 208.333333333 1085 245 c 1
 1085 580 l 1
 735 580 l 1
 735 745 l 1
 1275 745 l 1
EndSplineSet
EndChar

StartChar: H
Encoding: 72 72 139
Width: 1475
Flags: HW
LayerCount: 2
Fore
SplineSet
1275 435 m 2
 1275 199.666666667 1280 54.6666666667 1290 0 c 1
 1085 0 l 1
 1085 675 l 1
 365 675 l 1
 365 0 l 1
 160 0 l 1
 170 54.6666666667 175 199.666666667 175 435 c 2
 175 1025 l 2
 175 1260.33333333 170 1405.33333333 160 1460 c 1
 365 1460 l 1
 365 835 l 1
 1085 835 l 1
 1085 1460 l 1
 1290 1460 l 1
 1280 1405.33333333 1275 1260.33333333 1275 1025 c 2
 1275 435 l 2
EndSplineSet
EndChar

StartChar: I
Encoding: 73 73 140
Width: 975
Flags: HW
LayerCount: 2
Fore
SplineSet
140 1460 m 1
 815 1460 l 1
 815 1315 l 1
 570 1315 l 1
 570 145 l 1
 815 145 l 1
 815 0 l 1
 140 0 l 1
 140 145 l 1
 380 145 l 1
 380 1315 l 1
 140 1315 l 1
 140 1460 l 1
EndSplineSet
EndChar

StartChar: J
Encoding: 74 74 141
Width: 965
Flags: HW
LayerCount: 2
Fore
SplineSet
590 980 m 2
 590 1221.33333333 585 1381.33333333 575 1460 c 1
 780 1460 l 1
 780 1460 780 1460 780 535 c 0
 780 273 710.666666667 104 572 28 c 0
 506.666666667 -7.33333333333 431 -25 345 -25 c 0
 269 -25 204.333333333 -12.5 151 12.5 c 128
 97.6666666667 37.5 59 63.3333333333 35 90 c 1
 80 275 l 1
 113.333333333 236.333333333 153.5 206.666666667 200.5 186 c 128
 247.5 165.333333333 294 155 340 155 c 0
 413.333333333 155 473.333333333 181.333333333 520 234 c 128
 566.666666667 286.666666667 590 370.333333333 590 485 c 2
 590 980 l 2
EndSplineSet
EndChar

StartChar: K
Encoding: 75 75 142
Width: 1310
Flags: HW
LayerCount: 2
Fore
SplineSet
925 1460 m 1
 1165 1460 l 1
 530 740 l 1
 425 745 l 1
 295 703 l 1
 925 1460 l 1
350 735 m 1
 485 860 l 1
 1230 0 l 1
 985 0 l 1
 350 735 l 1
175 1025 m 2
 175 1260.33333333 170 1405.33333333 160 1460 c 1
 365 1460 l 1
 365 0 l 1
 160 0 l 1
 170 54.6666666667 175 199.666666667 175 435 c 2
 175 1025 l 2
EndSplineSet
EndChar

StartChar: L
Encoding: 76 76 143
Width: 1080
Flags: HW
LayerCount: 2
Fore
SplineSet
175 1025 m 2
 175 1260.33333333 170 1405.33333333 160 1460 c 1
 365 1460 l 1
 365 165 l 1
 589 165 l 2
 819.666666667 165 965 170 1025 180 c 1
 1025 0 l 1
 160 0 l 1
 170 54.6666666667 175 199.666666667 175 435 c 2
 175 1025 l 2
EndSplineSet
EndChar

StartChar: M
Encoding: 77 77 144
Width: 1795
Flags: HW
LayerCount: 2
Fore
SplineSet
885 205 m 1
 1320 1460 l 1
 1487 1460 l 1
 1404 1223 l 1
 985 0 l 1
 790 0 l 1
 370 1223 l 1
 285 1460 l 1
 455 1460 l 1
 885 205 l 1
230 1460 m 1
 405 1460 l 1
 377 1205 l 1
 345 0 l 1
 160 0 l 1
 172.666666667 88 185.166666667 291.666666667 197.5 611 c 128
 209.833333333 930.333333333 217.5 1128.66666667 220.5 1206 c 128
 223.5 1283.33333333 225.333333333 1333.33333333 226 1356 c 2
 226 1356 226 1356 230 1460 c 1
1610 0 m 1
 1425 0 l 1
 1397 1205 l 1
 1365 1460 l 1
 1540 1460 l 1
 1564.66666667 646 1588 159.333333333 1610 0 c 1
EndSplineSet
EndChar

StartChar: N
Encoding: 78 78 145
Width: 1500
Flags: HW
LayerCount: 2
Fore
SplineSet
200 1355 m 1
 340 1460 l 1
 1275 100 l 1
 1135 0 l 1
 200 1355 l 1
1315 1460 m 1
 1305 1400 1300 1255 1300 1025 c 2
 1300 0 l 1
 1135 0 l 1
 1135 1460 l 1
 1315 1460 l 1
175 1025 m 2
 175 1260.33333333 170 1405.33333333 160 1460 c 1
 340 1460 l 1
 340 0 l 1
 160 0 l 1
 170 54.6666666667 175 199.666666667 175 435 c 2
 175 1025 l 2
EndSplineSet
EndChar

StartChar: O
Encoding: 79 79 146
Width: 1460
Flags: HW
LayerCount: 2
Fore
SplineSet
1090 411.5 m 128
 1126.66666667 495.833333333 1145 598.333333333 1145 719 c 128
 1145 839.666666667 1127.16666667 944.333333333 1091.5 1033 c 128
 1055.83333333 1121.66666667 1006.16666667 1190 942.5 1238 c 128
 878.833333333 1286 804.833333333 1310 720.5 1310 c 128
 636.166666667 1310 561.666666667 1287 497 1241 c 128
 432.333333333 1195 381.666666667 1129.66666667 345 1045 c 128
 308.333333333 960.333333333 290 858.833333333 290 740.5 c 128
 290 622.166666667 307.833333333 518.333333333 343.5 429 c 128
 379.166666667 339.666666667 429.166666667 270.833333333 493.5 222.5 c 128
 557.833333333 174.166666667 632.166666667 150 716.5 150 c 128
 800.833333333 150 875 172.5 939 217.5 c 128
 1003 262.5 1053.33333333 327.166666667 1090 411.5 c 128
1340 740 m 256
 1340 508.666666667 1274.66666667 321.333333333 1144 178 c 0
 1022 42.6666666667 877.333333333 -25 710 -25 c 0
 541.333333333 -25 398.666666667 39.3333333333 282 168 c 0
 157.333333333 304.666666667 95 488.666666667 95 720 c 256
 95 951.333333333 160.666666667 1138.66666667 292 1282 c 0
 415.333333333 1417.33333333 561.333333333 1485 730 1485 c 0
 896 1485 1037.33333333 1420.66666667 1154 1292 c 0
 1278 1155.33333333 1340 971.333333333 1340 740 c 256
EndSplineSet
EndChar

StartChar: P
Encoding: 80 80 147
Width: 1195
Flags: HW
LayerCount: 2
Fore
SplineSet
585 555 m 0
 503.666666667 555 430.333333333 558.333333333 365 565 c 1
 365 435 l 2
 365 203.666666667 370 58.6666666667 380 0 c 1
 160 0 l 1
 170 54.6666666667 175 199.666666667 175 435 c 2
 175 1000 l 2
 175 1252 170 1405.33333333 160 1460 c 1
 160 1460 160 1460 222 1462 c 0
 346 1467.33333333 467 1470 585 1470 c 0
 746.333333333 1470 875 1433.16666667 971 1359.5 c 128
 1067 1285.83333333 1115 1175.83333333 1115 1029.5 c 128
 1115 883.166666667 1067.83333333 767.5 973.5 682.5 c 128
 879.166666667 597.5 749.666666667 555 585 555 c 0
784 1268 m 0
 733.333333333 1296 672 1310 600 1310 c 128
 528 1310 449.666666667 1308.33333333 365 1305 c 1
 365 720 l 1
 417 713.333333333 487.5 710 576.5 710 c 128
 665.5 710 735.666666667 724 787 752 c 0
 879 801.333333333 925 887.333333333 925 1010 c 0
 925 1131.33333333 878 1217.33333333 784 1268 c 0
EndSplineSet
EndChar

StartChar: Q
Encoding: 81 81 148
Width: 1475
Flags: HW
LayerCount: 2
Fore
SplineSet
1455 -45 m 1
 1401 -141.666666667 1356 -190 1320 -190 c 0
 1291.33333333 -190 1246.16666667 -174.166666667 1184.5 -142.5 c 128
 1122.83333333 -110.833333333 1073.66666667 -85.3333333333 1037 -66 c 0
 951.666666667 -22 897.666666667 0 875 0 c 1
 822.333333333 -16.6666666667 765.666666667 -25 705 -25 c 0
 597.666666667 -25 497.666666667 3.83333333333 405 61.5 c 128
 312.333333333 119.166666667 237.5 203.5 180.5 314.5 c 128
 123.5 425.5 95 550.833333333 95 690.5 c 128
 95 830.166666667 112.666666667 947.166666667 148 1041.5 c 128
 183.333333333 1135.83333333 231.333333333 1216 292 1282 c 0
 415.333333333 1417.33333333 561.333333333 1485 730 1485 c 0
 838 1485 938.333333333 1456.16666667 1031 1398.5 c 128
 1123.66666667 1340.83333333 1198.33333333 1256.66666667 1255 1146 c 128
 1311.66666667 1035.33333333 1340 907.333333333 1340 762 c 128
 1340 616.666666667 1318.66666667 487.166666667 1276 373.5 c 128
 1233.33333333 259.833333333 1168 170.333333333 1080 105 c 1
 1218.66666667 19.6666666667 1343.66666667 -30.3333333333 1455 -45 c 1
1090 411.5 m 128
 1126.66666667 495.833333333 1145 598.333333333 1145 719 c 128
 1145 839.666666667 1127.16666667 944.333333333 1091.5 1033 c 128
 1055.83333333 1121.66666667 1006.16666667 1190 942.5 1238 c 128
 878.833333333 1286 804.833333333 1310 720.5 1310 c 128
 636.166666667 1310 561.666666667 1287 497 1241 c 128
 432.333333333 1195 381.666666667 1129.66666667 345 1045 c 128
 308.333333333 960.333333333 290 858.833333333 290 740.5 c 128
 290 622.166666667 307.833333333 518.333333333 343.5 429 c 128
 379.166666667 339.666666667 429.166666667 270.833333333 493.5 222.5 c 128
 557.833333333 174.166666667 632.166666667 150 716.5 150 c 128
 800.833333333 150 875 172.5 939 217.5 c 128
 1003 262.5 1053.33333333 327.166666667 1090 411.5 c 128
EndSplineSet
EndChar

StartChar: R
Encoding: 82 82 149
Width: 1305
Flags: HW
LayerCount: 2
Fore
SplineSet
160 1460 m 1
 284.666666667 1466.66666667 409.333333333 1470 534 1470 c 128
 658.666666667 1470 760.333333333 1456 839 1428 c 0
 1006.33333333 1367.33333333 1090 1244.66666667 1090 1060 c 0
 1090 914 1034.66666667 802 924 724 c 0
 832 658 730.666666667 625 620 625 c 2
 365 625 l 1
 365 435 l 2
 365 203.666666667 370 58.6666666667 380 0 c 1
 160 0 l 1
 170 54.6666666667 175 199.666666667 175 435 c 2
 175 1000 l 2
 175 1252 170 1405.33333333 160 1460 c 1
555 1310 m 0
 495 1310 431.666666667 1308.33333333 365 1305 c 1
 365 780 l 1
 555 780 l 2
 667.666666667 780 753.333333333 803.5 812 850.5 c 128
 870.666666667 897.5 900 963 900 1047 c 128
 900 1131 873.166666667 1195.83333333 819.5 1241.5 c 128
 765.833333333 1287.16666667 677.666666667 1310 555 1310 c 0
561 635 m 1
 715 710 l 1
 1023 287.333333333 1199.66666667 50.6666666667 1245 0 c 1
 990 0 l 1
 561 635 l 1
EndSplineSet
EndChar

StartChar: S
Encoding: 83 83 150
Width: 1175
Flags: HW
LayerCount: 2
Fore
SplineSet
140 315 m 1
 266.666666667 205 408.333333333 150 565 150 c 0
 682.333333333 150 771 189 831 267 c 0
 860.333333333 305 875 346.333333333 875 391 c 128
 875 435.666666667 866.666666667 473.333333333 850 504 c 0
 815.333333333 568 703.666666667 628.333333333 515 685 c 0
 323 743 206.333333333 822 165 922 c 0
 145 970.666666667 135 1019.83333333 135 1069.5 c 128
 135 1119.16666667 144 1167.5 162 1214.5 c 128
 180 1261.5 208 1305.33333333 246 1346 c 0
 330.666666667 1438.66666667 450.333333333 1485 605 1485 c 0
 744.333333333 1485 876 1455 1000 1395 c 1
 960 1200 l 1
 888.666666667 1239.33333333 826 1267.5 772 1284.5 c 128
 718 1301.5 661.666666667 1310 603 1310 c 128
 544.333333333 1310 494.666666667 1299.66666667 454 1279 c 128
 413.333333333 1258.33333333 381.666666667 1231.66666667 359 1199 c 128
 336.333333333 1166.33333333 325 1131.66666667 325 1095 c 256
 325 1058.33333333 332.666666667 1026 348 998 c 0
 377.333333333 944.666666667 469 895.333333333 623 850 c 128
 777 804.666666667 889.166666667 749.5 959.5 684.5 c 128
 1029.83333333 619.5 1065 537.666666667 1065 439 c 128
 1065 340.333333333 1042.33333333 257.166666667 997 189.5 c 128
 951.666666667 121.833333333 891.166666667 69.1666666667 815.5 31.5 c 128
 739.833333333 -6.16666666667 655 -25 561 -25 c 128
 467 -25 378.666666667 -12.3333333333 296 13 c 128
 213.333333333 38.3333333333 146.333333333 70.6666666667 95 110 c 1
 140 315 l 1
EndSplineSet
EndChar

StartChar: T
Encoding: 84 84 151
Width: 1265
Flags: HW
LayerCount: 2
Fore
SplineSet
290 1295 m 2
 188 1295 106.333333333 1288.33333333 45 1275 c 1
 45 1460 l 1
 1200 1460 l 1
 1200 1275 l 1
 1138.66666667 1288.33333333 1057 1295 955 1295 c 2
 715 1295 l 1
 715 435 l 2
 715 206.333333333 721.666666667 61.3333333333 735 0 c 1
 505 0 l 1
 518.333333333 61.3333333333 525 206.333333333 525 435 c 2
 525 1295 l 1
 290 1295 l 2
EndSplineSet
EndChar

StartChar: U
Encoding: 85 85 152
Width: 1440
Flags: HW
LayerCount: 2
Fore
SplineSet
175 1025 m 2
 175 1260.33333333 170 1405.33333333 160 1460 c 1
 365 1460 l 1
 365 560 l 2
 365 374.666666667 411.333333333 250.333333333 504 187 c 0
 554 152.333333333 622.333333333 135 709 135 c 128
 795.666666667 135 863.666666667 152.333333333 913 187 c 0
 1004.33333333 251 1050 375.333333333 1050 560 c 2
 1050 1460 l 1
 1255 1460 l 1
 1245 1400 1240 1255 1240 1025 c 2
 1240 515 l 2
 1240 352.333333333 1196.83333333 221.666666667 1110.5 123 c 128
 1024.16666667 24.3333333333 890.166666667 -25 708.5 -25 c 128
 526.833333333 -25 392.5 24.3333333333 305.5 123 c 128
 218.5 221.666666667 175 352.333333333 175 515 c 2
 175 1025 l 2
EndSplineSet
EndChar

StartChar: V
Encoding: 86 86 153
Width: 1365
Flags: HW
LayerCount: 2
Fore
SplineSet
1095 1460 m 1
 1310 1460 l 1
 1270.66666667 1370.66666667 1224 1249 1170 1095 c 2
 785 0 l 1
 560 0 l 1
 170 1095 l 2
 102 1285 57 1406.66666667 35 1460 c 1
 250 1460 l 1
 672 195 l 1
 1095 1460 l 1
EndSplineSet
EndChar

StartChar: W
Encoding: 87 87 154
Width: 2080
Flags: HW
LayerCount: 2
Fore
SplineSet
1480 0 m 1
 1470 130 l 1
 1795 1460 l 1
 2015 1460 l 1
 1985.66666667 1386 1947.33333333 1264.33333333 1900 1095 c 2
 1595 0 l 1
 1480 0 l 1
1120 1460 m 1
 1500 130 l 1
 1480 0 l 1
 1370 0 l 1
 990 1305 l 1
 935 1460 l 1
 1120 1460 l 1
580 0 m 1
 560 130 l 1
 935 1460 l 1
 1120 1460 l 1
 1065 1305 l 1
 685 0 l 1
 580 0 l 1
260 1460 m 1
 590 130 l 1
 580 0 l 1
 460 0 l 1
 155 1095 l 2
 109 1260.33333333 70.6666666667 1382 40 1460 c 1
 260 1460 l 1
EndSplineSet
EndChar

StartChar: X
Encoding: 88 88 155
Width: 1325
Flags: HW
LayerCount: 2
Fore
SplineSet
1030 0 m 1
 330 1110 l 2
 251.333333333 1236.66666667 171.333333333 1353.33333333 90 1460 c 1
 325 1460 l 1
 1033 336 l 2
 1119 202 1194.66666667 90 1260 0 c 1
 1030 0 l 1
553 806 m 1
 658 639 l 1
 270 0 l 1
 40 0 l 1
 100.666666667 81.3333333333 175.666666667 194.666666667 265 340 c 2
 553 806 l 1
743 737 m 1
 638 904 l 1
 975 1460 l 1
 1210 1460 l 1
 1150 1386.66666667 1070.66666667 1270 972 1110 c 2
 743 737 l 1
EndSplineSet
EndChar

StartChar: Y
Encoding: 89 89 156
Width: 1320
Flags: HW
LayerCount: 2
Fore
SplineSet
572 582 m 1
 290 1065 l 2
 195.333333333 1227 110.333333333 1358.66666667 35 1460 c 1
 265 1460 l 1
 738 667 l 1
 572 582 l 1
732 580 m 1
 577 652 l 1
 1035 1460 l 1
 1265 1460 l 1
 1181.66666667 1341.33333333 1098.33333333 1209.66666667 1015 1065 c 2
 732 580 l 1
540 0 m 1
 550 54.6666666667 555 199.666666667 555 435 c 2
 555 641 l 1
 745 641 l 1
 745 435 l 2
 745 199.666666667 750 54.6666666667 760 0 c 1
 540 0 l 1
EndSplineSet
EndChar

StartChar: Z
Encoding: 90 90 157
Width: 1230
Flags: HW
LayerCount: 2
Fore
SplineSet
530 1295 m 2
 328 1295 196.333333333 1288.33333333 135 1275 c 1
 135 1460 l 1
 1105 1460 l 1
 1105 1330 l 1
 310 165 l 1
 700 165 l 2
 910 165 1055 171.666666667 1135 185 c 1
 1135 0 l 1
 75 0 l 1
 75 125 l 1
 870 1295 l 1
 530 1295 l 2
EndSplineSet
EndChar

StartChar: bracketleft
Encoding: 91 91 158
Width: 790
Flags: HW
LayerCount: 2
Fore
SplineSet
640 -410 m 1
 200 -410 l 1
 200 1600 l 1
 640 1600 l 1
 640 1450 l 1
 385 1450 l 1
 385 -260 l 1
 640 -260 l 1
 640 -410 l 1
EndSplineSet
EndChar

StartChar: backslash
Encoding: 92 92 159
Width: 1000
Flags: HW
LayerCount: 2
Fore
SplineSet
990 -245 m 1
 840 -245 l 1
 10 1600 l 1
 160 1600 l 1
 990 -245 l 1
EndSplineSet
EndChar

StartChar: bracketright
Encoding: 93 93 160
Width: 790
Flags: HW
LayerCount: 2
Fore
SplineSet
590 -410 m 1
 150 -410 l 1
 150 -260 l 1
 405 -260 l 1
 405 1450 l 1
 150 1450 l 1
 150 1600 l 1
 590 1600 l 1
 590 -410 l 1
EndSplineSet
EndChar

StartChar: asciicircum
Encoding: 94 94 161
Width: 850
Flags: HW
LayerCount: 2
Fore
SplineSet
850 1170 m 1
 700 1170 l 1
 425 1450 l 1
 150 1170 l 1
 0 1170 l 1
 340 1600 l 1
 510 1600 l 1
 850 1170 l 1
EndSplineSet
EndChar

StartChar: underscore
Encoding: 95 95 162
Width: 1274
Flags: HW
LayerCount: 2
Fore
SplineSet
0 -320 m 1
 0 -170 l 1
 1274 -170 l 1
 1274 -320 l 1
 0 -320 l 1
EndSplineSet
EndChar

StartChar: grave
Encoding: 96 96 163
Width: 580
Flags: HW
LayerCount: 2
Fore
SplineSet
0 1600 m 1
 230 1600 l 1
 580 1170 l 1
 420 1170 l 1
 0 1600 l 1
EndSplineSet
EndChar

StartChar: a
Encoding: 97 97 164
Width: 1150
Flags: HW
LayerCount: 2
Fore
SplineSet
795 155 m 1
 682.333333333 35 557.333333333 -25 420 -25 c 0
 357.333333333 -25 301.5 -12 252.5 14 c 128
 203.5 40 165 74.3333333333 137 117 c 128
 109 159.666666667 95 206 95 256 c 128
 95 306 106.833333333 356.333333333 130.5 407 c 128
 154.166666667 457.666666667 195.166666667 501.666666667 253.5 539 c 128
 311.833333333 576.333333333 392.333333333 600 495 610 c 0
 518.333333333 612.666666667 548.666666667 615.666666667 586 619 c 128
 623.333333333 622.333333333 659.166666667 625.666666667 693.5 629 c 128
 727.833333333 632.333333333 751.666666667 634.333333333 765 635 c 1
 765 710 l 2
 765 823.333333333 685 880 525 880 c 0
 426.333333333 880 318 838.333333333 200 755 c 1
 200.666666667 769.666666667 201.333333333 789.666666667 202 815 c 0
 204 879.666666667 206.666666667 924.666666667 210 950 c 1
 260.666666667 972 314.333333333 992.5 371 1011.5 c 128
 427.666666667 1030.5 494 1040 570 1040 c 0
 685.333333333 1040 777.5 1013.16666667 846.5 959.5 c 128
 915.5 905.833333333 950 839.333333333 950 760 c 2
 950 370 l 2
 950 250.666666667 975 127.333333333 1025 0 c 1
 845 0 l 1
 823.666666667 51.3333333333 807 103 795 155 c 1
321.5 176.5 m 128
 352.5 152.166666667 390.166666667 140 434.5 140 c 128
 478.833333333 140 517.333333333 144 550 152 c 0
 621.333333333 170 693 227.666666667 765 325 c 1
 765 495 l 1
 706.333333333 492.333333333 627.166666667 484.833333333 527.5 472.5 c 128
 427.833333333 460.166666667 360.833333333 436.5 326.5 401.5 c 128
 292.166666667 366.5 275 326.333333333 275 281 c 128
 275 235.666666667 290.5 200.833333333 321.5 176.5 c 128
EndSplineSet
EndChar

StartChar: b
Encoding: 98 98 165
Width: 1155
Flags: HW
LayerCount: 2
Fore
SplineSet
145 1246 m 0
 145 1412 140 1530 130 1600 c 1
 330 1600 l 1
 330 1600 330 1600 330 825 c 1
 439.333333333 968.333333333 567.666666667 1040 715 1040 c 0
 782.333333333 1040 842 1018.66666667 894 976 c 128
 946 933.333333333 986.666666667 874.333333333 1016 799 c 128
 1045.33333333 723.666666667 1060 633.166666667 1060 527.5 c 128
 1060 421.833333333 1040 326.666666667 1000 242 c 128
 960 157.333333333 903.833333333 91.6666666667 831.5 45 c 128
 759.166666667 -1.66666666667 678.166666667 -25 588.5 -25 c 128
 498.833333333 -25 418.333333333 -15.3333333333 347 4 c 128
 275.666666667 23.3333333333 208.333333333 43.6666666667 145 65 c 1
 145 65 145 65 145 1246 c 0
330 185 m 1
 417.333333333 148.333333333 502.166666667 130 584.5 130 c 128
 666.833333333 130 736.666666667 164.333333333 794 233 c 128
 851.333333333 301.666666667 880 392 880 504 c 128
 880 616 860.5 704.166666667 821.5 768.5 c 128
 782.5 832.833333333 729.5 865 662.5 865 c 128
 595.5 865 531.833333333 839.166666667 471.5 787.5 c 128
 411.166666667 735.833333333 364 668.333333333 330 585 c 1
 330 185 l 1
EndSplineSet
EndChar

StartChar: c
Encoding: 99 99 166
Width: 1020
Flags: HW
LayerCount: 2
Fore
SplineSet
370 239.5 m 128
 426.666666667 173.166666667 507.666666667 140 613 140 c 128
 718.333333333 140 815.666666667 180 905 260 c 1
 925 85 l 1
 874.333333333 47 823 19.1666666667 771 1.5 c 128
 719 -16.1666666667 651.833333333 -25 569.5 -25 c 128
 487.166666667 -25 409.333333333 -4.16666666667 336 37.5 c 128
 262.666666667 79.1666666667 204.166666667 138.5 160.5 215.5 c 128
 116.833333333 292.5 95 382.666666667 95 486 c 128
 95 589.333333333 116.166666667 682.666666667 158.5 766 c 128
 200.833333333 849.333333333 261 915.833333333 339 965.5 c 128
 417 1015.16666667 509 1040 615 1040 c 0
 733 1040 833 1011.66666667 915 955 c 1
 880 775 l 1
 790.666666667 841.666666667 699.5 875 606.5 875 c 128
 513.5 875 436.666666667 842 376 776 c 128
 315.333333333 710 285 620.666666667 285 508 c 128
 285 395.333333333 313.333333333 305.833333333 370 239.5 c 128
EndSplineSet
EndChar

StartChar: d
Encoding: 100 100 167
Width: 1190
Flags: HW
LayerCount: 2
Fore
SplineSet
845 1235 m 2
 845 1403.66666667 836.666666667 1525.33333333 820 1600 c 1
 1030 1600 l 1
 1030 530 l 2
 1030 308 1055 131.333333333 1105 0 c 1
 925 0 l 1
 907.666666667 40 889.333333333 101.666666667 870 185 c 1
 771.333333333 45 649.666666667 -25 505 -25 c 0
 423.666666667 -25 353 -5 293 35 c 128
 233 75 186.666666667 131.5 154 204.5 c 128
 121.333333333 277.5 105 367.833333333 105 475.5 c 128
 105 583.166666667 126 680.333333333 168 767 c 128
 210 853.666666667 266.833333333 920.833333333 338.5 968.5 c 128
 410.166666667 1016.16666667 487.666666667 1040 571 1040 c 128
 654.333333333 1040 745.666666667 1011.66666667 845 955 c 1
 845 1235 l 2
845 400 m 1
 845 795 l 1
 795.666666667 821.666666667 751.833333333 840.833333333 713.5 852.5 c 128
 675.166666667 864.166666667 630.666666667 870 580 870 c 256
 529.333333333 870 482 854.833333333 438 824.5 c 128
 394 794.166666667 358.333333333 750.666666667 331 694 c 128
 303.666666667 637.333333333 290 560.166666667 290 462.5 c 128
 290 364.833333333 310 285.833333333 350 225.5 c 128
 390 165.166666667 453.333333333 135 540 135 c 0
 618.666666667 135 695 181 769 273 c 0
 801.666666667 313.666666667 827 356 845 400 c 1
EndSplineSet
EndChar

StartChar: e
Encoding: 101 101 168
Width: 1095
Flags: HW
LayerCount: 2
Fore
SplineSet
995 75 m 1
 866.333333333 8.33333333333 726.333333333 -25 575 -25 c 0
 490.333333333 -25 411.5 -5.33333333333 338.5 34 c 128
 265.5 73.3333333333 206.666666667 131.666666667 162 209 c 128
 117.333333333 286.333333333 95 381 95 493 c 128
 95 605 114.5 701.666666667 153.5 783 c 128
 192.5 864.333333333 247.833333333 927.5 319.5 972.5 c 128
 391.166666667 1017.5 472.333333333 1040 563 1040 c 128
 653.666666667 1040 725.833333333 1026 779.5 998 c 128
 833.166666667 970 875.333333333 932.666666667 906 886 c 0
 962 800.666666667 990 693 990 563 c 2
 990 563 990 563 990 531 c 128
 990 509.666666667 989.666666667 494.333333333 989 485 c 1
 245 485 l 1
 245 625 l 1
 810 625 l 1
 810 711 786.5 776.666666667 739.5 822 c 128
 692.5 867.333333333 629 890 549 890 c 128
 469 890 404.166666667 859 354.5 797 c 128
 304.833333333 735 280 640 280 512 c 128
 280 384 310.166666667 290 370.5 230 c 128
 430.833333333 170 507.333333333 140 600 140 c 0
 740 140 865 173.333333333 975 240 c 1
 995 75 l 1
EndSplineSet
EndChar

StartChar: f
Encoding: 102 102 169
Width: 750
Flags: HW
LayerCount: 2
Fore
SplineSet
425 494 m 0
 425 263.333333333 435 98.6666666667 455 0 c 1
 240 0 l 1
 240 0 240 0 240 1170 c 0
 240 1320 270.5 1432.5 331.5 1507.5 c 128
 392.5 1582.5 477 1620 585 1620 c 0
 665.666666667 1620 739 1596.66666667 805 1550 c 1
 760 1390 l 1
 706 1430 647.666666667 1450 585 1450 c 0
 478.333333333 1450 425 1370 425 1210 c 2
 425 1210 425 1210 425 494 c 0
40 850 m 1
 40 995 l 1
 695 995 l 1
 695 850 l 1
 40 850 l 1
EndSplineSet
EndChar

StartChar: g
Encoding: 103 103 170
Width: 1125
Flags: HW
LayerCount: 2
Fore
SplineSet
389.5 989.5 m 128
 455.166666667 1023.16666667 533.666666667 1040 625 1040 c 128
 716.333333333 1040 838 1015 990 965 c 1
 990 25 l 2
 990 -92.3333333333 968.333333333 -187.333333333 925 -260 c 128
 881.666666667 -332.666666667 826 -385.833333333 758 -419.5 c 128
 690 -453.166666667 621.666666667 -470 553 -470 c 0
 423 -470 298.666666667 -430 180 -350 c 1
 245 -195 l 1
 351.666666667 -271.666666667 448.333333333 -310 535 -310 c 0
 569.666666667 -310 608 -301.166666667 650 -283.5 c 128
 692 -265.833333333 728.333333333 -235.166666667 759 -191.5 c 128
 789.666666667 -147.833333333 805 -87.3333333333 805 -10 c 2
 805 195 l 1
 753 129.666666667 696.333333333 80 635 46 c 128
 573.666666667 12 513.833333333 -5 455.5 -5 c 128
 397.166666667 -5 341 9.66666666667 287 39 c 128
 233 68.3333333333 189.166666667 115.166666667 155.5 179.5 c 128
 121.833333333 243.833333333 105 321.666666667 105 413 c 128
 105 504.333333333 115 586 135 658 c 128
 155 730 186 794.833333333 228 852.5 c 128
 270 910.166666667 323.833333333 955.833333333 389.5 989.5 c 128
290 485 m 0
 290 271.666666667 353.333333333 165 480 165 c 0
 530.666666667 165 586.666666667 185 648 225 c 128
 709.333333333 265 761.666666667 321.666666667 805 395 c 1
 805 830 l 1
 735.666666667 856.666666667 665.166666667 870 593.5 870 c 128
 521.833333333 870 463.333333333 851 418 813 c 0
 332.666666667 740.333333333 290 631 290 485 c 0
EndSplineSet
EndChar

StartChar: h
Encoding: 104 104 171
Width: 1175
Flags: HW
LayerCount: 2
Fore
SplineSet
145 1255 m 0
 145 1427 140 1542 130 1600 c 1
 330 1600 l 1
 330 1600 330 1600 330 830 c 1
 379.333333333 899.333333333 437.5 951.666666667 504.5 987 c 128
 571.5 1022.33333333 640 1040 710 1040 c 0
 816.666666667 1040 898.333333333 1005.16666667 955 935.5 c 128
 1011.66666667 865.833333333 1040 762.333333333 1040 625 c 2
 1040 625 1040 625 1040 0 c 1
 855 0 l 1
 855 0 855 0 855 550 c 0
 855 707.333333333 825.333333333 803.333333333 766 838 c 0
 736.666666667 856 698.833333333 865 652.5 865 c 128
 606.166666667 865 561 850.666666667 517 822 c 128
 473 793.333333333 434.5 757.166666667 401.5 713.5 c 128
 368.5 669.833333333 344.666666667 625.333333333 330 580 c 1
 330 0 l 1
 145 0 l 1
 145 0 145 0 145 1255 c 0
EndSplineSet
EndChar

StartChar: i
Encoding: 105 105 172
Width: 565
Flags: HW
LayerCount: 2
Fore
SplineSet
175 1020 m 1
 375 1020 l 1
 375 1020 375 1020 375 600 c 128
 375 320 381.666666667 120 395 0 c 1
 190 0 l 1
 190 0 190 0 190 451 c 128
 190 751.666666667 185 941.333333333 175 1020 c 1
190 1250 m 128
 166.666666667 1276.66666667 155 1308.5 155 1345.5 c 128
 155 1382.5 166.666666667 1414.16666667 190 1440.5 c 128
 213.333333333 1466.83333333 243.5 1480 280.5 1480 c 128
 317.5 1480 348.333333333 1466.83333333 373 1440.5 c 128
 397.666666667 1414.16666667 410 1382.5 410 1345.5 c 128
 410 1308.5 397.666666667 1276.66666667 373 1250 c 128
 348.333333333 1223.33333333 317.5 1210 280.5 1210 c 128
 243.5 1210 213.333333333 1223.33333333 190 1250 c 128
EndSplineSet
EndChar

StartChar: j
Encoding: 106 106 173
Width: 595
Flags: HW
LayerCount: 2
Fore
SplineSet
220 530 m 2
 220 778 215 941.333333333 205 1020 c 1
 405 1020 l 1
 405 25 l 2
 405 -210.333333333 346 -360 228 -424 c 0
 172 -454.666666667 106 -470 30 -470 c 0
 2 -470 -34.1666666667 -464.333333333 -78.5 -453 c 128
 -122.833333333 -441.666666667 -160 -425.666666667 -190 -405 c 1
 -155 -240 l 1
 -133 -256.666666667 -102 -270.833333333 -62 -282.5 c 128
 -22 -294.166666667 12 -300 40 -300 c 0
 93.3333333333 -300 136.666666667 -278.833333333 170 -236.5 c 128
 203.333333333 -194.166666667 220 -123.666666667 220 -25 c 2
 220 530 l 2
220 1250 m 128
 196.666666667 1276.66666667 185 1308.5 185 1345.5 c 128
 185 1382.5 196.666666667 1414.16666667 220 1440.5 c 128
 243.333333333 1466.83333333 273.5 1480 310.5 1480 c 128
 347.5 1480 378.333333333 1466.83333333 403 1440.5 c 128
 427.666666667 1414.16666667 440 1382.5 440 1345.5 c 128
 440 1308.5 427.666666667 1276.66666667 403 1250 c 128
 378.333333333 1223.33333333 347.5 1210 310.5 1210 c 128
 273.5 1210 243.333333333 1223.33333333 220 1250 c 128
EndSplineSet
EndChar

StartChar: k
Encoding: 107 107 174
Width: 1035
Flags: HW
LayerCount: 2
Fore
SplineSet
145 1255 m 0
 145 1427 140 1542 130 1600 c 1
 330 1600 l 1
 330 0 l 1
 145 0 l 1
 145 0 145 0 145 1255 c 0
735 1020 m 1
 985 1020 l 1
 436 524 l 1
 280 550 l 1
 735 1020 l 1
305 550 m 1
 410 660 l 1
 1015 0 l 1
 770 0 l 1
 305 550 l 1
EndSplineSet
EndChar

StartChar: l
Encoding: 108 108 175
Width: 565
Flags: HW
LayerCount: 2
Fore
SplineSet
375 475 m 2
 375 280.333333333 381.666666667 122 395 0 c 1
 190 0 l 1
 190 1130 l 2
 190 1325.33333333 183.333333333 1482 170 1600 c 1
 375 1600 l 1
 375 475 l 2
EndSplineSet
EndChar

StartChar: m
Encoding: 109 109 176
Width: 1685
Flags: HW
LayerCount: 2
Fore
SplineSet
175 615 m 2
 175 777 158.333333333 912 125 1020 c 1
 305 1020 l 1
 316.333333333 988 327 936.333333333 337 865 c 1
 398.333333333 935.666666667 455.666666667 982.5 509 1005.5 c 128
 562.333333333 1028.5 619.666666667 1040 681 1040 c 128
 742.333333333 1040 793.5 1023 834.5 989 c 128
 875.5 955 904.333333333 916 921 872 c 1
 983.666666667 939.333333333 1042.66666667 984.166666667 1098 1006.5 c 128
 1153.33333333 1028.83333333 1207.33333333 1040 1260 1040 c 0
 1361.33333333 1040 1431.66666667 1007.5 1471 942.5 c 128
 1510.33333333 877.5 1530 783.333333333 1530 660 c 2
 1530 0 l 1
 1345 0 l 1
 1345 550 l 2
 1345 712.666666667 1326 809.333333333 1288 840 c 0
 1266.66666667 856.666666667 1234.5 865 1191.5 865 c 128
 1148.5 865 1104 846.5 1058 809.5 c 128
 1012 772.5 974.333333333 722.666666667 945 660 c 1
 945 0 l 1
 760 0 l 1
 760 570 l 2
 760 652.666666667 755.666666667 715.166666667 747 757.5 c 128
 738.333333333 799.833333333 723.5 828.333333333 702.5 843 c 128
 681.5 857.666666667 649.5 865 606.5 865 c 128
 563.5 865 518.333333333 845.833333333 471 807.5 c 128
 423.666666667 769.166666667 386.666666667 720 360 660 c 1
 360 0 l 1
 175 0 l 1
 175 615 l 2
EndSplineSet
EndChar

StartChar: n
Encoding: 110 110 177
Width: 1185
Flags: HW
LayerCount: 2
Fore
SplineSet
325 825 m 1
 444.333333333 968.333333333 576 1040 720 1040 c 0
 826.666666667 1040 908.333333333 1005.16666667 965 935.5 c 128
 1021.66666667 865.833333333 1050 762.333333333 1050 625 c 2
 1050 625 1050 625 1050 0 c 1
 865 0 l 1
 865 0 865 0 865 550 c 0
 865 707.333333333 835.666666667 803.333333333 777 838 c 0
 747.666666667 856 709.666666667 865 663 865 c 128
 616.333333333 865 571 850.666666667 527 822 c 128
 483 793.333333333 444.5 757.166666667 411.5 713.5 c 128
 378.5 669.833333333 354.666666667 625.333333333 340 580 c 1
 340 0 l 1
 155 0 l 1
 155 0 155 0 155 615 c 0
 155 783 138.333333333 918 105 1020 c 1
 285 1020 l 1
 300.333333333 979.333333333 313.666666667 914.333333333 325 825 c 1
EndSplineSet
EndChar

StartChar: o
Encoding: 111 111 178
Width: 1140
Flags: HW
LayerCount: 2
Fore
SplineSet
95 505 m 256
 95 619.666666667 117.166666667 716.833333333 161.5 796.5 c 128
 205.833333333 876.166666667 264.833333333 936.666666667 338.5 978 c 128
 412.166666667 1019.33333333 493.833333333 1040 583.5 1040 c 128
 673.166666667 1040 752.833333333 1019.33333333 822.5 978 c 128
 892.166666667 936.666666667 946.666666667 876.166666667 986 796.5 c 128
 1025.33333333 716.833333333 1045 619.666666667 1045 505 c 256
 1045 390.333333333 1022.83333333 293.666666667 978.5 215 c 128
 934.166666667 136.333333333 875.333333333 76.6666666667 802 36 c 128
 728.666666667 -4.66666666667 647.166666667 -25 557.5 -25 c 128
 467.833333333 -25 388 -4.66666666667 318 36 c 128
 248 76.6666666667 193.333333333 136.333333333 154 215 c 128
 114.666666667 293.666666667 95 390.333333333 95 505 c 256
364.5 780.5 m 128
 308.166666667 714.166666667 280 622.5 280 505.5 c 128
 280 388.5 306.833333333 297.5 360.5 232.5 c 128
 414.166666667 167.5 482.666666667 135 566 135 c 128
 649.333333333 135 719.166666667 167.5 775.5 232.5 c 128
 831.833333333 297.5 860 388.5 860 505.5 c 128
 860 622.5 833.166666667 714.166666667 779.5 780.5 c 128
 725.833333333 846.833333333 657.333333333 880 574 880 c 128
 490.666666667 880 420.833333333 846.833333333 364.5 780.5 c 128
EndSplineSet
EndChar

StartChar: p
Encoding: 112 112 179
Width: 1170
Flags: HW
LayerCount: 2
Fore
SplineSet
340 -150 m 2
 340 -294.666666667 348.333333333 -408 365 -490 c 1
 155 -490 l 1
 155 -490 155 -490 155 91 c 128
 155 478.333333333 152.333333333 715.833333333 147 803.5 c 128
 141.666666667 891.166666667 127.666666667 963.333333333 105 1020 c 1
 285 1020 l 1
 303 979.333333333 316.333333333 916 325 830 c 1
 372.333333333 892 427.333333333 942.5 490 981.5 c 128
 552.666666667 1020.5 621.5 1040 696.5 1040 c 128
 771.5 1040 837.5 1018.33333333 894.5 975 c 128
 951.5 931.666666667 995.833333333 872 1027.5 796 c 128
 1059.16666667 720 1075 629 1075 523 c 128
 1075 417 1054.5 322.166666667 1013.5 238.5 c 128
 972.5 154.833333333 917.666666667 90 849 44 c 128
 780.333333333 -2 704 -25 620 -25 c 0
 566.666666667 -25 518.5 -15 475.5 5 c 128
 432.5 25 387.333333333 51.6666666667 340 85 c 1
 340 -150 l 2
340 575 m 1
 340 260 l 1
 429.333333333 198 490.666666667 162.5 524 153.5 c 128
 557.333333333 144.5 593.5 140 632.5 140 c 128
 671.5 140 711.5 154.666666667 752.5 184 c 128
 793.5 213.333333333 826.666666667 255.333333333 852 310 c 128
 877.333333333 364.666666667 890 438.666666667 890 532 c 128
 890 625.333333333 869.666666667 705 829 771 c 128
 788.333333333 837 735.666666667 870 671 870 c 128
 606.333333333 870 544.333333333 845 485 795 c 128
 425.666666667 745 377.333333333 671.666666667 340 575 c 1
EndSplineSet
EndChar

StartChar: q
Encoding: 113 113 180
Width: 1130
Flags: HW
LayerCount: 2
Fore
SplineSet
980 -150 m 0
 980 -294.666666667 988.333333333 -408 1005 -490 c 1
 795 -490 l 1
 795 140 l 1
 701 30 604.333333333 -25 505 -25 c 0
 443.666666667 -25 382.166666667 -8.66666666667 320.5 24 c 128
 258.833333333 56.6666666667 207.5 106.833333333 166.5 174.5 c 128
 125.5 242.166666667 105 321.666666667 105 413 c 128
 105 504.333333333 115 586 135 658 c 128
 155 730 186 794.666666667 228 852 c 0
 319.333333333 977.333333333 451.666666667 1040 625 1040 c 0
 711.666666667 1040 830 1015 980 965 c 1
 980 965 980 965 980 -150 c 0
795 830 m 1
 724.333333333 856.666666667 655.166666667 870 587.5 870 c 128
 519.833333333 870 463.333333333 851 418 813 c 0
 332.666666667 740.333333333 290 631 290 485 c 0
 290 332.333333333 331 230 413 178 c 0
 448.333333333 156 486.5 145 527.5 145 c 128
 568.5 145 613.166666667 163.5 661.5 200.5 c 128
 709.833333333 237.5 754.333333333 292.333333333 795 365 c 1
 795 830 l 1
EndSplineSet
EndChar

StartChar: r
Encoding: 114 114 181
Width: 890
Flags: HW
LayerCount: 2
Fore
SplineSet
155 615 m 2
 155 783 138.333333333 918 105 1020 c 1
 285 1020 l 1
 300.333333333 979.333333333 313.666666667 914.333333333 325 825 c 1
 373.666666667 894.333333333 428.666666667 947.5 490 984.5 c 128
 551.333333333 1021.5 607.333333333 1040 658 1040 c 128
 708.666666667 1040 750.666666667 1024 784 992 c 0
 848 932.666666667 880 837 880 705 c 1
 720 670 l 1
 720 720 710.666666667 764.166666667 692 802.5 c 128
 673.333333333 840.833333333 647.166666667 860 613.5 860 c 128
 579.833333333 860 545.166666667 846.166666667 509.5 818.5 c 128
 473.833333333 790.833333333 440.333333333 755.5 409 712.5 c 128
 377.666666667 669.5 354.666666667 625.333333333 340 580 c 1
 340 0 l 1
 155 0 l 1
 155 615 l 2
EndSplineSet
EndChar

StartChar: s
Encoding: 115 115 182
Width: 965
Flags: HW
LayerCount: 2
Fore
SplineSet
835 960 m 1
 800 785 l 1
 766.666666667 804.333333333 724.666666667 825 674 847 c 128
 623.333333333 869 564.166666667 880 496.5 880 c 128
 428.833333333 880 380.833333333 865.833333333 352.5 837.5 c 128
 324.166666667 809.166666667 310 781.666666667 310 755 c 128
 310 728.333333333 315.333333333 706.666666667 326 690 c 0
 347.333333333 659.333333333 422 629.333333333 550 600 c 0
 686.666666667 570 781.666666667 519.333333333 835 448 c 0
 865 408 880 357.5 880 296.5 c 128
 880 235.5 862.833333333 180.833333333 828.5 132.5 c 128
 794.166666667 84.1666666667 748 45.8333333333 690 17.5 c 128
 632 -10.8333333333 564.833333333 -25 488.5 -25 c 128
 412.166666667 -25 339.833333333 -13.5 271.5 9.5 c 128
 203.166666667 32.5 149.333333333 59.3333333333 110 90 c 1
 160 270 l 1
 205.333333333 229.333333333 260.166666667 196.666666667 324.5 172 c 128
 388.833333333 147.333333333 448.833333333 135 504.5 135 c 128
 560.166666667 135 606.666666667 148.833333333 644 176.5 c 128
 681.333333333 204.166666667 700 233 700 263 c 128
 700 293 692.666666667 318.666666667 678 340 c 0
 647.333333333 383.333333333 563 421.666666667 425 455 c 0
 276.333333333 491.666666667 185.666666667 548 153 624 c 0
 137.666666667 660 130 694.166666667 130 726.5 c 128
 130 758.833333333 136 791.666666667 148 825 c 128
 160 858.333333333 180 891.333333333 208 924 c 0
 274.666666667 1001.33333333 377 1040 515 1040 c 0
 633 1040 739.666666667 1013.33333333 835 960 c 1
EndSplineSet
EndChar

StartChar: t
Encoding: 116 116 183
Width: 835
Flags: HW
LayerCount: 2
Fore
SplineSet
760 55 m 1
 676.666666667 1.66666666667 594 -25 512 -25 c 0
 324 -25 230 73.3333333333 230 270 c 2
 230 270 230 270 230 1320 c 1
 415 1320 l 1
 415 1320 415 1320 415 390 c 0
 415 262 433.333333333 185.333333333 470 160 c 0
 488.666666667 146.666666667 513 140 543 140 c 0
 597.666666667 140 670 165 760 215 c 1
 760 55 l 1
740 850 m 1
 30 850 l 1
 30 995 l 1
 740 995 l 1
 740 850 l 1
EndSplineSet
EndChar

StartChar: u
Encoding: 117 117 184
Width: 1185
Flags: HW
LayerCount: 2
Fore
SplineSet
1025 450 m 2
 1025 267.333333333 1046.66666667 117.333333333 1090 0 c 1
 920 0 l 1
 892.666666667 68.6666666667 874.333333333 135.333333333 865 200 c 1
 741 50 611 -25 475 -25 c 0
 261.666666667 -25 155 118.333333333 155 405 c 2
 155 405 155 405 155 648 c 128
 155 810 148.333333333 934 135 1020 c 1
 340 1020 l 1
 340 465 l 2
 340 351.666666667 352.5 269.166666667 377.5 217.5 c 128
 402.5 165.833333333 446.666666667 140 510 140 c 0
 549.333333333 140 591.166666667 154.833333333 635.5 184.5 c 128
 679.833333333 214.166666667 720.666666667 250.666666667 758 294 c 128
 795.333333333 337.333333333 822.666666667 379.333333333 840 420 c 1
 840 700 l 2
 840 822.666666667 833.333333333 929.333333333 820 1020 c 1
 1025 1020 l 1
 1025 450 l 2
EndSplineSet
EndChar

StartChar: v
Encoding: 118 118 185
Width: 1070
Flags: HW
LayerCount: 2
Fore
SplineSet
840 1020 m 1
 1050 1020 l 1
 1003.33333333 924.666666667 963.333333333 836 930 754 c 2
 930 754 930 754 875.5 617 c 128
 839.166666667 525.666666667 808.333333333 448 783 384 c 0
 721.666666667 228 670.666666667 100 630 0 c 1
 440 0 l 1
 418 54.6666666667 394.166666667 114.5 368.5 179.5 c 128
 342.833333333 244.5 317.333333333 308.666666667 292 372 c 0
 161.333333333 701.333333333 70.6666666667 917.333333333 20 1020 c 1
 230 1020 l 1
 535 200 l 1
 840 1020 l 1
EndSplineSet
EndChar

StartChar: w
Encoding: 119 119 186
Width: 1550
Flags: HW
LayerCount: 2
Fore
SplineSet
700 1020 m 1
 850 1020 l 1
 1110 215 l 1
 1320 1020 l 1
 1505 1020 l 1
 1489.66666667 969.333333333 1476 924.666666667 1464 886 c 0
 1447.33333333 831.333333333 1426 757.666666667 1400 665 c 2
 1215 0 l 1
 1025 0 l 1
 775 785 l 1
 525 0 l 1
 335 0 l 1
 150 665 l 2
 130.666666667 734.333333333 95.6666666667 852.666666667 45 1020 c 1
 230 1020 l 1
 440 215 l 1
 700 1020 l 1
EndSplineSet
EndChar

StartChar: x
Encoding: 120 120 187
Width: 1085
Flags: HW
LayerCount: 2
Fore
SplineSet
805 0 m 1
 270 750 l 2
 226 812.666666667 156 902.666666667 60 1020 c 1
 290 1020 l 1
 830 270 l 2
 866 220 900.333333333 174.333333333 933 133 c 128
 965.666666667 91.6666666667 999.666666667 47.3333333333 1035 0 c 1
 805 0 l 1
489 616 m 1
 556 404 l 1
 275 0 l 1
 50 0 l 1
 148.666666667 129.333333333 215.333333333 219.333333333 250 270 c 2
 489 616 l 1
585 405 m 1
 520 615 l 1
 795 1020 l 1
 1020 1020 l 1
 938.666666667 914.666666667 872 824.666666667 820 750 c 2
 585 405 l 1
EndSplineSet
EndChar

StartChar: y
Encoding: 121 121 188
Width: 1060
Flags: HW
LayerCount: 2
Fore
SplineSet
610 60 m 1
 525 -165 l 1
 190 665 l 2
 138 791.666666667 84.6666666667 910 30 1020 c 1
 230 1020 l 1
 610 60 l 1
1040 1020 m 1
 980 886.666666667 931.666666667 768.333333333 895 665 c 2
 655 0 l 2
 569 -238 478 -382 382 -432 c 0
 334 -457.333333333 284.666666667 -470 234 -470 c 0
 142.666666667 -470 58 -441.666666667 -20 -385 c 1
 40 -225 l 1
 61.3333333333 -242.333333333 89.3333333333 -259.166666667 124 -275.5 c 128
 158.666666667 -291.833333333 191.666666667 -300 223 -300 c 128
 254.333333333 -300 284 -291.333333333 312 -274 c 0
 371.333333333 -238.666666667 434 -129 500 55 c 0
 505.333333333 70.3333333333 512.5 90.3333333333 521.5 115 c 128
 530.5 139.666666667 544 177.5 562 228.5 c 128
 580 279.5 605.666666667 352.333333333 639 447 c 128
 672.333333333 541.666666667 706.666666667 639.166666667 742 739.5 c 128
 777.333333333 839.833333333 810 933.333333333 840 1020 c 1
 1040 1020 l 1
EndSplineSet
EndChar

StartChar: z
Encoding: 122 122 189
Width: 1040
Flags: HW
LayerCount: 2
Fore
SplineSet
290 870 m 2
 212 870 160.333333333 865 135 855 c 1
 135 1020 l 1
 930 1020 l 1
 930 925 l 1
 335 150 l 1
 765 150 l 2
 844.333333333 150 904.333333333 155 945 165 c 1
 945 0 l 1
 105 0 l 1
 105 110 l 1
 680 870 l 1
 290 870 l 2
EndSplineSet
EndChar

StartChar: braceleft
Encoding: 123 123 190
Width: 1000
Flags: HW
LayerCount: 2
Fore
SplineSet
840 -270 m 1
 800 -410 l 1
 631.333333333 -364.666666667 529.666666667 -323 495 -285 c 0
 474.333333333 -261.666666667 459.833333333 -206 451.5 -118 c 128
 443.166666667 -30 437.5 42.8333333333 434.5 100.5 c 128
 431.5 158.166666667 429 212.666666667 427 264 c 0
 422.333333333 378.666666667 416.666666667 440.666666667 410 450 c 128
 403.333333333 459.333333333 389.5 471.5 368.5 486.5 c 128
 347.5 501.5 324.666666667 517.333333333 300 534 c 0
 240 574.666666667 210 601.666666667 210 615 c 256
 210 628.333333333 231.333333333 649.333333333 274 678 c 0
 354.666666667 732.666666667 398.5 764.666666667 405.5 774 c 128
 412.5 783.333333333 417.333333333 805 420 839 c 128
 422.666666667 873 425 915.5 427 966.5 c 128
 429 1017.5 431.5 1071.83333333 434.5 1129.5 c 128
 437.5 1187.16666667 441.333333333 1242.66666667 446 1296 c 0
 458 1418.66666667 472.5 1489.66666667 489.5 1509 c 128
 506.5 1528.33333333 532.666666667 1546 568 1562 c 0
 638.666666667 1592.66666667 716 1618.66666667 800 1640 c 1
 840 1500 l 1
 781.333333333 1480.66666667 733.333333333 1461.5 696 1442.5 c 128
 658.666666667 1423.5 637 1409.66666667 631 1401 c 128
 625 1392.33333333 620.333333333 1371.5 617 1338.5 c 128
 613.666666667 1305.5 611.166666667 1265.33333333 609.5 1218 c 128
 607.833333333 1170.66666667 606.5 1121 605.5 1069 c 128
 604.5 1017 603.333333333 967.333333333 602 920 c 0
 598.666666667 813.333333333 594.666666667 755.333333333 590 746 c 128
 585.333333333 736.666666667 574.833333333 725.666666667 558.5 713 c 128
 542.166666667 700.333333333 524 687.333333333 504 674 c 0
 456.666666667 642.666666667 432 623 430 615 c 1
 432 607 450 591.666666667 484 569 c 0
 548 527 583.333333333 499 590 485 c 0
 596.666666667 473.666666667 601.166666667 403.833333333 603.5 275.5 c 128
 605.833333333 147.166666667 608 59.3333333333 610 12 c 0
 613.333333333 -94.6666666667 619.166666667 -154 627.5 -166 c 128
 635.833333333 -178 652.666666667 -190.333333333 678 -203 c 0
 714.666666667 -221.666666667 768.666666667 -244 840 -270 c 1
EndSplineSet
EndChar

StartChar: bar
Encoding: 124 124 191
Width: 690
Flags: HW
LayerCount: 2
Fore
SplineSet
270 1600 m 1
 420 1600 l 1
 420 -390 l 1
 270 -390 l 1
 270 1600 l 1
EndSplineSet
EndChar

StartChar: braceright
Encoding: 125 125 192
Width: 1000
Flags: HW
LayerCount: 2
Fore
SplineSet
200 -410 m 1
 160 -270 l 1
 283.333333333 -226.666666667 353.333333333 -193.333333333 370 -170 c 0
 382.666666667 -151.333333333 390.166666667 -78.5 392.5 48.5 c 128
 394.833333333 175.5 396.666666667 262.666666667 398 310 c 0
 401.333333333 418 405.333333333 476.5 410 485.5 c 128
 414.666666667 494.5 425.166666667 505.166666667 441.5 517.5 c 128
 457.833333333 529.833333333 476 542.666666667 496 556 c 0
 544.666666667 588 569.333333333 607.666666667 570 615 c 0
 569.333333333 622.333333333 551.666666667 637.333333333 517 660 c 0
 453.666666667 702 419.166666667 728.333333333 413.5 739 c 128
 407.833333333 749.666666667 404.166666667 770.833333333 402.5 802.5 c 128
 400.833333333 834.166666667 399.333333333 873.5 398 920.5 c 128
 396.666666667 967.5 395.5 1017 394.5 1069 c 128
 393.5 1121 392 1170.66666667 390 1218 c 0
 386.666666667 1324.66666667 380.833333333 1384 372.5 1396 c 128
 364.166666667 1408 347.333333333 1420.33333333 322 1433 c 0
 270 1459.66666667 216 1482 160 1500 c 1
 200 1640 l 1
 284 1618.66666667 352.5 1596.33333333 405.5 1573 c 128
 458.5 1549.66666667 491.333333333 1530.83333333 504 1516.5 c 128
 516.666666667 1502.16666667 526.833333333 1475.33333333 534.5 1436 c 128
 542.166666667 1396.66666667 548.5 1350.16666667 553.5 1296.5 c 128
 558.5 1242.83333333 562.5 1187.16666667 565.5 1129.5 c 128
 568.5 1071.83333333 571 1017.33333333 573 966 c 0
 577.666666667 851.333333333 583.333333333 789.5 590 780.5 c 128
 596.666666667 771.5 610.5 759.333333333 631.5 744 c 128
 652.5 728.666666667 675.333333333 712.666666667 700 696 c 0
 760 655.333333333 790 628.333333333 790 615 c 256
 790 601.666666667 768.666666667 580.666666667 726 552 c 0
 644 496.666666667 599.833333333 464.5 593.5 455.5 c 128
 587.166666667 446.5 582.666666667 425 580 391 c 128
 577.333333333 357 575 314.5 573 263.5 c 128
 571 212.5 568.5 158.166666667 565.5 100.5 c 128
 562.5 42.8333333333 558.666666667 -12.6666666667 554 -66 c 0
 542 -188.666666667 527.5 -259.5 510.5 -278.5 c 128
 493.5 -297.5 467.333333333 -315 432 -331 c 0
 372 -358.333333333 294.666666667 -384.666666667 200 -410 c 1
EndSplineSet
EndChar

StartChar: asciitilde
Encoding: 126 126 193
Width: 1115
Flags: HW
LayerCount: 2
Fore
SplineSet
125 375 m 1
 20 375 l 1
 20 466.333333333 52.6666666667 534.666666667 118 580 c 0
 150.666666667 603.333333333 197.666666667 615 259 615 c 128
 320.333333333 615 382.666666667 606.166666667 446 588.5 c 128
 509.333333333 570.833333333 573.666666667 553.333333333 639 536 c 128
 704.333333333 518.666666667 776.333333333 510 855 510 c 0
 896.333333333 510 925.833333333 521 943.5 543 c 128
 961.166666667 565 971.666666667 587.333333333 975 610 c 1
 1080 610 l 1
 1080 514.666666667 1045.66666667 443.333333333 977 396 c 0
 942.333333333 372 892.5 360 827.5 360 c 128
 762.5 360 695 368.833333333 625 386.5 c 128
 555 404.166666667 488 421.666666667 424 439 c 128
 360 456.333333333 303.666666667 465 255 465 c 0
 175 465 131.666666667 435 125 375 c 1
EndSplineSet
EndChar

StartChar: exclamdown
Encoding: 161 161 194
Width: 764
Flags: HW
LayerCount: 2
Fore
SplineSet
278 660 m 1
 443 660 l 1
 446.333333333 515.333333333 449.833333333 355.166666667 453.5 179.5 c 128
 457.166666667 3.83333333333 468.666666667 -192.666666667 488 -410 c 1
 233 -410 l 1
 252.333333333 -192.666666667 263.833333333 3.83333333333 267.5 179.5 c 128
 271.166666667 355.166666667 274.666666667 515.333333333 278 660 c 1
266.5 883.5 m 128
 240.166666667 909.833333333 227 941.5 227 978.5 c 128
 227 1015.5 240.166666667 1047 266.5 1073 c 128
 292.833333333 1099 324.5 1112 361.5 1112 c 128
 398.5 1112 430 1099 456 1073 c 128
 482 1047 495 1015.5 495 978.5 c 128
 495 941.5 482 909.833333333 456 883.5 c 128
 430 857.166666667 398.5 844 361.5 844 c 128
 324.5 844 292.833333333 857.166666667 266.5 883.5 c 128
EndSplineSet
EndChar

StartChar: cent
Encoding: 162 162 195
Width: 1200
Flags: HW
LayerCount: 2
Fore
SplineSet
466.5 301.5 m 128
 520.166666667 238.5 596.833333333 207 696.5 207 c 128
 796.166666667 207 889 245 975 321 c 1
 994 155 l 1
 946 119 897.166666667 92.5 847.5 75.5 c 128
 797.833333333 58.5 734 50 656 50 c 128
 578 50 504 69.6666666667 434 109 c 128
 364 148.333333333 308.333333333 204.666666667 267 278 c 128
 225.666666667 351.333333333 205 437.166666667 205 535.5 c 128
 205 633.833333333 225.166666667 722.5 265.5 801.5 c 128
 305.833333333 880.5 363 943.666666667 437 991 c 128
 511 1038.33333333 598.333333333 1062 699 1062 c 0
 811 1062 906 1035 984 981 c 1
 951 810 l 1
 865 873.333333333 778 905 690 905 c 128
 602 905 529.333333333 873.666666667 472 811 c 128
 414.666666667 748.333333333 386 663.5 386 556.5 c 128
 386 449.5 412.833333333 364.5 466.5 301.5 c 128
605 1320 m 1
 735 1320 l 1
 735 -210 l 1
 605 -210 l 1
 605 1320 l 1
EndSplineSet
EndChar

StartChar: sterling
Encoding: 163 163 196
Width: 1200
Flags: HW
LayerCount: 2
Fore
SplineSet
579 165 m 2
 809.666666667 165 955 170 1015 180 c 1
 1015 0 l 1
 145 0 l 1
 145 130 l 1
 185 159.333333333 219.833333333 196.333333333 249.5 241 c 128
 279.166666667 285.666666667 294 339.166666667 294 401.5 c 128
 294 463.833333333 291.166666667 532.833333333 285.5 608.5 c 128
 279.833333333 684.166666667 274.166666667 758.666666667 268.5 832 c 128
 262.833333333 905.333333333 260 973 260 1035 c 0
 260 1185 296.333333333 1297.5 369 1372.5 c 128
 441.666666667 1447.5 537 1485 655 1485 c 0
 694.333333333 1485 737.833333333 1478.83333333 785.5 1466.5 c 128
 833.166666667 1454.16666667 872.333333333 1437 903 1415 c 1
 857 1265 l 1
 832.333333333 1283.66666667 799.833333333 1298.33333333 759.5 1309 c 128
 719.166666667 1319.66666667 684.333333333 1325 655 1325 c 0
 593 1325 542.5 1306 503.5 1268 c 128
 464.5 1230 445 1165.66666667 445 1075 c 0
 445 1014.33333333 450.666666667 911.666666667 462 767 c 128
 473.333333333 622.333333333 479 521.666666667 479 465 c 0
 479 335 444.666666667 235 376 165 c 1
 579 165 l 2
155 690 m 1
 155 835 l 1
 765 835 l 1
 765 690 l 1
 155 690 l 1
EndSplineSet
EndChar

StartChar: currency
Encoding: 164 164 197
Width: 1200
Flags: HW
LayerCount: 2
Fore
SplineSet
950 1137 m 1
 1008 1057 1037 969.833333333 1037 875.5 c 128
 1037 781.166666667 1008.66666667 696.666666667 952 622 c 1
 1163 411 l 1
 1069 318 l 1
 858 529 l 1
 781.333333333 467.666666667 695 437 599 437 c 128
 503 437 417.333333333 467.666666667 342 529 c 1
 131 318 l 1
 37 411 l 1
 248 622 l 1
 191.333333333 699.333333333 163 786.833333333 163 884.5 c 128
 163 982.166666667 192.666666667 1065.66666667 252 1135 c 1
 37 1350 l 1
 131 1444 l 1
 346 1229 l 1
 422 1285.66666667 507 1314 601 1314 c 128
 695 1314 778.666666667 1285 852 1227 c 1
 1069 1444 l 1
 1163 1350 l 1
 950 1137 l 1
866 721 m 128
 892 767.666666667 905 819.5 905 876.5 c 128
 905 933.5 891.833333333 985 865.5 1031 c 128
 839.166666667 1077 803.333333333 1113.66666667 758 1141 c 128
 712.666666667 1168.33333333 660.833333333 1182 602.5 1182 c 128
 544.166666667 1182 491.666666667 1168.83333333 445 1142.5 c 128
 398.333333333 1116.16666667 361.5 1079.83333333 334.5 1033.5 c 128
 307.5 987.166666667 294 934.333333333 294 875 c 128
 294 815.666666667 307.666666667 763 335 717 c 128
 362.333333333 671 399.333333333 634.833333333 446 608.5 c 128
 492.666666667 582.166666667 545.166666667 569 603.5 569 c 128
 661.833333333 569 713.666666667 582.666666667 759 610 c 128
 804.333333333 637.333333333 840 674.333333333 866 721 c 128
EndSplineSet
EndChar

StartChar: yen
Encoding: 165 165 198
Width: 1200
Flags: HW
LayerCount: 2
Fore
SplineSet
550 560 m 1
 255 1065 l 2
 157 1232.33333333 72 1364 0 1460 c 1
 230 1460 l 1
 700 675 l 1
 550 560 l 1
655 560 m 1
 525 675 l 1
 970 1460 l 1
 1200 1460 l 1
 1124 1352 1040.66666667 1220.33333333 950 1065 c 2
 655 560 l 1
695 435 m 2
 695 199.666666667 700 54.6666666667 710 0 c 1
 490 0 l 1
 500 54.6666666667 505 199.666666667 505 435 c 2
 505 695 l 1
 695 695 l 1
 695 435 l 2
200 625 m 1
 200 770 l 1
 1008 770 l 1
 1008 625 l 1
 200 625 l 1
200 375 m 1
 200 520 l 1
 1008 520 l 1
 1008 375 l 1
 200 375 l 1
EndSplineSet
EndChar

StartChar: brokenbar
Encoding: 166 166 199
Width: 1024
Flags: HW
LayerCount: 2
Fore
SplineSet
440 445 m 1
 590 445 l 1
 590 -390 l 1
 440 -390 l 1
 440 445 l 1
590 775 m 1
 440 775 l 1
 440 1600 l 1
 590 1600 l 1
 590 775 l 1
EndSplineSet
EndChar

StartChar: section
Encoding: 167 167 200
Width: 1024
Flags: HW
LayerCount: 2
Fore
SplineSet
835 1405 m 1
 800 1230 l 1
 766.666666667 1249.33333333 724.666666667 1270 674 1292 c 128
 623.333333333 1314 565.333333333 1325 500 1325 c 128
 434.666666667 1325 386.666666667 1310.5 356 1281.5 c 128
 325.333333333 1252.5 310 1217.33333333 310 1176 c 128
 310 1134.66666667 337 1091.16666667 391 1045.5 c 128
 445 999.833333333 516.666666667 946 606 884 c 128
 695.333333333 822 763.333333333 763.333333333 810 708 c 128
 856.666666667 652.666666667 880 588.666666667 880 516 c 128
 880 443.333333333 863.5 379.833333333 830.5 325.5 c 128
 797.5 271.166666667 752.166666667 228.333333333 694.5 197 c 128
 636.833333333 165.666666667 570.333333333 150 495 150 c 1
 500 310 l 1
 558.666666667 310 606.666666667 326.666666667 644 360 c 128
 681.333333333 393.333333333 700 432.333333333 700 477 c 128
 700 521.666666667 681.833333333 566.666666667 645.5 612 c 128
 609.166666667 657.333333333 539 712.666666667 435 778 c 128
 331 843.333333333 254.166666667 905.333333333 204.5 964 c 128
 154.833333333 1022.66666667 130 1081 130 1139 c 128
 130 1197 142.333333333 1252.16666667 167 1304.5 c 128
 191.666666667 1356.83333333 232.166666667 1400 288.5 1434 c 128
 344.833333333 1468 414.666666667 1485 498 1485 c 0
 627.333333333 1485 739.666666667 1458.33333333 835 1405 c 1
110 -355 m 1
 160 -175 l 1
 205.333333333 -215.666666667 260.166666667 -248.333333333 324.5 -273 c 128
 388.833333333 -297.666666667 448.833333333 -310 504.5 -310 c 128
 560.166666667 -310 606.666666667 -294.5 644 -263.5 c 128
 681.333333333 -232.5 700 -199.666666667 700 -165 c 0
 700 -101 673 -44.5 619 4.5 c 128
 565 53.5 493.333333333 109 404 171 c 128
 314.666666667 233 246.666666667 293.166666667 200 351.5 c 128
 153.333333333 409.833333333 130 478 130 556 c 128
 130 634 147.166666667 697.166666667 181.5 745.5 c 128
 215.833333333 793.833333333 262.166666667 830.833333333 320.5 856.5 c 128
 378.833333333 882.166666667 443.666666667 895 515 895 c 1
 510 735 l 1
 451.333333333 735 403.333333333 720.666666667 366 692 c 128
 328.666666667 663.333333333 310 625.5 310 578.5 c 128
 310 531.5 328.166666667 485.833333333 364.5 441.5 c 128
 400.833333333 397.166666667 471 342.333333333 575 277 c 0
 778.333333333 149 880 10 880 -140 c 0
 880 -200 862.833333333 -255 828.5 -305 c 128
 794.166666667 -355 748 -395 690 -425 c 128
 632 -455 564.833333333 -470 488.5 -470 c 128
 412.166666667 -470 339.833333333 -458.5 271.5 -435.5 c 128
 203.166666667 -412.5 149.333333333 -385.666666667 110 -355 c 1
EndSplineSet
EndChar

StartChar: dieresis
Encoding: 168 168 201
Width: 680
Flags: HW
LayerCount: 2
Fore
SplineSet
457.5 1250 m 128
 432.5 1276.66666667 420 1308.5 420 1345.5 c 128
 420 1382.5 432.5 1414.16666667 457.5 1440.5 c 128
 482.5 1466.83333333 513.5 1480 550.5 1480 c 128
 587.5 1480 618.333333333 1466.83333333 643 1440.5 c 128
 667.666666667 1414.16666667 680 1382.5 680 1345.5 c 128
 680 1308.5 667.666666667 1276.66666667 643 1250 c 128
 618.333333333 1223.33333333 587.5 1210 550.5 1210 c 128
 513.5 1210 482.5 1223.33333333 457.5 1250 c 128
37.5 1250 m 128
 12.5 1276.66666667 0 1308.5 0 1345.5 c 128
 0 1382.5 12.5 1414.16666667 37.5 1440.5 c 128
 62.5 1466.83333333 93.5 1480 130.5 1480 c 128
 167.5 1480 198.333333333 1466.83333333 223 1440.5 c 128
 247.666666667 1414.16666667 260 1382.5 260 1345.5 c 128
 260 1308.5 247.666666667 1276.66666667 223 1250 c 128
 198.333333333 1223.33333333 167.5 1210 130.5 1210 c 128
 93.5 1210 62.5 1223.33333333 37.5 1250 c 128
EndSplineSet
EndChar

StartChar: copyright
Encoding: 169 169 202
Width: 1515
Flags: HW
LayerCount: 2
Fore
SplineSet
755 1365 m 0
 597.666666667 1365 463.666666667 1311 353 1203 c 0
 234.333333333 1087 175 929.333333333 175 730 c 256
 175 530.666666667 234.333333333 373 353 257 c 0
 463.666666667 149 597.666666667 95 755 95 c 0
 913 95 1048 149 1160 257 c 0
 1280 372.333333333 1340 530 1340 730 c 256
 1340 930 1280 1087.66666667 1160 1203 c 0
 1048 1311 913 1365 755 1365 c 0
754 1485 m 0
 842 1485 928 1469.16666667 1012 1437.5 c 128
 1096 1405.83333333 1172 1358.33333333 1240 1295 c 0
 1390 1156.33333333 1465 968 1465 730 c 0
 1465 487.333333333 1390 298 1240 162 c 0
 1104 37.3333333333 942.333333333 -25 755 -25 c 0
 564.333333333 -25 402 37.3333333333 268 162 c 0
 122.666666667 297.333333333 50 486.666666667 50 730 c 0
 50 968.666666667 122.666666667 1157 268 1295 c 0
 402.666666667 1421.66666667 564.666666667 1485 754 1485 c 0
760 385 m 0
 848 385 931.333333333 425 1010 505 c 1
 1035 375 l 1
 998.333333333 340.333333333 953.833333333 314.166666667 901.5 296.5 c 128
 849.166666667 278.833333333 791.166666667 270 727.5 270 c 128
 663.833333333 270 602.333333333 288.833333333 543 326.5 c 128
 483.666666667 364.166666667 437.5 416.833333333 404.5 484.5 c 128
 371.5 552.166666667 355 634 355 730 c 128
 355 826 375 909.333333333 415 980 c 128
 455 1050.66666667 506.333333333 1104.16666667 569 1140.5 c 128
 631.666666667 1176.83333333 691.333333333 1195 748 1195 c 128
 804.666666667 1195 854.5 1188.5 897.5 1175.5 c 128
 940.5 1162.5 984.666666667 1139 1030 1105 c 1
 990 985 l 1
 917.333333333 1051.66666667 842.333333333 1085 765 1085 c 128
 687.666666667 1085 620.833333333 1055 564.5 995 c 128
 508.166666667 935 480 848.333333333 480 735 c 0
 480 676.333333333 491.5 620.166666667 514.5 566.5 c 128
 537.5 512.833333333 570 469.166666667 612 435.5 c 128
 654 401.833333333 703.333333333 385 760 385 c 0
EndSplineSet
EndChar

StartChar: ordfeminine
Encoding: 170 170 203
Width: 784
Flags: HW
LayerCount: 2
Fore
SplineSet
561 781 m 1
 483 703 395.666666667 664 299 664 c 0
 233 664 178.5 682.333333333 135.5 719 c 128
 92.5 755.666666667 71 794.333333333 71 835 c 128
 71 875.666666667 79.3333333333 912.333333333 96 945 c 0
 134.666666667 1020.33333333 219.666666667 1064 351 1076 c 0
 399 1082 462 1087.66666667 540 1093 c 1
 540 1141 l 2
 540 1215 484 1252 372 1252 c 0
 304.666666667 1252 229 1225 145 1171 c 1
 145.666666667 1185 146.5 1206.16666667 147.5 1234.5 c 128
 148.5 1262.83333333 150 1283.66666667 152 1297 c 1
 188 1311.66666667 225.833333333 1325.16666667 265.5 1337.5 c 128
 305.166666667 1349.83333333 358.333333333 1356 425 1356 c 128
 491.666666667 1356 549.166666667 1338.5 597.5 1303.5 c 128
 645.833333333 1268.5 670 1225.33333333 670 1174 c 2
 670 920 l 2
 670 846.666666667 687.333333333 766.666666667 722 680 c 1
 596 680 l 1
 592 690.666666667 586.5 705 579.5 723 c 128
 572.5 741 566.333333333 760.333333333 561 781 c 1
78 500 m 1
 78 600 l 1
 730 600 l 1
 730 500 l 1
 78 500 l 1
229.5 795 m 128
 251.166666667 779 280.5 771 317.5 771 c 128
 354.5 771 390.333333333 778 425 792 c 128
 459.666666667 806 498 839 540 891 c 1
 540 1002 l 1
 477.333333333 998 416.5 992.5 357.5 985.5 c 128
 298.5 978.5 257 963.666666667 233 941 c 128
 209 918.333333333 197 892.333333333 197 863 c 128
 197 833.666666667 207.833333333 811 229.5 795 c 128
EndSplineSet
EndChar

StartChar: guillemotleft
Encoding: 171 171 204
Width: 1300
Flags: HW
LayerCount: 2
Fore
SplineSet
695 0 m 1
 513 0 l 1
 75 512 l 1
 510 1020 l 1
 695 1020 l 1
 305 512 l 1
 695 0 l 1
1185 0 m 1
 1003 0 l 1
 565 512 l 1
 1000 1020 l 1
 1185 1020 l 1
 795 512 l 1
 1185 0 l 1
EndSplineSet
EndChar

StartChar: logicalnot
Encoding: 172 172 205
Width: 1200
Flags: HW
LayerCount: 2
Fore
SplineSet
1065 340 m 1
 915 340 l 1
 915 650 l 1
 110 650 l 1
 110 800 l 1
 1065 800 l 1
 1065 340 l 1
EndSplineSet
EndChar

StartChar: uni00AD
Encoding: 173 173 206
Width: 860
Flags: HW
LayerCount: 2
Fore
SplineSet
80 555 m 1
 80 705 l 1
 780 705 l 1
 780 555 l 1
 80 555 l 1
EndSplineSet
EndChar

StartChar: registered
Encoding: 174 174 207
Width: 1615
Flags: HW
LayerCount: 2
Fore
SplineSet
854 1485 m 0
 942 1485 1028 1469.16666667 1112 1437.5 c 128
 1196 1405.83333333 1272 1358.33333333 1340 1295 c 0
 1490 1156.33333333 1565 968 1565 730 c 0
 1565 487.333333333 1490 298 1340 162 c 0
 1204 37.3333333333 1042.33333333 -25 855 -25 c 0
 664.333333333 -25 502 37.3333333333 368 162 c 0
 222.666666667 297.333333333 150 486.666666667 150 730 c 0
 150 968.666666667 222.666666667 1157 368 1295 c 0
 502.666666667 1421.66666667 664.666666667 1485 854 1485 c 0
855 1365 m 0
 697.666666667 1365 563.666666667 1311 453 1203 c 0
 334.333333333 1087 275 929.333333333 275 730 c 256
 275 530.666666667 334.333333333 373 453 257 c 0
 563.666666667 149 697.666666667 95 855 95 c 0
 1013 95 1148 149 1260 257 c 0
 1380 372.333333333 1440 530 1440 730 c 256
 1440 930 1380 1087.66666667 1260 1203 c 0
 1148 1311 1013 1365 855 1365 c 0
545 1170 m 1
 616.333333333 1176.66666667 699.666666667 1180 795 1180 c 128
 890.333333333 1180 969.166666667 1159.33333333 1031.5 1118 c 128
 1093.83333333 1076.66666667 1125 1012.33333333 1125 925 c 0
 1125 835 1089 767.333333333 1017 722 c 0
 985.666666667 702.666666667 953.333333333 688.666666667 920 680 c 1
 937.333333333 656.666666667 960.5 625.333333333 989.5 586 c 128
 1018.5 546.666666667 1048.66666667 506 1080 464 c 0
 1156.66666667 362 1201.66666667 304 1215 290 c 1
 1060 290 l 1
 799 668 l 1
 675 668 l 1
 675 548 l 2
 675 412 678.333333333 326 685 290 c 1
 545 290 l 1
 550.333333333 324 553 410 553 548 c 2
 553 898 l 2
 553 1045.33333333 550.333333333 1136 545 1170 c 1
790 1076 m 0
 748 1076 709.666666667 1074.66666667 675 1072 c 1
 675 767 l 1
 790 767 l 2
 857.333333333 767 909.166666667 779.833333333 945.5 805.5 c 128
 981.833333333 831.166666667 1000 867.666666667 1000 915 c 0
 1000 1022.33333333 930 1076 790 1076 c 0
EndSplineSet
EndChar

StartChar: macron
Encoding: 175 175 208
Width: 710
Flags: HW
LayerCount: 2
Fore
SplineSet
0 1240 m 1
 0 1390 l 1
 710 1390 l 1
 710 1240 l 1
 0 1240 l 1
EndSplineSet
EndChar

StartChar: degree
Encoding: 176 176 209
Width: 640
Flags: HW
LayerCount: 2
Fore
SplineSet
455 1235 m 256
 455 1272.33333333 441.833333333 1304.16666667 415.5 1330.5 c 128
 389.166666667 1356.83333333 357.333333333 1370 320 1370 c 256
 282.666666667 1370 250.833333333 1356.83333333 224.5 1330.5 c 128
 198.166666667 1304.16666667 185 1272.33333333 185 1235 c 256
 185 1197.66666667 198.166666667 1165.83333333 224.5 1139.5 c 128
 250.833333333 1113.16666667 282.666666667 1100 320 1100 c 256
 357.333333333 1100 389.166666667 1113.16666667 415.5 1139.5 c 128
 441.833333333 1165.83333333 455 1197.66666667 455 1235 c 256
70 1235 m 256
 70 1281.66666667 81.1666666667 1323.83333333 103.5 1361.5 c 128
 125.833333333 1399.16666667 155.833333333 1429.16666667 193.5 1451.5 c 128
 231.166666667 1473.83333333 273.333333333 1485 320 1485 c 256
 366.666666667 1485 408.833333333 1473.83333333 446.5 1451.5 c 128
 484.166666667 1429.16666667 514.166666667 1399.16666667 536.5 1361.5 c 128
 558.833333333 1323.83333333 570 1281.66666667 570 1235 c 256
 570 1188.33333333 558.833333333 1146.16666667 536.5 1108.5 c 128
 514.166666667 1070.83333333 484.166666667 1040.83333333 446.5 1018.5 c 128
 408.833333333 996.166666667 366.666666667 985 320 985 c 256
 273.333333333 985 231.166666667 996.166666667 193.5 1018.5 c 128
 155.833333333 1040.83333333 125.833333333 1070.83333333 103.5 1108.5 c 128
 81.1666666667 1146.16666667 70 1188.33333333 70 1235 c 256
EndSplineSet
EndChar

StartChar: plusminus
Encoding: 177 177 210
Width: 1200
Flags: HW
LayerCount: 2
Fore
SplineSet
1045 835 m 1
 675 835 l 1
 675 470 l 1
 525 470 l 1
 525 835 l 1
 155 835 l 1
 155 985 l 1
 525 985 l 1
 525 1365 l 1
 675 1365 l 1
 675 985 l 1
 1045 985 l 1
 1045 835 l 1
1045 200 m 1
 155 200 l 1
 155 350 l 1
 1045 350 l 1
 1045 200 l 1
EndSplineSet
EndChar

StartChar: uni00B2
Encoding: 178 178 211
Width: 840
Flags: HW
LayerCount: 2
Fore
SplineSet
456 787 m 2
 619.333333333 787 721 790.333333333 761 797 c 1
 761 680 l 1
 89 680 l 1
 89 790 l 1
 203 867.333333333 307.333333333 955.666666667 402 1055 c 0
 515.333333333 1174.33333333 572 1275.66666667 572 1359 c 0
 572 1420.33333333 551.333333333 1463.83333333 510 1489.5 c 128
 468.666666667 1515.16666667 424.666666667 1528 378 1528 c 128
 331.333333333 1528 285.166666667 1516.83333333 239.5 1494.5 c 128
 193.833333333 1472.16666667 155.333333333 1443.33333333 124 1408 c 1
 92 1518 l 1
 120.666666667 1554.66666667 164 1585 222 1609 c 128
 280 1633 337.666666667 1645 395 1645 c 128
 452.333333333 1645 505 1633.83333333 553 1611.5 c 128
 601 1589.16666667 639.5 1557.66666667 668.5 1517 c 128
 697.5 1476.33333333 712 1428 712 1372 c 0
 712 1215.33333333 567.333333333 1020.33333333 278 787 c 1
 456 787 l 2
EndSplineSet
EndChar

StartChar: uni00B3
Encoding: 179 179 212
Width: 840
Flags: HW
LayerCount: 2
Fore
SplineSet
100 911 m 1
 184 822.333333333 284 778 400 778 c 0
 484 778 549.333333333 804.333333333 596 857 c 0
 620 883.666666667 632 920.166666667 632 966.5 c 128
 632 1012.83333333 604.166666667 1052.5 548.5 1085.5 c 128
 492.833333333 1118.5 423.666666667 1135 341 1135 c 2
 292 1135 l 1
 292 1246 l 1
 341 1246 l 2
 435.666666667 1246 510 1273.33333333 564 1328 c 0
 588 1352.66666667 600 1378.33333333 600 1405 c 0
 600 1448.33333333 580.333333333 1480.33333333 541 1501 c 128
 501.666666667 1521.66666667 458 1532 410 1532 c 0
 311.333333333 1532 226.666666667 1498.33333333 156 1431 c 1
 131 1541 l 1
 159 1570.33333333 198 1595 248 1615 c 128
 298 1635 352.166666667 1645 410.5 1645 c 128
 468.833333333 1645 522.5 1636 571.5 1618 c 128
 620.5 1600 659.666666667 1574.33333333 689 1541 c 128
 718.333333333 1507.66666667 733 1469.5 733 1426.5 c 128
 733 1383.5 721.333333333 1346.66666667 698 1316 c 0
 650.666666667 1254.66666667 587.666666667 1216 509 1200 c 1
 600.333333333 1185.33333333 672 1146.66666667 724 1084 c 0
 753.333333333 1048 768 1002.83333333 768 948.5 c 128
 768 894.166666667 750.333333333 845.833333333 715 803.5 c 128
 679.666666667 761.166666667 633 727.333333333 575 702 c 128
 517 676.666666667 455.666666667 664 391 664 c 0
 268.333333333 664 165.333333333 699.666666667 82 771 c 1
 100 911 l 1
EndSplineSet
EndChar

StartChar: acute
Encoding: 180 180 213
Width: 580
Flags: HW
LayerCount: 2
Fore
SplineSet
350 1600 m 1
 580 1600 l 1
 160 1170 l 1
 0 1170 l 1
 350 1600 l 1
EndSplineSet
EndChar

StartChar: mu
Encoding: 181 181 214
Width: 1185
Flags: HW
LayerCount: 2
Fore
SplineSet
1025 450 m 0
 1025 267.333333333 1046.66666667 117.333333333 1090 0 c 1
 920 0 l 1
 892.666666667 68.6666666667 874.333333333 135.333333333 865 200 c 1
 815 119.333333333 750.666666667 56 672 10 c 0
 630.666666667 -13.3333333333 587.666666667 -25 543 -25 c 128
 498.333333333 -25 458 -14.1666666667 422 7.5 c 128
 386 29.1666666667 358.666666667 53.3333333333 340 80 c 1
 340 -150 l 2
 340 -294.666666667 348.333333333 -408 365 -490 c 1
 155 -490 l 1
 155 700 l 2
 155 827.333333333 148.333333333 934 135 1020 c 1
 340 1020 l 1
 340 1020 340 1020 340 465 c 0
 340 323 379.333333333 226 458 174 c 0
 492 151.333333333 526.5 140 561.5 140 c 128
 596.5 140 632.666666667 154.666666667 670 184 c 128
 707.333333333 213.333333333 741.5 249.666666667 772.5 293 c 128
 803.5 336.333333333 826 378.666666667 840 420 c 1
 840 700 l 2
 840 822.666666667 833.333333333 929.333333333 820 1020 c 1
 1025 1020 l 1
 1025 1020 1025 1020 1025 450 c 0
EndSplineSet
EndChar

StartChar: paragraph
Encoding: 182 182 215
Width: 1025
Flags: HW
LayerCount: 2
Fore
SplineSet
965 1345 m 1
 850 1345 l 1
 850 0 l 1
 715 0 l 1
 715 1345 l 1
 555 1345 l 1
 555 0 l 1
 420 0 l 1
 420 765 l 1
 334.666666667 765 256 789.333333333 184 838 c 0
 94.6666666667 898.666666667 50 990.333333333 50 1113 c 0
 50 1236.33333333 95.3333333333 1328 186 1388 c 0
 259.333333333 1436 344 1460 440 1460 c 2
 965 1460 l 1
 965 1345 l 1
EndSplineSet
EndChar

StartChar: periodcentered
Encoding: 183 183 216
Width: 679
Flags: HW
LayerCount: 2
Fore
SplineSet
244.5 614.5 m 128
 218.166666667 640.833333333 205 672.5 205 709.5 c 128
 205 746.5 218.166666667 778 244.5 804 c 128
 270.833333333 830 302.5 843 339.5 843 c 128
 376.5 843 408 830 434 804 c 128
 460 778 473 746.5 473 709.5 c 128
 473 672.5 460 640.833333333 434 614.5 c 128
 408 588.166666667 376.5 575 339.5 575 c 128
 302.5 575 270.833333333 588.166666667 244.5 614.5 c 128
EndSplineSet
EndChar

StartChar: cedilla
Encoding: 184 184 217
Width: 390
Flags: HW
LayerCount: 2
Fore
SplineSet
216.5 -205.5 m 128
 198.166666667 -188.5 174.166666667 -180 144.5 -180 c 128
 114.833333333 -180 86.6666666667 -188.333333333 60 -205 c 1
 60 50 l 1
 185 50 l 1
 185 -95 l 1
 201.666666667 -91.6666666667 217.666666667 -90 233 -90 c 0
 278.333333333 -90 315.833333333 -106 345.5 -138 c 128
 375.166666667 -170 390 -209.666666667 390 -257 c 128
 390 -304.333333333 377 -344.5 351 -377.5 c 128
 325 -410.5 292.5 -435.833333333 253.5 -453.5 c 128
 214.5 -471.166666667 174.666666667 -480 134 -480 c 128
 93.3333333333 -480 48.6666666667 -466.666666667 0 -440 c 1
 10 -340 l 1
 37.3333333333 -360 68.3333333333 -370 103 -370 c 128
 137.666666667 -370 169.666666667 -362.666666667 199 -348 c 128
 228.333333333 -333.333333333 243.166666667 -310.166666667 243.5 -278.5 c 128
 243.833333333 -246.833333333 234.833333333 -222.5 216.5 -205.5 c 128
EndSplineSet
EndChar

StartChar: uni00B9
Encoding: 185 185 218
Width: 840
Flags: HW
LayerCount: 2
Fore
SplineSet
710 680 m 1
 136 680 l 1
 136 790 l 1
 356 790 l 1
 356 1499 l 1
 146 1387 l 1
 129 1504 l 1
 370 1642 l 1
 490 1642 l 1
 490 790 l 1
 710 790 l 1
 710 680 l 1
EndSplineSet
EndChar

StartChar: ordmasculine
Encoding: 186 186 219
Width: 798
Flags: HW
LayerCount: 2
Fore
SplineSet
71 1008 m 0
 71 1082.66666667 86.5 1145.83333333 117.5 1197.5 c 128
 148.5 1249.16666667 189.833333333 1288.5 241.5 1315.5 c 128
 293.166666667 1342.5 349.666666667 1356 411 1356 c 0
 507 1356 585.166666667 1326 645.5 1266 c 128
 705.833333333 1206 736 1120 736 1008 c 0
 736 934 720.5 871.333333333 689.5 820 c 128
 658.5 768.666666667 617.333333333 729.833333333 566 703.5 c 128
 514.666666667 677.166666667 458.333333333 664 397 664 c 0
 301 664 222.666666667 693.5 162 752.5 c 128
 101.333333333 811.5 71 896.666666667 71 1008 c 0
260 1187 m 128
 220.666666667 1143.66666667 201 1084.16666667 201 1008.5 c 128
 201 932.833333333 219.833333333 873.833333333 257.5 831.5 c 128
 295.166666667 789.166666667 343.166666667 768 401.5 768 c 128
 459.833333333 768 508.666666667 789.166666667 548 831.5 c 128
 587.333333333 873.833333333 607 932.833333333 607 1008.5 c 128
 607 1084.16666667 588.166666667 1143.66666667 550.5 1187 c 128
 512.833333333 1230.33333333 464.833333333 1252 406.5 1252 c 128
 348.166666667 1252 299.333333333 1230.33333333 260 1187 c 128
71 500 m 1
 71 600 l 1
 736 600 l 1
 736 500 l 1
 71 500 l 1
EndSplineSet
EndChar

StartChar: guillemotright
Encoding: 187 187 220
Width: 1300
Flags: HW
LayerCount: 2
Fore
SplineSet
787 0 m 1
 605 0 l 1
 995 512 l 1
 605 1020 l 1
 790 1020 l 1
 1225 512 l 1
 787 0 l 1
297 0 m 1
 115 0 l 1
 505 512 l 1
 115 1020 l 1
 300 1020 l 1
 735 512 l 1
 297 0 l 1
EndSplineSet
EndChar

StartChar: onequarter
Encoding: 188 188 221
Width: 1600
Flags: HW
LayerCount: 2
Fore
SplineSet
300 815 m 1
 300 1470 l 1
 125 1365 l 1
 105 1475 l 1
 315 1600 l 1
 430 1600 l 1
 430 815 l 1
 610 815 l 1
 610 710 l 1
 115 710 l 1
 115 815 l 1
 300 815 l 1
1311 1600 m 1
 1442 1600 l 1
 360 -50 l 1
 230 -50 l 1
 1311 1600 l 1
1520 260 m 1
 1385 260 l 1
 1385 0 l 1
 1255 0 l 1
 1255 260 l 1
 865 260 l 1
 865 365 l 1
 1255 890 l 1
 1385 890 l 1
 1385 365 l 1
 1520 365 l 1
 1520 260 l 1
1255 365 m 1
 1255 720 l 1
 1000 365 l 1
 1255 365 l 1
EndSplineSet
EndChar

StartChar: onehalf
Encoding: 189 189 222
Width: 1600
Flags: HW
LayerCount: 2
Fore
SplineSet
1276 1600 m 1
 1407 1600 l 1
 335 -50 l 1
 205 -50 l 1
 1276 1600 l 1
265 815 m 1
 265 1470 l 1
 90 1365 l 1
 70 1475 l 1
 280 1600 l 1
 395 1600 l 1
 395 815 l 1
 575 815 l 1
 575 710 l 1
 80 710 l 1
 80 815 l 1
 265 815 l 1
1290 105 m 2
 1423.33333333 105 1510 108.333333333 1550 115 c 1
 1550 0 l 1
 975 0 l 1
 975 110 l 1
 1070.33333333 178.666666667 1158 259.333333333 1238 352 c 0
 1332.66666667 460.666666667 1380 553.333333333 1380 630 c 0
 1380 686.666666667 1364.16666667 725 1332.5 745 c 128
 1300.83333333 765 1265 775 1225 775 c 128
 1185 775 1145 764.833333333 1105 744.5 c 128
 1065 724.166666667 1031.66666667 697.666666667 1005 665 c 1
 975 775 l 1
 999.666666667 808.333333333 1037.16666667 836.666666667 1087.5 860 c 128
 1137.83333333 883.333333333 1187.66666667 895 1237 895 c 128
 1286.33333333 895 1331.66666667 884.5 1373 863.5 c 128
 1414.33333333 842.5 1447.5 813 1472.5 775 c 128
 1497.5 737 1510 692.333333333 1510 641 c 128
 1510 589.666666667 1497.5 538 1472.5 486 c 128
 1447.5 434 1415.66666667 383.666666667 1377 335 c 0
 1307.66666667 248.333333333 1230.33333333 171.666666667 1145 105 c 1
 1290 105 l 2
EndSplineSet
EndChar

StartChar: threequarters
Encoding: 190 190 223
Width: 1600
Flags: HW
LayerCount: 2
Fore
SplineSet
165 1525 m 1
 235.666666667 1578.33333333 310.333333333 1605 389 1605 c 128
 467.666666667 1605 530 1584.33333333 576 1543 c 128
 622 1501.66666667 645 1452.83333333 645 1396.5 c 128
 645 1340.16666667 627.333333333 1294.66666667 592 1260 c 128
 556.666666667 1225.33333333 517.666666667 1205.33333333 475 1200 c 1
 503.666666667 1197.33333333 533.333333333 1186.83333333 564 1168.5 c 128
 594.666666667 1150.16666667 620.833333333 1124 642.5 1090 c 128
 664.166666667 1056 675 1015 675 967 c 128
 675 919 662 874.333333333 636 833 c 128
 610 791.666666667 574.5 758.333333333 529.5 733 c 128
 484.5 707.666666667 435 695 381 695 c 0
 280.333333333 695 195 725 125 785 c 1
 140 915 l 1
 167.333333333 884.333333333 201.833333333 859.166666667 243.5 839.5 c 128
 285.166666667 819.833333333 329.333333333 810 376 810 c 128
 422.666666667 810 463.333333333 823 498 849 c 128
 532.666666667 875 550 914.833333333 550 968.5 c 128
 550 1022.16666667 531.166666667 1063.33333333 493.5 1092 c 128
 455.833333333 1120.66666667 401.333333333 1135 330 1135 c 2
 285 1135 l 1
 285 1245 l 1
 330 1245 l 2
 389.333333333 1245 436.666666667 1258.33333333 472 1285 c 128
 507.333333333 1311.66666667 525 1343.33333333 525 1380 c 0
 525 1453.33333333 478.333333333 1490 385 1490 c 0
 353 1490 322.666666667 1485.66666667 294 1477 c 128
 265.333333333 1468.33333333 230.666666667 1449.33333333 190 1420 c 1
 165 1525 l 1
1301 1600 m 1
 1432 1600 l 1
 360 -50 l 1
 230 -50 l 1
 1301 1600 l 1
1515 260 m 1
 1380 260 l 1
 1380 0 l 1
 1250 0 l 1
 1250 260 l 1
 860 260 l 1
 860 365 l 1
 1250 890 l 1
 1380 890 l 1
 1380 365 l 1
 1515 365 l 1
 1515 260 l 1
1250 365 m 1
 1250 720 l 1
 995 365 l 1
 1250 365 l 1
EndSplineSet
EndChar

